SplineFontDB: 3.0
FontName: FiraCodemScript-Italic
FullName: Fira Code mScript Italic
FamilyName: Fira Code mScript
Weight: Regular
Copyright: Copyright (c) 2015 by Nikita Prokopov for FiraCode Spacing\n\nCopyright (c) 2011-2012, Eduardo Tunni (http://www.tipo.net.ar), with Reserved Font Name 'Merienda'
Version: 1.205
ItalicAngle: -10
UnderlinePosition: -100
UnderlineWidth: 50
Ascent: 800
Descent: 200
InvalidEm: 0
sfntRevision: 0x0001347a
LayerCount: 2
Layer: 0 1 "Back" 1
Layer: 1 1 "Fore" 0
XUID: [1021 102 -1850447114 864]
StyleMap: 0x0001
FSType: 0
OS2Version: 4
OS2_WeightWidthSlopeOnly: 0
OS2_UseTypoMetrics: 1
CreationTime: 1519723474
ModificationTime: 1530317247
PfmFamily: 49
TTFWeight: 400
TTFWidth: 5
LineGap: 0
VLineGap: 0
Panose: 2 11 5 9 5 0 0 2 0 4
OS2TypoAscent: 935
OS2TypoAOffset: 0
OS2TypoDescent: -265
OS2TypoDOffset: 0
OS2TypoLinegap: 0
OS2WinAscent: 935
OS2WinAOffset: 0
OS2WinDescent: 265
OS2WinDOffset: 0
HheadAscent: 935
HheadAOffset: 0
HheadDescent: -265
HheadDOffset: 0
OS2SubXSize: 650
OS2SubYSize: 600
OS2SubXOff: 0
OS2SubYOff: 75
OS2SupXSize: 650
OS2SupYSize: 600
OS2SupXOff: 0
OS2SupYOff: 350
OS2StrikeYSize: 50
OS2StrikeYPos: 316
OS2CapHeight: 689
OS2XHeight: 527
OS2Vendor: 'CTDB'
OS2CodePages: 6000009f.00000000
OS2UnicodeRanges: 40000287.02003801.00000000.00000000
Lookup: 1 0 0 "'aalt' Access All Alternates lookup 0" { "'aalt' Access All Alternates lookup 0 subtable"  } ['aalt' ('DFLT' <'dflt' > 'cyrl' <'dflt' > 'grek' <'dflt' > 'latn' <'AFK ' 'AZE ' 'CAT ' 'CRT ' 'KAZ ' 'MOL ' 'PLK ' 'ROM ' 'TAT ' 'TRK ' 'dflt' > 'zinh' <'dflt' > 'zyyy' <'dflt' > ) ]
Lookup: 3 0 0 "'aalt' Access All Alternates lookup 1" { "'aalt' Access All Alternates lookup 1 subtable"  } ['aalt' ('DFLT' <'dflt' > 'cyrl' <'dflt' > 'grek' <'dflt' > 'latn' <'AFK ' 'AZE ' 'CAT ' 'CRT ' 'KAZ ' 'MOL ' 'PLK ' 'ROM ' 'TAT ' 'TRK ' 'dflt' > 'zinh' <'dflt' > 'zyyy' <'dflt' > ) ]

StartChar: .notdef
Encoding: 1114112 -1 0
Width: 600
Flags: W
HStem: -350 52<145 456> 48 72<257.314 306.686> 403 48<214.015 335.742> 998 52<145 456>
VStem: 90 55<-298 998> 247 70<58.8295 109.686> 257 50<155.704 222.49> 348 54<275.745 388.99> 456 54<-298 998>
LayerCount: 2
Fore
SplineSet
90 1050 m 1,0,-1
 510 1050 l 1,1,-1
 510 -350 l 1,2,-1
 90 -350 l 1,3,-1
 90 1050 l 1,0,-1
456 -298 m 1,4,-1
 456 998 l 1,5,-1
 145 998 l 1,6,-1
 145 -298 l 1,7,-1
 456 -298 l 1,4,-1
299.5 155.5 m 128,-1,9
 292 149 292 149 282 149 c 256,10,11
 272 149 272 149 264.5 155.5 c 128,-1,12
 257 162 257 162 257 173 c 2,13,-1
 257 257 l 1,14,15
 310 260 310 260 329 276.5 c 128,-1,16
 348 293 348 293 348 334 c 0,17,18
 348 367 348 367 335 385 c 128,-1,19
 322 403 322 403 287 403 c 0,20,21
 258 403 258 403 235 392 c 0,22,23
 228 389 228 389 222 389 c 0,24,25
 211 389 211 389 204.5 395.5 c 128,-1,26
 198 402 198 402 198 412 c 0,27,28
 198 431 198 431 227.5 441 c 128,-1,29
 257 451 257 451 291 451 c 0,30,31
 351 451 351 451 376.5 419 c 128,-1,32
 402 387 402 387 402 336 c 0,33,34
 402 283 402 283 379.5 254 c 128,-1,35
 357 225 357 225 307 218 c 1,36,-1
 307 173 l 2,37,8
 307 162 307 162 299.5 155.5 c 128,-1,9
257 110 m 128,-1,39
 267 120 267 120 282 120 c 256,40,41
 297 120 297 120 307 110 c 128,-1,42
 317 100 317 100 317 85 c 0,43,44
 317 69 317 69 307 58.5 c 128,-1,45
 297 48 297 48 282 48 c 256,46,47
 267 48 267 48 257 58.5 c 128,-1,48
 247 69 247 69 247 85 c 0,49,38
 247 100 247 100 257 110 c 128,-1,39
EndSplineSet
EndChar

StartChar: A
Encoding: 65 65 4
Width: 600
GlyphClass: 2
Flags: W
LayerCount: 2
Fore
SplineSet
5 44 m 0,0,1
 7 63 7 63 71.5 185.5 c 128,-1,2
 136 308 136 308 220.5 466.5 c 128,-1,3
 305 625 305 625 337 693 c 2,4,-1
 363 750 l 1,5,6
 350 774 350 774 332 793 c 1,7,8
 363 805 363 805 391 805 c 0,9,10
 452 805 452 805 480 725 c 0,11,12
 497 674 497 674 517 497 c 0,13,14
 518 495 518 495 519 484 c 128,-1,15
 520 473 520 473 531 382.5 c 128,-1,16
 542 292 542 292 545.5 262.5 c 128,-1,17
 549 233 549 233 561 172 c 0,18,19
 578 69 578 69 613 12 c 1,20,21
 565 -16 565 -16 535.5 -16 c 128,-1,22
 506 -16 506 -16 494 2.5 c 128,-1,23
 482 21 482 21 474.5 59.5 c 128,-1,24
 467 98 467 98 446 274 c 1,25,26
 421 240 421 240 357 238 c 2,27,-1
 181 231 l 1,28,29
 113 77 113 77 77 -33 c 1,30,31
 1 1 1 1 5 44 c 0,0,1
390 661 m 1,32,33
 253 388 253 388 215 306 c 1,34,-1
 442 306 l 1,35,36
 416 535 416 535 390 661 c 1,32,33
EndSplineSet
Substitution2: "Single Substitution lookup 159 subtable" ordfeminine
Substitution2: "'aalt' Access All Alternates lookup 0 subtable" ordfeminine
EndChar

StartChar: Abreve
Encoding: 258 258 6
Width: 600
GlyphClass: 2
Flags: W
HStem: 236 54<232 399> 712 20G<320 419.5> 721 62<412.062 528.822>
VStem: 340 56<814.312 834>
LayerCount: 2
Fore
SplineSet
363 752 m 4,0,1
 338 776 338 776 338 814 c 4,2,3
 338 824 338 824 340 834 c 5,4,-1
 396 846 l 5,5,6
 404 782 404 782 464 783 c 4,7,8
 496 783 496 783 522.5 800 c 4,9,10
 549 817 549 817 566 846 c 5,11,-1
 617 834 l 5,12,13
 599 783 599 783 551.5 752 c 4,14,15
 504 721 504 721 449 721 c 4,16,17
 396 721 396 721 363 752 c 4,0,1
EndSplineSet
Refer: 4 65 N 1 0 0 1 0 0 0
EndChar

StartChar: Amacron
Encoding: 256 256 10
Width: 600
GlyphClass: 2
Flags: W
HStem: 236 54<232 399> 712 20G<320 419.5> 755 61<349 584>
LayerCount: 2
Fore
SplineSet
334 755 m 5,0,-1
 349 816 l 5,1,-1
 599 816 l 5,2,-1
 584 755 l 5,3,-1
 334 755 l 5,0,-1
EndSplineSet
Refer: 4 65 N 1 0 0 1 0 0 0
EndChar

StartChar: Aogonek
Encoding: 260 260 11
Width: 600
GlyphClass: 2
Flags: W
HStem: -218 64<424.822 524.189> 0 21G<20 112.587> 0 21G<20 112.587> 167 69<184 411> 635 20G<238.13 361.84>
VStem: 338 77<-145.173 -61.4122>
LayerCount: 2
Fore
SplineSet
441 -55 m 128,-1,1
 415 -81 415 -81 415 -108 c 0,2,3
 415 -131 415 -131 428 -142.5 c 128,-1,4
 441 -154 441 -154 471 -154 c 0,5,6
 498 -154 498 -154 532 -147 c 1,7,-1
 524 -212 l 1,8,9
 482 -218 482 -218 460 -218 c 0,10,11
 404 -218 404 -218 371 -191.5 c 128,-1,12
 338 -165 338 -165 338 -124 c 0,13,14
 338 -34 338 -34 484 16 c 1,15,-1
 434 167 l 1,16,-1
 161 167 l 1,17,-1
 106 0 l 1,18,-1
 20 0 l 1,19,-1
 245 655 l 1,20,-1
 355 655 l 1,21,-1
 579 0 l 1,22,-1
 539 0 l 1,23,0
 467 -29 467 -29 441 -55 c 128,-1,1
411 236 m 1,24,-1
 298 584 l 1,25,-1
 184 236 l 1,26,-1
 411 236 l 1,24,-1
EndSplineSet
EndChar

StartChar: Aring
Encoding: 197 197 12
Width: 600
GlyphClass: 2
Flags: W
HStem: 211 51<219 375.858> 648 20G<297 395.5> 715 59<299.47 406.751> 908 58<299.212 406.751>
VStem: 212 66<793.819 888.122> 428 66<793.819 887.813>
LayerCount: 2
Fore
SplineSet
278 841 m 256,0,1
 278 813 278 813 300 793.5 c 128,-1,2
 322 774 322 774 353 774 c 128,-1,3
 384 774 384 774 406 793.5 c 128,-1,4
 428 813 428 813 428 841 c 256,5,6
 428 869 428 869 406 888.5 c 128,-1,7
 384 908 384 908 353 908 c 0,8,9
 321 908 321 908 299.5 888.5 c 128,-1,10
 278 869 278 869 278 841 c 256,0,1
212 841 m 256,11,12
 212 894 212 894 253 930 c 128,-1,13
 294 966 294 966 352 966 c 0,14,15
 411 966 411 966 452.5 929.5 c 128,-1,16
 494 893 494 893 494 841 c 0,17,18
 494 788 494 788 452.5 751.5 c 128,-1,19
 411 715 411 715 352 715 c 0,20,21
 294 715 294 715 253 751.5 c 128,-1,22
 212 788 212 788 212 841 c 256,11,12
198 214 m 1,23,24
 173 157 173 157 152 89 c 128,-1,25
 131 21 131 21 114 19 c 2,26,-1
 57 13 l 1,27,-1
 54 13 l 2,28,29
 50 13 50 13 48 15 c 128,-1,30
 46 17 46 17 45 19 c 0,31,32
 45 38 45 38 101 166 c 2,33,-1
 112 192 l 1,34,-1
 75 205 l 1,35,36
 78 228 78 228 87 238 c 128,-1,37
 96 248 96 248 136 260 c 1,38,39
 172 339 172 339 214 426 c 128,-1,40
 256 513 256 513 304 606 c 1,41,-1
 297 650 l 1,42,-1
 396 668 l 1,43,44
 395 653 395 653 394.5 645 c 128,-1,45
 394 637 394 637 394 629 c 0,46,47
 394 583 394 583 405.5 515.5 c 128,-1,48
 417 448 417 448 441 352 c 0,49,50
 472 231 472 231 501 159 c 128,-1,51
 530 87 530 87 566 34 c 1,52,-1
 524 18 l 2,53,54
 515 14 515 14 507 12 c 128,-1,55
 499 10 499 10 494 10 c 0,56,57
 476 10 476 10 455 51.5 c 128,-1,58
 434 93 434 93 394 214 c 1,59,60
 375 213 375 213 354.5 212 c 128,-1,61
 334 211 334 211 294 211 c 0,62,63
 265 211 265 211 243 212 c 128,-1,64
 221 213 221 213 198 214 c 1,23,24
219 260 m 1,65,66
 235 260 235 260 261 261 c 128,-1,67
 287 262 287 262 295 262 c 0,68,69
 306 262 306 262 346 260 c 0,70,71
 366 260 366 260 376 260 c 1,72,73
 361 314 361 314 349.5 368.5 c 128,-1,74
 338 423 338 423 328 478 c 1,75,-1
 312 478 l 1,76,77
 280 414 280 414 256.5 358 c 128,-1,78
 233 302 233 302 219 260 c 1,65,66
EndSplineSet
EndChar

StartChar: AE
Encoding: 198 198 14
Width: 600
GlyphClass: 2
Flags: W
HStem: 7 65<361.315 533.622> 243 43<197 278> 338 56<386 548.03> 348 50<386.362 549> 643 20G<559 576.154>
VStem: 260 85<87.4719 241.442>
LayerCount: 2
Fore
SplineSet
197 283 m 1,0,-1
 288 286 l 1,1,2
 292 304 292 304 301 347 c 0,3,4
 330 492 330 492 350 594 c 1,5,-1
 333 592 l 1,6,7
 295 508 295 508 260 430.5 c 128,-1,8
 225 353 225 353 197 283 c 1,0,-1
287 628 m 1,9,-1
 282 652 l 1,10,11
 368 652 368 652 559 661 c 1,12,-1
 580 663 l 1,13,-1
 570 611 l 1,14,15
 529 606 529 606 493.5 603 c 128,-1,16
 458 600 458 600 424 598 c 1,17,18
 415 555 415 555 405 504 c 128,-1,19
 395 453 395 453 386 394 c 1,20,21
 429 394 429 394 473 395 c 128,-1,22
 517 396 517 396 561 398 c 1,23,-1
 549 348 l 1,24,25
 518 347 518 347 482 345.5 c 128,-1,26
 446 344 446 344 373 338 c 1,27,28
 359 260 359 260 350 196 c 0,29,30
 345 160 345 160 345 138 c 0,31,32
 345 134 345 134 345 130 c 0,33,34
 345 102 345 102 364 87 c 128,-1,35
 383 72 383 72 421 72 c 0,36,37
 451 72 451 72 489 76 c 128,-1,38
 527 80 527 80 572 86 c 1,39,-1
 566 36 l 1,40,41
 506 22 506 22 459 14.5 c 128,-1,42
 412 7 412 7 376 7 c 0,43,44
 316 7 316 7 288 32 c 128,-1,45
 260 57 260 57 260 109 c 0,46,47
 260 129 260 129 264 161 c 128,-1,48
 268 193 268 193 278 243 c 1,49,-1
 179 238 l 1,50,51
 149 176 149 176 125.5 101 c 128,-1,52
 102 26 102 26 85 24 c 2,53,-1
 28 20 l 1,54,-1
 25 20 l 2,55,56
 22 20 22 20 19 21 c 128,-1,57
 16 22 16 22 15 24 c 0,58,59
 15 43 15 43 69 167 c 0,60,61
 82 199 82 199 91 218 c 1,62,-1
 54 233 l 1,63,64
 58 270 58 270 118 286 c 1,65,-1
 119 286 l 1,66,67
 157 372 157 372 199 456.5 c 128,-1,68
 241 541 241 541 287 628 c 1,9,-1
EndSplineSet
EndChar

StartChar: AEacute
Encoding: 508 508 15
Width: 600
GlyphClass: 2
Flags: W
HStem: 7 65<361.315 533.622> 243 43<197 278> 338 56<386 548.03> 348 50<386.362 549> 643 20G<559 576.154> 717 21G<419.909 481.867>
VStem: 260 85<87.4719 241.442>
LayerCount: 2
Fore
SplineSet
641 792 m 5,0,-1
 424 717 l 5,1,-1
 415 761 l 5,2,-1
 623 861 l 5,3,-1
 641 792 l 5,0,-1
EndSplineSet
Refer: 14 198 N 1 0 0 1 0 0 0
EndChar

StartChar: B
Encoding: 66 66 16
Width: 600
GlyphClass: 2
Flags: W
LayerCount: 2
Fore
SplineSet
161.5 472 m 128,-1,1
 184 602 184 602 193 708 c 128,-1,2
 202 814 202 814 191 847 c 1,3,4
 270 819 270 819 284 759 c 1,5,6
 364 802 364 802 443.5 802 c 128,-1,7
 523 802 523 802 578.5 757 c 128,-1,8
 634 712 634 712 627 636 c 128,-1,9
 620 560 620 560 567.5 504 c 128,-1,10
 515 448 515 448 426 418 c 1,11,12
 492 403 492 403 542.5 350.5 c 128,-1,13
 593 298 593 298 586 221 c 0,14,15
 576 103 576 103 490.5 39.5 c 128,-1,16
 405 -24 405 -24 284.5 -24 c 128,-1,17
 164 -24 164 -24 72 53 c 1,18,19
 73 61 73 61 106 201.5 c 128,-1,0
 139 342 139 342 161.5 472 c 128,-1,1
498.5 694.5 m 128,-1,21
 467 728 467 728 406.5 728 c 128,-1,22
 346 728 346 728 291 702 c 1,23,24
 286 639 286 639 238.5 387.5 c 128,-1,25
 191 136 191 136 185 65 c 1,26,27
 232 47 232 47 280 47 c 0,28,29
 363 47 363 47 422 96.5 c 128,-1,30
 481 146 481 146 488 230 c 0,31,32
 494 293 494 293 442 340.5 c 128,-1,33
 390 388 390 388 291 392 c 1,34,-1
 291 428 l 1,35,36
 396 441 396 441 458 495.5 c 128,-1,37
 520 550 520 550 525 605.5 c 128,-1,20
 530 661 530 661 498.5 694.5 c 128,-1,21
EndSplineSet
EndChar

StartChar: C
Encoding: 67 67 17
Width: 600
GlyphClass: 2
Flags: W
LayerCount: 2
Fore
SplineSet
310 -15 m 0,0,1
 202 -15 202 -15 136 75 c 128,-1,2
 70 165 70 165 85 337 c 0,3,4
 97 464 97 464 145.5 568.5 c 128,-1,5
 194 673 194 673 285 739.5 c 128,-1,6
 376 806 376 806 482.5 806 c 128,-1,7
 589 806 589 806 632 752.5 c 128,-1,8
 675 699 675 699 669 630 c 128,-1,9
 663 561 663 561 626 519.5 c 128,-1,10
 589 478 589 478 535 478 c 0,11,12
 517 478 517 478 493 486 c 1,13,14
 517 510 517 510 537.5 553.5 c 128,-1,15
 558 597 558 597 562 641 c 128,-1,16
 566 685 566 685 546 716.5 c 128,-1,17
 526 748 526 748 476 748 c 0,18,19
 402 748 402 748 338 684.5 c 128,-1,20
 274 621 274 621 236.5 528.5 c 128,-1,21
 199 436 199 436 191 338 c 0,22,23
 178 200 178 200 223.5 131.5 c 128,-1,24
 269 63 269 63 350 63 c 0,25,26
 405 63 405 63 464.5 97 c 128,-1,27
 524 131 524 131 567 195 c 1,28,29
 581 195 581 195 592.5 186 c 128,-1,30
 604 177 604 177 604 168 c 1,31,32
 540 62 540 62 455 21 c 0,33,34
 380 -15 380 -15 310 -15 c 0,0,1
EndSplineSet
EndChar

StartChar: Ccircumflex
Encoding: 264 264 21
Width: 600
GlyphClass: 2
Flags: W
HStem: 0 58<289.432 435.354> 648 73<309.543 453.58> 722 21G<387.805 435.065 608.286 655.463>
VStem: 90 98<184.34 458.004>
LayerCount: 2
Fore
SplineSet
678 763 m 5,0,-1
 634 722 l 5,1,-1
 535 799 l 5,2,-1
 400 722 l 5,3,-1
 375 763 l 5,4,-1
 525 864 l 5,5,-1
 578 864 l 5,6,-1
 678 763 l 5,0,-1
EndSplineSet
Refer: 17 67 N 1 0 0 1 0 0 0
EndChar

StartChar: Cdotaccent
Encoding: 266 266 22
Width: 600
GlyphClass: 2
Flags: W
HStem: 0 58<289.432 435.354> 648 73<309.543 453.58> 735 112<493.332 568.338>
VStem: 90 98<184.34 458.004> 473 116<755.665 826.679>
LayerCount: 2
Fore
SplineSet
581 832 m 4,0,1
 589 821 589 821 589 807 c 4,2,3
 589 800 589 800 587 791 c 4,4,5
 581 766 581 766 561.5 750.5 c 4,6,7
 542 735 542 735 517 735 c 4,8,9
 490 734 490 734 480 750 c 4,10,11
 473 760 473 760 473 775 c 4,12,13
 473 783 473 783 475 791 c 4,14,15
 481 816 481 816 500 831.5 c 4,16,17
 519 847 519 847 544 847 c 4,18,19
 570 847 570 847 581 832 c 4,0,1
EndSplineSet
Refer: 17 67 N 1 0 0 1 0 0 0
EndChar

StartChar: D
Encoding: 68 68 23
Width: 600
GlyphClass: 2
Flags: W
LayerCount: 2
Fore
SplineSet
401 802 m 0,0,1
 532 802 532 802 597.5 693 c 128,-1,2
 663 584 663 584 649 419 c 0,3,4
 634 251 634 251 537 123 c 0,5,6
 489 60 489 60 415 22.5 c 128,-1,7
 341 -15 341 -15 265.5 -15 c 128,-1,8
 190 -15 190 -15 134 2 c 128,-1,9
 78 19 78 19 54 36 c 2,10,-1
 29 53 l 1,11,12
 30 61 30 61 63 202 c 0,13,14
 130 496 130 496 151 735 c 0,15,16
 158 814 158 814 147 847 c 1,17,18
 224 819 224 819 238 759 c 1,19,20
 327 802 327 802 401 802 c 0,0,1
140 70 m 1,21,22
 181 55 181 55 241 55 c 128,-1,23
 301 55 301 55 359.5 87.5 c 128,-1,24
 418 120 418 120 457 174 c 0,25,26
 537 283 537 283 549 420 c 128,-1,27
 561 557 561 557 510.5 641 c 128,-1,28
 460 725 460 725 362 725 c 0,29,30
 296 725 296 725 246 702 c 1,31,32
 241 640 241 640 193.5 390 c 128,-1,33
 146 140 146 140 140 70 c 1,21,22
EndSplineSet
EndChar

StartChar: Eth
Encoding: 208 208 24
Width: 600
GlyphClass: 2
Flags: W
HStem: -10 79<168 255.972> 316 52<85.2224 141.364> 335 55<262.833 331.263> 487 21G<53.5 63> 614 68<276.734 445.842>
VStem: 108 85<77.2527 242.157> 492 91<350.878 564.639>
LayerCount: 2
Fore
SplineSet
143 317 m 1,0,-1
 99 316 l 2,1,2
 86 316 86 316 82 320 c 128,-1,3
 78 324 78 324 78 333 c 0,4,5
 78 344 78 344 85 352 c 128,-1,6
 92 360 92 360 114 368 c 2,7,-1
 157 379 l 1,8,9
 178 499 178 499 197.5 528.5 c 128,-1,10
 217 558 217 558 255 558 c 0,11,12
 266 558 266 558 271.5 552.5 c 128,-1,13
 277 547 277 547 277 534.5 c 128,-1,14
 277 522 277 522 263 464 c 0,15,16
 251 415 251 415 244 384 c 1,17,-1
 312 389 l 2,18,19
 314 389 314 389 318 389.5 c 128,-1,20
 322 390 322 390 323 390 c 0,21,22
 332 390 332 390 335.5 385.5 c 128,-1,23
 339 381 339 381 339 367.5 c 128,-1,24
 339 354 339 354 331.5 346.5 c 128,-1,25
 324 339 324 339 306 335 c 2,26,-1
 232 323 l 1,27,28
 214 247 214 247 203 186 c 0,29,30
 193 131 193 131 193 107 c 0,31,32
 193 105 193 105 193 104 c 0,33,34
 193 85 193 85 199.5 77 c 128,-1,35
 206 69 206 69 219 69 c 0,36,37
 247 69 247 69 290 96 c 128,-1,38
 333 123 333 123 373 163 c 0,39,40
 429 222 429 222 460.5 302.5 c 128,-1,41
 492 383 492 383 492 464 c 0,42,43
 492 538 492 538 462.5 576 c 128,-1,44
 433 614 433 614 375 614 c 0,45,46
 339 614 339 614 288.5 599.5 c 128,-1,47
 238 585 238 585 187 559 c 0,48,49
 151 540 151 540 109.5 513.5 c 128,-1,50
 68 487 68 487 58 487 c 0,51,52
 49 487 49 487 45.5 491 c 128,-1,53
 42 495 42 495 42 504 c 0,54,55
 42 545 42 545 141 600 c 1,56,-1
 146 604 l 1,57,58
 219 644 219 644 286 663 c 0,59,60
 352 682 352 682 412 682 c 0,61,62
 493 682 493 682 538 630 c 128,-1,63
 583 578 583 578 583 482 c 0,64,65
 583 378 583 378 529 272.5 c 128,-1,66
 475 167 475 167 381 90 c 0,67,68
 327 46 327 46 269.5 18 c 128,-1,69
 212 -10 212 -10 182 -10 c 0,70,71
 154 -10 154 -10 131 14 c 128,-1,72
 108 38 108 38 108 66 c 0,73,74
 108 93 108 93 115 147.5 c 128,-1,75
 122 202 122 202 143 317 c 1,0,-1
EndSplineSet
EndChar

StartChar: Dcaron
Encoding: 270 270 25
Width: 600
GlyphClass: 2
Flags: W
HStem: -11 86<177.5 265.971> 666 75<299.448 470.882> 716 21G<388.583 490.126>
VStem: 114 90<56.5 247.873> 521 97<383.98 610.895>
LayerCount: 2
Fore
SplineSet
611 819 m 5,0,-1
 461 716 l 5,1,-1
 408 716 l 5,2,-1
 308 819 l 5,3,-1
 353 860 l 5,4,-1
 450 783 l 5,5,-1
 586 860 l 5,6,-1
 611 819 l 5,0,-1
EndSplineSet
Refer: 23 68 N 1 0 0 1 0 0 0
EndChar

StartChar: E
Encoding: 69 69 27
Width: 600
GlyphClass: 2
Flags: W
LayerCount: 2
Fore
SplineSet
423 340 m 2,0,-1
 336 341 l 2,1,2
 287 341 287 341 262 339 c 1,3,4
 233 197 233 197 223 84 c 1,5,6
 450 84 450 84 554 114 c 1,7,8
 542 56 542 56 507 24 c 128,-1,9
 472 -8 472 -8 424 -8 c 0,10,11
 411 -8 411 -8 340 -1.5 c 128,-1,12
 269 5 269 5 202.5 5 c 128,-1,13
 136 5 136 5 68 -8 c 1,14,15
 79 25 79 25 110 49 c 1,16,17
 110 55 110 55 112.5 87 c 128,-1,18
 115 119 115 119 162 324 c 1,19,20
 134 317 134 317 114 309 c 1,21,22
 114 327 114 327 115 338 c 0,23,24
 120 399 120 399 182 414 c 1,25,26
 219 582 219 582 230 682 c 1,27,28
 205 684 205 684 195.5 695 c 128,-1,29
 186 706 186 706 188.5 734.5 c 128,-1,30
 191 763 191 763 201 785 c 1,31,32
 300 771 300 771 418.5 771 c 128,-1,33
 537 771 537 771 647 793 c 1,34,35
 639 755 639 755 615.5 731.5 c 128,-1,36
 592 708 592 708 545 698 c 128,-1,37
 498 688 498 688 468 686 c 0,38,39
 413 681 413 681 332 681 c 1,40,41
 327 645 327 645 279 418 c 1,42,43
 339 416 339 416 366 416 c 0,44,45
 452 416 452 416 492 445 c 1,46,47
 493 429 493 429 492 419 c 0,48,49
 485 340 485 340 423 340 c 2,0,-1
EndSplineSet
EndChar

StartChar: Ebreve
Encoding: 276 276 29
Width: 600
GlyphClass: 2
Flags: W
HStem: 7 72<228.725 433.947> 368 60<255 465.832> 380 59<396.609 511> 712 20G<555.5 586.03> 721 62<433.062 549.822>
VStem: 122 89<94.4449 275.74> 361 56<814.312 834>
LayerCount: 2
Fore
SplineSet
384 752 m 4,0,1
 359 776 359 776 359 814 c 4,2,3
 359 824 359 824 361 834 c 5,4,-1
 417 846 l 5,5,6
 425 782 425 782 485 783 c 4,7,8
 517 783 517 783 543.5 800 c 4,9,10
 570 817 570 817 587 846 c 5,11,-1
 638 834 l 5,12,13
 620 783 620 783 572.5 752 c 4,14,15
 525 721 525 721 470 721 c 4,16,17
 417 721 417 721 384 752 c 4,0,1
EndSplineSet
Refer: 27 69 N 1 0 0 1 0 0 0
EndChar

StartChar: Ecaron
Encoding: 282 282 30
Width: 600
GlyphClass: 2
Flags: W
HStem: 7 72<228.725 433.947> 368 60<255 465.832> 380 59<396.609 511> 712 20G<555.5 586.03> 716 21G<425.583 527.126>
VStem: 122 89<94.4449 275.74>
LayerCount: 2
Fore
SplineSet
648 819 m 5,0,-1
 498 716 l 5,1,-1
 445 716 l 5,2,-1
 345 819 l 5,3,-1
 390 860 l 5,4,-1
 487 783 l 5,5,-1
 623 860 l 5,6,-1
 648 819 l 5,0,-1
EndSplineSet
Refer: 27 69 N 1 0 0 1 0 0 0
EndChar

StartChar: Edotaccent
Encoding: 278 278 33
Width: 600
GlyphClass: 2
Flags: W
HStem: 7 72<228.725 433.947> 368 60<255 465.832> 380 59<396.609 511> 712 20G<555.5 586.03> 735 112<449.332 524.338>
VStem: 122 89<94.4449 275.74> 429 116<755.665 826.679>
LayerCount: 2
Fore
SplineSet
537 832 m 4,0,1
 545 821 545 821 545 807 c 4,2,3
 545 800 545 800 543 791 c 4,4,5
 537 766 537 766 517.5 750.5 c 4,6,7
 498 735 498 735 473 735 c 4,8,9
 446 734 446 734 436 750 c 4,10,11
 429 760 429 760 429 775 c 4,12,13
 429 783 429 783 431 791 c 4,14,15
 437 816 437 816 456 831.5 c 4,16,17
 475 847 475 847 500 847 c 4,18,19
 526 847 526 847 537 832 c 4,0,1
EndSplineSet
Refer: 27 69 N 1 0 0 1 0 0 0
EndChar

StartChar: Emacron
Encoding: 274 274 35
Width: 600
GlyphClass: 2
Flags: W
HStem: 7 72<228.725 433.947> 368 60<255 465.832> 380 59<396.609 511> 712 20G<555.5 586.03> 755 61<370 605>
VStem: 122 89<94.4449 275.74>
LayerCount: 2
Fore
SplineSet
355 755 m 5,0,-1
 370 816 l 5,1,-1
 620 816 l 5,2,-1
 605 755 l 5,3,-1
 355 755 l 5,0,-1
EndSplineSet
Refer: 27 69 N 1 0 0 1 0 0 0
EndChar

StartChar: Eogonek
Encoding: 280 280 36
Width: 600
GlyphClass: 2
Flags: W
HStem: -218 64<353.822 453.189> 0 66<212 372 420.469 526> 298 68<212 468> 586 69<212 507>
VStem: 126 86<66 298 366 586> 267 77<-145.173 -60.7867>
LayerCount: 2
Fore
SplineSet
526 66 m 1,0,-1
 526 0 l 1,1,-1
 468 0 l 1,2,3
 396 -29 396 -29 370 -55 c 128,-1,4
 344 -81 344 -81 344 -108 c 0,5,6
 344 -131 344 -131 357 -142.5 c 128,-1,7
 370 -154 370 -154 400 -154 c 0,8,9
 427 -154 427 -154 461 -147 c 1,10,-1
 453 -212 l 1,11,12
 411 -218 411 -218 389 -218 c 0,13,14
 333 -218 333 -218 300 -191.5 c 128,-1,15
 267 -165 267 -165 267 -124 c 0,16,17
 267 -48 267 -48 372 0 c 1,18,-1
 126 0 l 1,19,-1
 126 655 l 1,20,-1
 517 655 l 1,21,-1
 507 586 l 1,22,-1
 212 586 l 1,23,-1
 212 366 l 1,24,-1
 468 366 l 1,25,-1
 468 298 l 1,26,-1
 212 298 l 1,27,-1
 212 66 l 1,28,-1
 526 66 l 1,0,-1
EndSplineSet
EndChar

StartChar: F
Encoding: 70 70 37
Width: 600
GlyphClass: 2
Flags: W
LayerCount: 2
Fore
SplineSet
479 340 m 2,0,-1
 390 341 l 2,1,2
 341 341 341 341 315 339 c 1,3,4
 286 195 286 195 278.5 107.5 c 128,-1,5
 271 20 271 20 274 -15 c 1,6,7
 248 -17 248 -17 246 -17 c 0,8,9
 200 -17 200 -17 179 3 c 128,-1,10
 158 23 158 23 162 71 c 128,-1,11
 166 119 166 119 213 324 c 1,12,13
 185 317 185 317 164 309 c 1,14,15
 164 327 164 327 165 338 c 0,16,17
 170 399 170 399 233 414 c 1,18,19
 271 582 271 582 282 681 c 1,20,21
 243 681 243 681 229.5 691.5 c 128,-1,22
 216 702 216 702 219 732.5 c 128,-1,23
 222 763 222 763 232 785 c 1,24,25
 333 771 333 771 454 771 c 128,-1,26
 575 771 575 771 687 793 c 1,27,28
 667 712 667 712 566 696 c 0,29,30
 506 686 506 686 386 682 c 1,31,32
 382 635 382 635 332 418 c 1,33,34
 393 416 393 416 421 416 c 0,35,36
 509 416 509 416 549 445 c 1,37,38
 550 429 550 429 549 419 c 0,39,40
 542 340 542 340 479 340 c 2,0,-1
EndSplineSet
EndChar

StartChar: G
Encoding: 71 71 38
Width: 600
GlyphClass: 2
Flags: W
LayerCount: 2
Fore
SplineSet
492 314 m 2,0,-1
 494 339 l 1,1,-1
 494 364 l 1,2,3
 512 366 512 366 530 366 c 0,4,5
 575 366 575 366 591 346.5 c 128,-1,6
 607 327 607 327 602 280 c 0,7,8
 576 -25 576 -25 461 -196 c 0,9,10
 421 -255 421 -255 362 -292 c 128,-1,11
 303 -329 303 -329 232 -329 c 0,12,13
 136 -329 136 -329 93 -275.5 c 128,-1,14
 50 -222 50 -222 55.5 -156.5 c 128,-1,15
 61 -91 61 -91 93 -53.5 c 128,-1,16
 125 -16 125 -16 167 -16 c 0,17,18
 194 -16 194 -16 216 -33 c 1,19,20
 169 -92 169 -92 164 -150 c 0,21,22
 153 -271 153 -271 247 -271 c 128,-1,23
 341 -271 341 -271 399 -157 c 128,-1,24
 457 -43 457 -43 484 161 c 1,25,26
 443 96 443 96 388.5 62.5 c 128,-1,27
 334 29 334 29 277 29 c 0,28,29
 186 29 186 29 128 107 c 128,-1,30
 70 185 70 185 82 324 c 0,31,32
 99 516 99 516 201 656 c 0,33,34
 252 725 252 725 326 765.5 c 128,-1,35
 400 806 400 806 490 806 c 128,-1,36
 580 806 580 806 622.5 755.5 c 128,-1,37
 665 705 665 705 658.5 633.5 c 128,-1,38
 652 562 652 562 608 521.5 c 128,-1,39
 564 481 564 481 509 481 c 0,40,41
 429 481 429 481 393 539 c 1,42,43
 419 532 419 532 443 532 c 0,44,45
 498 532 498 532 532 566 c 128,-1,46
 566 600 566 600 570 644.5 c 128,-1,47
 574 689 574 689 547.5 718.5 c 128,-1,48
 521 748 521 748 467 748 c 0,49,50
 397 748 397 748 334 681 c 128,-1,51
 271 614 271 614 233 519 c 128,-1,52
 195 424 195 424 186 320.5 c 128,-1,53
 177 217 177 217 215 158 c 128,-1,54
 253 99 253 99 316 99 c 128,-1,55
 379 99 379 99 431.5 157.5 c 128,-1,56
 484 216 484 216 492 314 c 2,0,-1
EndSplineSet
EndChar

StartChar: Gcircumflex
Encoding: 284 284 40
Width: 600
GlyphClass: 2
Flags: W
HStem: 3 66<250.051 395.44> 508 21G<516 592> 671 56<306.206 490.069> 722 21G<352.805 400.065 573.286 620.463>
VStem: 57 99<192.92 473.722> 527 77<517.921 640.2>
LayerCount: 2
Fore
SplineSet
643 763 m 5,0,-1
 599 722 l 5,1,-1
 500 799 l 5,2,-1
 365 722 l 5,3,-1
 340 763 l 5,4,-1
 490 864 l 5,5,-1
 543 864 l 5,6,-1
 643 763 l 5,0,-1
EndSplineSet
Refer: 38 71 N 1 0 0 1 0 0 0
EndChar

StartChar: Gdotaccent
Encoding: 288 288 42
Width: 600
GlyphClass: 2
Flags: W
HStem: 3 66<250.051 395.44> 508 21G<516 592> 671 56<306.206 490.069> 735 112<458.332 533.338>
VStem: 57 99<192.92 473.722> 438 116<755.665 826.679> 527 77<517.921 640.2>
LayerCount: 2
Fore
SplineSet
546 832 m 4,0,1
 554 821 554 821 554 807 c 4,2,3
 554 800 554 800 552 791 c 4,4,5
 546 766 546 766 526.5 750.5 c 4,6,7
 507 735 507 735 482 735 c 4,8,9
 455 734 455 734 445 750 c 4,10,11
 438 760 438 760 438 775 c 4,12,13
 438 783 438 783 440 791 c 4,14,15
 446 816 446 816 465 831.5 c 4,16,17
 484 847 484 847 509 847 c 4,18,19
 535 847 535 847 546 832 c 4,0,1
EndSplineSet
Refer: 38 71 N 1 0 0 1 0 0 0
EndChar

StartChar: H
Encoding: 72 72 43
Width: 600
GlyphClass: 2
Flags: W
LayerCount: 2
Fore
SplineSet
441 354 m 2,0,-1
 304 356 l 2,1,2
 261 356 261 356 218 353 c 1,3,4
 179 174 179 174 171.5 88 c 128,-1,5
 164 2 164 2 174 -31 c 1,6,7
 117 -9 117 -9 96.5 28.5 c 128,-1,8
 76 66 76 66 80.5 116.5 c 128,-1,9
 85 167 85 167 102 246.5 c 128,-1,10
 119 326 119 326 122 338 c 1,11,12
 89 330 89 330 72 324 c 1,13,14
 72 342 72 342 74 362 c 0,15,16
 79 419 79 419 142 429 c 1,17,18
 177 599 177 599 188 720 c 0,19,20
 191 750 191 750 191 802 c 1,21,22
 263 798 263 798 278 766 c 0,23,24
 285 748 285 748 287 731.5 c 128,-1,25
 289 715 289 715 285.5 675 c 128,-1,26
 282 635 282 635 260 538 c 128,-1,27
 238 441 238 441 236 432 c 1,28,29
 403 432 403 432 537 435 c 1,30,31
 573 602 573 602 583 720 c 0,32,33
 586 750 586 750 586 802 c 1,34,35
 658 798 658 798 673 766 c 0,36,37
 680 748 680 748 682 731.5 c 128,-1,38
 684 715 684 715 680.5 675 c 128,-1,39
 677 635 677 635 626 409 c 128,-1,40
 575 183 575 183 567 92.5 c 128,-1,41
 559 2 559 2 569 -31 c 1,42,43
 512 -9 512 -9 491.5 28.5 c 128,-1,44
 471 66 471 66 475.5 116.5 c 128,-1,45
 480 167 480 167 513 322 c 2,46,-1
 535 424 l 1,47,48
 515 354 515 354 441 354 c 2,0,-1
EndSplineSet
EndChar

StartChar: Hbar
Encoding: 294 294 44
Width: 600
Flags: W
HStem: 0 21G<83 169 431 517> 0 21G<83 169 431 517> 310 68<169 431> 484 62<2 83 169 431 517 598> 635 20G<83 169 431 517>
VStem: 83 86<0 310 378 484 546 655> 431 86<0 310 378 484 546 655>
LayerCount: 2
Fore
SplineSet
598 484 m 1,0,-1
 517 484 l 1,1,-1
 517 0 l 1,2,-1
 431 0 l 1,3,-1
 431 310 l 1,4,-1
 169 310 l 1,5,-1
 169 0 l 1,6,-1
 83 0 l 1,7,-1
 83 484 l 1,8,-1
 2 484 l 1,9,-1
 2 546 l 1,10,-1
 83 546 l 1,11,-1
 83 655 l 1,12,-1
 169 655 l 1,13,-1
 169 546 l 1,14,-1
 431 546 l 1,15,-1
 431 655 l 1,16,-1
 517 655 l 1,17,-1
 517 546 l 1,18,-1
 598 546 l 1,19,-1
 598 484 l 1,0,-1
431 484 m 1,20,-1
 169 484 l 1,21,-1
 169 378 l 1,22,-1
 431 378 l 1,23,-1
 431 484 l 1,20,-1
EndSplineSet
EndChar

StartChar: Hcircumflex
Encoding: 292 292 45
Width: 600
GlyphClass: 2
Flags: W
HStem: -2 21G<119.5 144> 350 65<218 360.917> 360 67<320.083 448> 696 20G<192 272 526 599> 722 21G<322.805 370.065 543.286 590.463>
VStem: 93 93<13.4719 266.953> 428 105<32.6526 205.156> 526 98<663.825 718>
LayerCount: 2
Fore
SplineSet
613 763 m 5,0,-1
 569 722 l 5,1,-1
 470 799 l 5,2,-1
 335 722 l 5,3,-1
 310 763 l 5,4,-1
 460 864 l 5,5,-1
 513 864 l 5,6,-1
 613 763 l 5,0,-1
EndSplineSet
Refer: 43 72 N 1 0 0 1 0 0 0
EndChar

StartChar: I
Encoding: 73 73 46
Width: 600
GlyphClass: 2
Flags: W
LayerCount: 2
Fore
SplineSet
275 42 m 1,0,-1
 390 732 l 1,1,-1
 252 730 l 1,2,3
 252 730 252 730 251 730 c 0,4,5
 245 729 245 729 241 729 c 0,6,7
 232 730 232 730 225 736.5 c 128,-1,8
 218 743 218 743 219 752 c 0,9,10
 219 754 219 754 222 758 c 128,-1,11
 225 762 225 762 228 766 c 2,12,-1
 262 799 l 1,13,14
 271 799 271 799 278 806 c 0,15,16
 282 809 282 809 294 810 c 2,17,-1
 619 824 l 1,18,-1
 624 823 l 2,19,20
 633 821 633 821 636.5 815.5 c 128,-1,21
 640 810 640 810 639 797 c 0,22,23
 638 790 638 790 637.5 788 c 128,-1,24
 637 786 637 786 631 782 c 2,25,-1
 604 755 l 1,26,-1
 589 749 l 2,27,28
 574 743 574 743 571 743 c 2,29,-1
 503 742 l 1,30,31
 459 635 459 635 437 439 c 0,32,33
 415 247 415 247 407 53 c 1,34,-1
 517 58 l 1,35,-1
 522 58 l 2,36,37
 528 58 528 58 534 51 c 0,38,39
 538 45 538 45 538 37 c 0,40,41
 536 31 536 31 534 25 c 2,42,-1
 532 18 l 1,43,-1
 495 -12 l 1,44,45
 495 -12 495 -12 477 -20 c 0,46,47
 461 -27 461 -27 460 -27 c 2,48,-1
 167 -41 l 1,49,-1
 161 -40 l 2,50,51
 150 -38 150 -38 144 -33 c 0,52,53
 138 -27 138 -27 139 -17 c 0,54,55
 138 -14 138 -14 140 -11 c 128,-1,56
 142 -8 142 -8 145 -5 c 2,57,-1
 177 25 l 2,58,59
 186 31 186 31 194 36 c 0,60,61
 197 39 197 39 208 39 c 2,62,-1
 275 42 l 1,0,-1
EndSplineSet
EndChar

StartChar: IJ
Encoding: 306 306 47
Width: 600
Flags: W
HStem: -129 62<202.871 303.379> 0 68<11 111 201 281> 586 69<11 111 201 445>
VStem: 111 90<68 586> 445 87<55.9824 586>
LayerCount: 2
Fore
SplineSet
348 -26 m 128,-1,1
 403 6 403 6 424 56.5 c 128,-1,2
 445 107 445 107 445 183 c 2,3,-1
 445 586 l 1,4,-1
 201 586 l 1,5,-1
 201 68 l 1,6,-1
 281 68 l 1,7,-1
 281 0 l 1,8,-1
 11 0 l 1,9,-1
 11 68 l 1,10,-1
 111 68 l 1,11,-1
 111 586 l 1,12,-1
 11 586 l 1,13,-1
 11 655 l 1,14,-1
 532 655 l 1,15,-1
 532 179 l 2,16,17
 532 51 532 51 460 -31 c 128,-1,18
 388 -113 388 -113 204 -129 c 1,19,-1
 194 -67 l 1,20,0
 293 -58 293 -58 348 -26 c 128,-1,1
EndSplineSet
EndChar

StartChar: Ibreve
Encoding: 300 300 49
Width: 600
GlyphClass: 2
Flags: W
HStem: -9 69<173.094 227.032> 710 20G<366.048 514.5> 721 62<412.062 528.822>
VStem: 340 56<814.312 834>
LayerCount: 2
Fore
SplineSet
363 752 m 4,0,1
 338 776 338 776 338 814 c 4,2,3
 338 824 338 824 340 834 c 5,4,-1
 396 846 l 5,5,6
 404 782 404 782 464 783 c 4,7,8
 496 783 496 783 522.5 800 c 4,9,10
 549 817 549 817 566 846 c 5,11,-1
 617 834 l 5,12,13
 599 783 599 783 551.5 752 c 4,14,15
 504 721 504 721 449 721 c 4,16,17
 396 721 396 721 363 752 c 4,0,1
EndSplineSet
Refer: 46 73 N 1 0 0 1 0 0 0
EndChar

StartChar: Imacron
Encoding: 298 298 54
Width: 600
GlyphClass: 2
Flags: W
HStem: -9 69<173.094 227.032> 710 20G<366.048 514.5> 755 61<349 584>
LayerCount: 2
Fore
SplineSet
334 755 m 5,0,-1
 349 816 l 5,1,-1
 599 816 l 5,2,-1
 584 755 l 5,3,-1
 334 755 l 5,0,-1
EndSplineSet
Refer: 46 73 N 1 0 0 1 0 0 0
EndChar

StartChar: Iogonek
Encoding: 302 302 55
Width: 600
GlyphClass: 2
Flags: W
HStem: -218 64<229.822 329.189> 0 66<103 248 344 497> 588 67<103 256 344 497>
VStem: 143 77<-145.173 -60.7867> 256 88<66 588>
LayerCount: 2
Fore
SplineSet
344 588 m 1,0,-1
 344 66 l 1,1,-1
 497 66 l 1,2,-1
 497 0 l 1,3,-1
 344 0 l 1,4,5
 272 -29 272 -29 246 -55 c 128,-1,6
 220 -81 220 -81 220 -108 c 0,7,8
 220 -131 220 -131 233 -142.5 c 128,-1,9
 246 -154 246 -154 276 -154 c 0,10,11
 303 -154 303 -154 337 -147 c 1,12,-1
 329 -212 l 1,13,14
 287 -218 287 -218 265 -218 c 0,15,16
 209 -218 209 -218 176 -191.5 c 128,-1,17
 143 -165 143 -165 143 -124 c 0,18,19
 143 -48 143 -48 248 0 c 1,20,-1
 103 0 l 1,21,-1
 103 66 l 1,22,-1
 256 66 l 1,23,-1
 256 588 l 1,24,-1
 103 588 l 1,25,-1
 103 655 l 1,26,-1
 497 655 l 1,27,-1
 497 588 l 1,28,-1
 344 588 l 1,0,-1
EndSplineSet
EndChar

StartChar: Itilde
Encoding: 296 296 56
Width: 600
GlyphClass: 2
Flags: W
HStem: -9 69<173.094 227.032> 710 20G<366.048 514.5> 739 61<484.74 565.512> 785 61<372.471 454.132>
LayerCount: 2
Fore
SplineSet
479.5 745.5 m 4,0,1
 467 752 467 752 452 765 c 4,2,3
 441 775 441 775 432 780 c 4,4,5
 423 785 423 785 413 785 c 4,6,7
 398 785 398 785 384.5 774.5 c 4,8,9
 371 764 371 764 353 741 c 5,10,-1
 310 766 l 5,11,12
 337 803 337 803 367 824.5 c 4,13,14
 397 846 397 846 428 846 c 4,15,16
 448 846 448 846 460 839 c 4,17,18
 472 832 472 832 487 820 c 4,19,20
 500 809 500 809 507 804.5 c 4,21,22
 514 800 514 800 525 800 c 4,23,24
 539 800 539 800 552.5 810 c 4,25,26
 566 820 566 820 584 843 c 5,27,-1
 628 817 l 5,28,29
 601 778 601 778 571 758.5 c 4,30,31
 541 739 541 739 510 739 c 4,32,33
 492 739 492 739 479.5 745.5 c 4,0,1
EndSplineSet
Refer: 46 73 N 1 0 0 1 0 0 0
EndChar

StartChar: J
Encoding: 74 74 57
Width: 600
GlyphClass: 2
Flags: W
LayerCount: 2
Fore
SplineSet
193 46 m 128,-1,1
 210 21 210 21 241.5 21 c 128,-1,2
 273 21 273 21 294.5 30.5 c 128,-1,3
 316 40 316 40 331.5 60.5 c 128,-1,4
 347 81 347 81 359 106 c 128,-1,5
 371 131 371 131 380.5 169.5 c 128,-1,6
 390 208 390 208 397 246 c 128,-1,7
 404 284 404 284 411 337.5 c 128,-1,8
 418 391 418 391 423 438 c 0,9,10
 440 572 440 572 456 672 c 1,11,12
 412 670 412 670 400 670 c 0,13,14
 343 670 343 670 348 728 c 0,15,16
 350 752 350 752 358 776 c 1,17,18
 425 760 425 760 515.5 760 c 128,-1,19
 606 760 606 760 714 792 c 1,20,21
 705 744 705 744 670 717.5 c 128,-1,22
 635 691 635 691 602 686 c 0,23,24
 583 682 583 682 567 681 c 1,25,26
 527 472 527 472 507.5 344 c 128,-1,27
 488 216 488 216 460.5 142.5 c 128,-1,28
 433 69 433 69 396.5 31.5 c 128,-1,29
 360 -6 360 -6 323.5 -21 c 128,-1,30
 287 -36 287 -36 243 -36 c 0,31,32
 155 -36 155 -36 114.5 13.5 c 128,-1,33
 74 63 74 63 80 132 c 0,34,35
 84 180 84 180 115.5 215.5 c 128,-1,36
 147 251 147 251 198 251 c 0,37,38
 224 251 224 251 246 235 c 1,39,40
 218 213 218 213 200.5 178 c 128,-1,41
 183 143 183 143 179.5 107 c 128,-1,0
 176 71 176 71 193 46 c 128,-1,1
EndSplineSet
EndChar

StartChar: Jcircumflex
Encoding: 308 308 58
Width: 600
GlyphClass: 2
Flags: W
HStem: -9 84<41.28 238.119> 721 20G<515 539.583> 722 21G<372.805 420.065 593.286 640.463>
LayerCount: 2
Fore
SplineSet
663 763 m 5,0,-1
 619 722 l 5,1,-1
 520 799 l 5,2,-1
 385 722 l 5,3,-1
 360 763 l 5,4,-1
 510 864 l 5,5,-1
 563 864 l 5,6,-1
 663 763 l 5,0,-1
EndSplineSet
Refer: 57 74 N 1 0 0 1 0 0 0
EndChar

StartChar: K
Encoding: 75 75 59
Width: 600
GlyphClass: 2
Flags: W
LayerCount: 2
Fore
SplineSet
284.5 731.5 m 128,-1,1
 286 715 286 715 282.5 675 c 128,-1,2
 279 635 279 635 240 464 c 2,3,-1
 219 374 l 1,4,5
 540 625 540 625 626 799 c 1,6,7
 644 753 644 753 639 695.5 c 128,-1,8
 634 638 634 638 571 576 c 128,-1,9
 508 514 508 514 390 432 c 1,10,11
 428 257 428 257 473.5 162.5 c 128,-1,12
 519 68 519 68 595 -23 c 1,13,14
 574 -33 574 -33 542 -33 c 128,-1,15
 510 -33 510 -33 474.5 -9 c 128,-1,16
 439 15 439 15 414 51 c 128,-1,17
 389 87 389 87 365 144 c 0,18,19
 327 230 327 230 291 365 c 1,20,21
 286 361 286 361 253.5 339.5 c 128,-1,22
 221 318 221 318 205 306 c 1,23,24
 173 161 173 161 166 81.5 c 128,-1,25
 159 2 159 2 170 -31 c 1,26,27
 112 -9 112 -9 90.5 28.5 c 128,-1,28
 69 66 69 66 73.5 116.5 c 128,-1,29
 78 167 78 167 111 322 c 0,30,31
 170 579 170 579 182 720 c 0,32,33
 185 750 185 750 185 802 c 1,34,35
 259 798 259 798 275 766 c 0,36,0
 283 748 283 748 284.5 731.5 c 128,-1,1
EndSplineSet
EndChar

StartChar: Kcommaaccent
Encoding: 310 310 60
Width: 600
GlyphClass: 2
Flags: W
HStem: 701 20G<194 271.5 556 588>
VStem: 84 108<43.9375 236.773> 272 105<-160.557 -84.5312>
LayerCount: 2
Fore
SplineSet
370 -82 m 4,0,1
 377 -92 377 -92 377 -104 c 4,2,3
 377 -110 377 -110 375 -118 c 4,4,5
 370 -139 370 -139 349 -170 c 6,6,-1
 277 -272 l 5,7,-1
 230 -272 l 5,8,-1
 284 -161 l 5,9,10
 272 -150 272 -150 272 -132 c 4,11,12
 272 -125 272 -125 274 -118 c 4,13,14
 280 -95 280 -95 297 -82 c 4,15,16
 315 -68 315 -68 337 -67 c 4,17,18
 360 -68 360 -68 370 -82 c 4,0,1
EndSplineSet
Refer: 59 75 N 1 0 0 1 0 0 0
EndChar

StartChar: L
Encoding: 76 76 61
Width: 600
GlyphClass: 2
Flags: W
LayerCount: 2
Fore
SplineSet
141 60 m 1,0,1
 134 84 134 84 138 127 c 128,-1,2
 142 170 142 170 189.5 381 c 128,-1,3
 237 592 237 592 248 720 c 0,4,5
 251 750 251 750 251 802 c 1,6,7
 327 798 327 798 343 766 c 0,8,9
 351 748 351 748 353 731.5 c 128,-1,10
 355 715 355 715 351.5 679.5 c 128,-1,11
 348 644 348 644 295.5 412.5 c 128,-1,12
 243 181 243 181 233 83 c 1,13,14
 238 84 238 84 251 84 c 0,15,16
 467 84 467 84 576 114 c 1,17,18
 564 56 564 56 528.5 24 c 128,-1,19
 493 -8 493 -8 444 -8 c 0,20,21
 430 -8 430 -8 358 -1.5 c 128,-1,22
 286 5 286 5 218 5 c 128,-1,23
 150 5 150 5 81 -8 c 1,24,25
 98 36 98 36 141 60 c 1,0,1
EndSplineSet
EndChar

StartChar: Lacute
Encoding: 313 313 62
Width: 600
GlyphClass: 2
Flags: W
HStem: 17 66<287 558.808> 27 71<529.746 560> 708 20G<286 374> 717 21G<237.909 299.867>
VStem: 269 105<615.451 703>
LayerCount: 2
Fore
SplineSet
459 792 m 5,0,-1
 242 717 l 5,1,-1
 233 761 l 5,2,-1
 441 861 l 5,3,-1
 459 792 l 5,0,-1
EndSplineSet
Refer: 61 76 N 1 0 0 1 0 0 0
EndChar

StartChar: Lcaron
Encoding: 317 317 63
Width: 600
GlyphClass: 2
Flags: W
HStem: 17 66<287 558.808> 27 71<529.746 560> 484 21G<379 433.588> 643 20G<437.326 513> 708 20G<286 374>
VStem: 269 105<615.451 703>
LayerCount: 2
Fore
SplineSet
513 654 m 5,0,-1
 423 484 l 5,1,-1
 379 491 l 5,2,-1
 445 663 l 5,3,-1
 513 654 l 5,0,-1
EndSplineSet
Refer: 61 76 N 1 0 0 1 0 0 0
EndChar

StartChar: Lcommaaccent
Encoding: 315 315 64
Width: 600
GlyphClass: 2
Flags: W
HStem: 17 66<287 558.808> 27 71<529.746 560> 708 20G<286 374>
VStem: 269 105<615.451 703> 282 105<-160.557 -84.5312>
LayerCount: 2
Fore
SplineSet
380 -82 m 4,0,1
 387 -92 387 -92 387 -104 c 4,2,3
 387 -110 387 -110 385 -118 c 4,4,5
 380 -139 380 -139 359 -170 c 6,6,-1
 287 -272 l 5,7,-1
 240 -272 l 5,8,-1
 294 -161 l 5,9,10
 282 -150 282 -150 282 -132 c 4,11,12
 282 -125 282 -125 284 -118 c 4,13,14
 290 -95 290 -95 307 -82 c 4,15,16
 325 -68 325 -68 347 -67 c 4,17,18
 370 -68 370 -68 380 -82 c 4,0,1
EndSplineSet
Refer: 61 76 N 1 0 0 1 0 0 0
EndChar

StartChar: Lslash
Encoding: 321 321 66
Width: 600
GlyphClass: 2
Flags: W
HStem: 13 77<334.501 534.078> 15 61<272 535.014> 459 20G<430.5 438> 650 20G<267.333 354>
VStem: 254 100<555.253 646>
LayerCount: 2
Fore
SplineSet
216 357 m 1,0,1
 227 427 227 427 236 498.5 c 128,-1,2
 245 570 245 570 254 646 c 1,3,-1
 334 670 l 1,4,-1
 354 656 l 1,5,6
 340 596 340 596 328 534 c 128,-1,7
 316 472 316 472 307 409 c 1,8,9
 339 427 339 427 383 452 c 0,10,11
 428 479 428 479 433 479 c 0,12,13
 443 479 443 479 450.5 472.5 c 128,-1,14
 458 466 458 466 458 454 c 0,15,16
 458 431 458 431 343 366 c 0,17,18
 312 348 312 348 296 337 c 1,19,20
 289 301 289 301 284 250 c 128,-1,21
 279 199 279 199 272 80 c 1,22,23
 291 78 291 78 306 77 c 128,-1,24
 321 76 321 76 333 76 c 0,25,26
 381 76 381 76 433.5 80 c 128,-1,27
 486 84 486 84 542 90 c 1,28,-1
 554 69 l 1,29,-1
 529 26 l 1,30,31
 529 26 529 26 528 25 c 0,32,33
 522 15 522 15 500 13 c 0,34,35
 491 13 491 13 444.5 14 c 128,-1,36
 398 15 398 15 360 15 c 0,37,38
 315 15 315 15 258 14 c 128,-1,39
 201 13 201 13 124 11 c 1,40,-1
 134 46 l 1,41,-1
 174 69 l 1,42,-1
 182 118 l 2,43,44
 201 240 201 240 207 285 c 1,45,46
 183 272 183 272 147.5 248 c 128,-1,47
 112 224 112 224 102 224 c 0,48,49
 91 224 91 224 82 235 c 128,-1,50
 73 246 73 246 73 257 c 0,51,52
 73 271 73 271 132 306 c 0,53,54
 184 335 184 335 216 357 c 1,0,1
EndSplineSet
EndChar

StartChar: M
Encoding: 77 77 67
Width: 600
GlyphClass: 2
Flags: W
LayerCount: 2
Fore
SplineSet
694.5 767.5 m 128,-1,1
 712 738 712 738 708 686.5 c 128,-1,2
 704 635 704 635 659.5 409 c 128,-1,3
 615 183 615 183 607.5 92.5 c 128,-1,4
 600 2 600 2 610 -31 c 1,5,6
 557 -9 557 -9 539 28 c 128,-1,7
 521 65 521 65 525 116 c 128,-1,8
 529 167 529 167 560.5 331 c 128,-1,9
 592 495 592 495 604 581 c 1,10,11
 564 502 564 502 474.5 357 c 128,-1,12
 385 212 385 212 370 188 c 1,13,14
 349 174 349 174 329 174 c 0,15,16
 290 174 290 174 286 191 c 0,17,18
 279 219 279 219 265 280.5 c 128,-1,19
 251 342 251 342 242 381 c 0,20,21
 215 491 215 491 191 566 c 1,22,23
 190 559 190 559 156 373.5 c 128,-1,24
 122 188 122 188 113 78 c 0,25,26
 111 47 111 47 110 -5 c 1,27,28
 24 -5 24 -5 30 58 c 0,29,30
 31 67 31 67 83 329.5 c 128,-1,31
 135 592 135 592 143 695 c 1,32,-1
 143 700 l 1,33,34
 123 747 123 747 100 777 c 1,35,36
 121 803 121 803 150 803 c 0,37,38
 206 803 206 803 234 726.5 c 128,-1,39
 262 650 262 650 349 273 c 0,40,41
 351 267 351 267 352 264 c 1,42,43
 360 278 360 278 397.5 336 c 128,-1,44
 435 394 435 394 454 425.5 c 128,-1,45
 473 457 473 457 507.5 515.5 c 128,-1,46
 542 574 542 574 562 616 c 0,47,48
 617 730 617 730 632 802 c 1,49,0
 677 797 677 797 694.5 767.5 c 128,-1,1
EndSplineSet
EndChar

StartChar: N
Encoding: 78 78 68
Width: 600
GlyphClass: 2
Flags: W
LayerCount: 2
Fore
SplineSet
127 78 m 0,0,1
 124 47 124 47 124 -5 c 1,2,3
 26 -5 26 -5 31 58 c 0,4,5
 32 68 32 68 91 330 c 128,-1,6
 150 592 150 592 159 694 c 1,7,-1
 155 703 l 2,8,9
 140 730 140 730 125.5 742 c 128,-1,10
 111 754 111 754 98.5 762.5 c 128,-1,11
 86 771 86 771 85 773 c 0,12,13
 125 802 125 802 162 802 c 0,14,15
 227 802 227 802 260 742 c 0,16,17
 305 655 305 655 408 375 c 0,18,19
 475 194 475 194 513 125 c 1,20,21
 520 187 520 187 562 393 c 128,-1,22
 604 599 604 599 615 720 c 0,23,24
 618 751 618 751 619 801 c 1,25,26
 715 801 715 801 710 740 c 0,27,28
 709 729 709 729 650 461 c 128,-1,29
 591 193 591 193 582 90 c 0,30,31
 579 53 579 53 579 36 c 1,32,33
 586 29 586 29 602 19 c 1,34,35
 549 -21 549 -21 508 -21 c 128,-1,36
 467 -21 467 -21 440 38 c 0,37,38
 427 63 427 63 389 154 c 0,39,40
 260 477 260 477 216 575 c 1,41,42
 212 551 212 551 174.5 370 c 128,-1,43
 137 189 137 189 127 78 c 0,0,1
EndSplineSet
EndChar

StartChar: Nacute
Encoding: 323 323 69
Width: 600
GlyphClass: 2
Flags: W
HStem: 714 20G<181.476 239.5 553.696 601.5> 717 21G<357.909 419.867>
VStem: 128.5 102.5<622.438 674.656 675.218 692> 469 68<145 330.138>
LayerCount: 2
Fore
SplineSet
579 792 m 5,0,-1
 362 717 l 5,1,-1
 353 761 l 5,2,-1
 561 861 l 5,3,-1
 579 792 l 5,0,-1
EndSplineSet
Refer: 68 78 N 1 0 0 1 0 0 0
Substitution2: "'locl' Localized Forms in Latin lookup 18 subtable" Nacute.loclPLK
Substitution2: "'aalt' Access All Alternates lookup 0 subtable" Nacute.loclPLK
EndChar

StartChar: Ncaron
Encoding: 327 327 70
Width: 600
GlyphClass: 2
Flags: W
HStem: 714 20G<181.476 239.5 553.696 601.5> 716 21G<403.583 505.126>
VStem: 128.5 102.5<622.438 674.656 675.218 692> 469 68<145 330.138>
LayerCount: 2
Fore
SplineSet
626 819 m 5,0,-1
 476 716 l 5,1,-1
 423 716 l 5,2,-1
 323 819 l 5,3,-1
 368 860 l 5,4,-1
 465 783 l 5,5,-1
 601 860 l 5,6,-1
 626 819 l 5,0,-1
EndSplineSet
Refer: 68 78 N 1 0 0 1 0 0 0
EndChar

StartChar: Ncommaaccent
Encoding: 325 325 71
Width: 600
GlyphClass: 2
Flags: W
HStem: 714 20G<181.476 239.5 553.696 601.5>
VStem: 128.5 102.5<622.438 674.656 675.218 692> 250 105<-160.557 -84.5312> 469 68<145 330.138>
LayerCount: 2
Fore
SplineSet
348 -82 m 4,0,1
 355 -92 355 -92 355 -104 c 4,2,3
 355 -110 355 -110 353 -118 c 4,4,5
 348 -139 348 -139 327 -170 c 6,6,-1
 255 -272 l 5,7,-1
 208 -272 l 5,8,-1
 262 -161 l 5,9,10
 250 -150 250 -150 250 -132 c 4,11,12
 250 -125 250 -125 252 -118 c 4,13,14
 258 -95 258 -95 275 -82 c 4,15,16
 293 -68 293 -68 315 -67 c 4,17,18
 338 -68 338 -68 348 -82 c 4,0,1
EndSplineSet
Refer: 68 78 N 1 0 0 1 0 0 0
EndChar

StartChar: Eng
Encoding: 330 330 72
Width: 600
GlyphClass: 2
Flags: W
HStem: -201 66<287.965 417.168> 0 21G<83 164> 0 21G<83 164> 635 20G<83 209.547 436 517>
VStem: 83 81<0 574.764> 83 69<341.677 575> 436 81<-116.546 0 79.6562 655>
LayerCount: 2
Fore
SplineSet
517 655 m 1,0,-1
 517 -59 l 2,1,2
 517 -128 517 -128 478.5 -164.5 c 128,-1,3
 440 -201 440 -201 372 -201 c 0,4,5
 308 -201 308 -201 259 -166 c 1,6,-1
 293 -112 l 1,7,8
 312 -124 312 -124 328 -129.5 c 128,-1,9
 344 -135 344 -135 368 -135 c 0,10,11
 430 -135 430 -135 430 -64 c 2,12,-1
 430 0 l 1,13,-1
 395 0 l 1,14,-1
 152 575 l 2,15,16
 152 568 152 568 158 492 c 128,-1,17
 164 416 164 416 164 328 c 2,18,-1
 164 0 l 1,19,-1
 83 0 l 1,20,-1
 83 655 l 1,21,-1
 201 655 l 1,22,-1
 448 77 l 1,23,-1
 446 111 l 2,24,25
 436 228 436 228 436 327 c 2,26,-1
 436 655 l 1,27,-1
 517 655 l 1,0,-1
EndSplineSet
EndChar

StartChar: O
Encoding: 79 79 74
Width: 600
GlyphClass: 2
Flags: W
LayerCount: 2
Fore
SplineSet
547 664 m 128,-1,1
 512 731 512 731 443.5 731 c 128,-1,2
 375 731 375 731 312 670 c 128,-1,3
 249 609 249 609 211 517.5 c 128,-1,4
 173 426 173 426 165 330 c 0,5,6
 154 201 154 201 189.5 118 c 128,-1,7
 225 35 225 35 310 35 c 0,8,9
 378 35 378 35 436 98 c 128,-1,10
 494 161 494 161 527.5 254 c 128,-1,11
 561 347 561 347 570 450 c 0,12,0
 582 597 582 597 547 664 c 128,-1,1
424 5 m 128,-1,14
 364 -25 364 -25 295.5 -25 c 128,-1,15
 227 -25 227 -25 178 11 c 128,-1,16
 129 47 129 47 103 107 c 0,17,18
 51 229 51 229 64.5 386 c 128,-1,19
 78 543 78 543 157 665.5 c 128,-1,20
 236 788 236 788 348 827 c 1,21,22
 363 823 363 823 364 811 c 1,23,24
 299 768 299 768 254 710 c 128,-1,25
 209 652 209 652 186 553 c 1,26,27
 233 670 233 670 318.5 737 c 128,-1,28
 404 804 404 804 490.5 804 c 128,-1,29
 577 804 577 804 631.5 720.5 c 128,-1,30
 686 637 686 637 673 479 c 0,31,32
 660 325 660 325 600 200 c 0,33,34
 569 134 569 134 526.5 84.5 c 128,-1,13
 484 35 484 35 424 5 c 128,-1,14
EndSplineSet
Substitution2: "Single Substitution lookup 159 subtable" ordmasculine
Substitution2: "'aalt' Access All Alternates lookup 0 subtable" ordmasculine
EndChar

StartChar: Obreve
Encoding: 334 334 76
Width: 600
GlyphClass: 2
Flags: W
HStem: -19.6924 77.3701<241.28 344.516> 721 62<412.062 528.822>
VStem: 84.0898 98.4307<138.455 422.557> 340 56<814.312 834> 493.835 82.8418<335.062 601.938>
LayerCount: 2
Fore
SplineSet
363 752 m 4,0,1
 338 776 338 776 338 814 c 4,2,3
 338 824 338 824 340 834 c 5,4,-1
 396 846 l 5,5,6
 404 782 404 782 464 783 c 4,7,8
 496 783 496 783 522.5 800 c 4,9,10
 549 817 549 817 566 846 c 5,11,-1
 617 834 l 5,12,13
 599 783 599 783 551.5 752 c 4,14,15
 504 721 504 721 449 721 c 4,16,17
 396 721 396 721 363 752 c 4,0,1
EndSplineSet
Refer: 74 79 N 1 0 0 1 0 0 0
EndChar

StartChar: Ohungarumlaut
Encoding: 336 336 80
Width: 600
GlyphClass: 2
Flags: W
HStem: -19.6924 77.3701<241.28 344.516> 717 21G<359.2 412.41 514.889 563.806>
VStem: 84.0898 98.4307<138.455 422.557> 493.835 82.8418<335.062 601.938>
LayerCount: 2
Fore
SplineSet
463 907 m 5,0,-1
 524 873 l 5,1,-1
 396 717 l 5,2,-1
 350 742 l 5,3,-1
 463 907 l 5,0,-1
625 907 m 5,4,-1
 684 870 l 5,5,-1
 546 715 l 5,6,-1
 504 742 l 5,7,-1
 625 907 l 5,4,-1
EndSplineSet
Refer: 74 79 N 1 0 0 1 0 0 0
EndChar

StartChar: Omacron
Encoding: 332 332 81
Width: 600
GlyphClass: 2
Flags: W
HStem: -19.6924 77.3701<241.28 344.516> 755 61<349 584>
VStem: 84.0898 98.4307<138.455 422.557> 493.835 82.8418<335.062 601.938>
LayerCount: 2
Fore
SplineSet
334 755 m 5,0,-1
 349 816 l 5,1,-1
 599 816 l 5,2,-1
 584 755 l 5,3,-1
 334 755 l 5,0,-1
EndSplineSet
Refer: 74 79 N 1 0 0 1 0 0 0
EndChar

StartChar: Oslash
Encoding: 216 216 82
Width: 600
GlyphClass: 2
Flags: W
HStem: -15 70<204 328.187> 522 68<239.25 280.988> 617 88<316.447 404.564>
VStem: 73 94<128.716 399.493> 468 77<310.336 566.815>
LayerCount: 2
Fore
SplineSet
446 568 m 1,0,-1
 234 66 l 1,1,2
 248 60 248 60 257.5 57.5 c 128,-1,3
 267 55 267 55 276 55 c 0,4,5
 304 55 304 55 331 74.5 c 128,-1,6
 358 94 358 94 384 132 c 0,7,8
 424 192 424 192 446 269 c 128,-1,9
 468 346 468 346 468 427 c 0,10,11
 468 459 468 459 462.5 493.5 c 128,-1,12
 457 528 457 528 446 568 c 1,0,-1
405 613 m 2,13,14
 404 613 404 613 403 614 c 0,15,16
 394 617 394 617 389 617 c 0,17,18
 379 617 379 617 360.5 608 c 128,-1,19
 342 599 342 599 328 599 c 0,20,21
 303 599 303 599 288 608.5 c 128,-1,22
 273 618 273 618 273 634 c 0,23,24
 273 660 273 660 303.5 682.5 c 128,-1,25
 334 705 334 705 376 705 c 0,26,27
 391 705 391 705 406.5 701.5 c 128,-1,28
 422 698 422 698 439 693 c 1,29,-1
 460 747 l 2,30,31
 467 765 467 765 473.5 772.5 c 128,-1,32
 480 780 480 780 486 780 c 2,33,-1
 487 780 l 1,34,-1
 512 775 l 2,35,36
 516 774 516 774 518.5 769 c 128,-1,37
 521 764 521 764 521 757 c 0,38,39
 521 755 521 755 519.5 750 c 128,-1,40
 518 745 518 745 515 735 c 2,41,-1
 484 659 l 1,42,43
 515 627 515 627 529.5 581.5 c 128,-1,44
 544 536 544 536 545 474 c 0,45,46
 545 379 545 379 514.5 279.5 c 128,-1,47
 484 180 484 180 434 107 c 0,48,49
 392 47 392 47 344.5 16 c 128,-1,50
 297 -15 297 -15 250 -15 c 0,51,52
 239 -15 239 -15 226.5 -13.5 c 128,-1,53
 214 -12 214 -12 204 -9 c 1,54,-1
 178 -74 l 2,55,56
 170 -93 170 -93 165 -100.5 c 128,-1,57
 160 -108 160 -108 152 -108 c 2,58,-1
 150 -108 l 1,59,-1
 126 -104 l 2,60,61
 122 -102 122 -102 120 -98 c 128,-1,62
 118 -94 118 -94 116 -87 c 0,63,64
 116 -83 116 -83 117.5 -77.5 c 128,-1,65
 119 -72 119 -72 122 -64 c 2,66,-1
 158 14 l 1,67,68
 115 47 115 47 94 105.5 c 128,-1,69
 73 164 73 164 73 247 c 0,70,71
 73 332 73 332 96.5 406.5 c 128,-1,72
 120 481 120 481 165 541 c 0,73,74
 186 569 186 569 201 579.5 c 128,-1,75
 216 590 216 590 232.5 590 c 128,-1,76
 249 590 249 590 268 578 c 128,-1,77
 287 566 287 566 287 557 c 0,78,79
 287 545 287 545 271 530 c 0,80,81
 259 522 259 522 258 522 c 0,82,83
 219 485 219 485 192 412 c 0,84,85
 167 345 167 345 167 274 c 0,86,87
 167 271 167 271 167 268 c 0,88,89
 167 222 167 222 174.5 182 c 128,-1,90
 182 142 182 142 197 108 c 1,91,-1
 405 613 l 2,13,14
EndSplineSet
EndChar

StartChar: Oslashacute
Encoding: 510 510 83
Width: 600
GlyphClass: 2
Flags: W
HStem: -15 70<204 328.187> 522 68<239.25 280.988> 617 88<316.447 404.564> 717 21G<358.909 420.867>
VStem: 73 94<128.716 399.493> 468 77<310.336 566.815>
LayerCount: 2
Fore
SplineSet
580 792 m 5,0,-1
 363 717 l 5,1,-1
 354 761 l 5,2,-1
 562 861 l 5,3,-1
 580 792 l 5,0,-1
EndSplineSet
Refer: 82 216 N 1 0 0 1 0 0 0
EndChar

StartChar: OE
Encoding: 338 338 85
Width: 600
GlyphClass: 2
Flags: W
HStem: -4 62<151.703 244.803> 7 65<361.11 535.778> 338 56<387 549.03> 348 50<387.362 550> 574 101<244.339 311.918> 598 57<420.726 569.72> 611 50<426.063 571>
VStem: 13 87<125.617 401.998>
LayerCount: 2
Fore
SplineSet
290 31 m 1,0,1
 266 13 266 13 240 4.5 c 128,-1,2
 214 -4 214 -4 187 -4 c 0,3,4
 107 -4 107 -4 60 62.5 c 128,-1,5
 13 129 13 129 13 247 c 0,6,7
 13 319 13 319 29.5 383.5 c 128,-1,8
 46 448 46 448 79 504 c 0,9,10
 109 554 109 554 129.5 574.5 c 128,-1,11
 150 595 150 595 168 595 c 0,12,13
 181 595 181 595 201 582.5 c 128,-1,14
 221 570 221 570 221 562 c 0,15,16
 221 557 221 557 202.5 535.5 c 128,-1,17
 184 514 184 514 169 495 c 0,18,19
 134 445 134 445 117 388.5 c 128,-1,20
 100 332 100 332 100 265 c 0,21,22
 100 166 100 166 128 112 c 128,-1,23
 156 58 156 58 206 58 c 0,24,25
 232 58 232 58 243.5 73.5 c 128,-1,26
 255 89 255 89 265 154 c 0,27,28
 283 265 283 265 308.5 411.5 c 128,-1,29
 334 558 334 558 338 591 c 1,30,-1
 330 602 l 1,31,32
 317 600 317 600 296.5 587 c 128,-1,33
 276 574 276 574 262 574 c 0,34,35
 243 574 243 574 231 582.5 c 128,-1,36
 219 591 219 591 219 606 c 0,37,38
 219 634 219 634 246 654.5 c 128,-1,39
 273 675 273 675 310 675 c 0,40,41
 333 675 333 675 388 659 c 0,42,43
 399 656 399 656 406 655 c 0,44,45
 421 655 421 655 450 656 c 0,46,47
 552 659 552 659 581 661 c 1,48,-1
 571 611 l 1,49,50
 530 607 530 607 494.5 603.5 c 128,-1,51
 459 600 459 600 425 598 c 1,52,53
 416 555 416 555 406 504 c 128,-1,54
 396 453 396 453 387 394 c 1,55,56
 430 394 430 394 474 395 c 128,-1,57
 518 396 518 396 562 398 c 1,58,-1
 550 348 l 1,59,60
 519 347 519 347 483 345.5 c 128,-1,61
 447 344 447 344 374 338 c 1,62,63
 356 238 356 238 350.5 195.5 c 128,-1,64
 345 153 345 153 345 130 c 0,65,66
 345 102 345 102 364.5 87 c 128,-1,67
 384 72 384 72 422 72 c 0,68,69
 452 72 452 72 490 76 c 128,-1,70
 528 80 528 80 573 86 c 1,71,-1
 568 36 l 1,72,73
 508 22 508 22 461 14.5 c 128,-1,74
 414 7 414 7 377 7 c 0,75,76
 346 7 346 7 327 13 c 128,-1,77
 308 19 308 19 290 31 c 1,0,1
EndSplineSet
EndChar

StartChar: P
Encoding: 80 80 86
Width: 600
GlyphClass: 2
Flags: W
LayerCount: 2
Fore
SplineSet
312 695 m 1,0,-1
 312 683 l 1,1,2
 308 645 308 645 262 434.5 c 128,-1,3
 216 224 216 224 203 83 c 0,4,5
 198 20 198 20 201 -15 c 1,6,7
 178 -17 178 -17 176 -17 c 0,8,9
 131 -17 131 -17 111 3.5 c 128,-1,10
 91 24 91 24 95 70.5 c 128,-1,11
 99 117 99 117 153 354.5 c 128,-1,12
 207 592 207 592 216 693.5 c 128,-1,13
 225 795 225 795 213 826 c 1,14,15
 245 822 245 822 270 801.5 c 128,-1,16
 295 781 295 781 306 747 c 1,17,18
 384 788 384 788 476 788 c 128,-1,19
 568 788 568 788 616 730.5 c 128,-1,20
 664 673 664 673 657 589 c 0,21,22
 647 482 647 482 562.5 396.5 c 128,-1,23
 478 311 478 311 348 311 c 0,24,25
 319 311 319 311 295 315 c 1,26,-1
 294 347 l 1,27,28
 360 347 360 347 411.5 367 c 128,-1,29
 463 387 463 387 491 420 c 0,30,31
 546 484 546 484 554 570 c 0,32,33
 559 632 559 632 524.5 673.5 c 128,-1,34
 490 715 490 715 416 715 c 0,35,36
 371 715 371 715 312 695 c 1,0,-1
EndSplineSet
EndChar

StartChar: Thorn
Encoding: 222 222 87
Width: 600
GlyphClass: 2
Flags: W
HStem: 161 53<235 314.369> 457 21G<109 122.5> 514 56<287.155 463.08> 639 20G<227 310>
VStem: 133 95<38.4922 160.372> 497 80<351.94 482.224>
LayerCount: 2
Fore
SplineSet
235 214 m 1,0,1
 356 239 356 239 426.5 295 c 128,-1,2
 497 351 497 351 497 421 c 0,3,4
 497 465 497 465 468 489.5 c 128,-1,5
 439 514 439 514 384 514 c 0,6,7
 364 514 364 514 339.5 510.5 c 128,-1,8
 315 507 315 507 278 499 c 1,9,10
 266 445 266 445 255.5 375 c 128,-1,11
 245 305 245 305 235 214 c 1,0,1
190 480 m 1,12,13
 174 477 174 477 155 471.5 c 128,-1,14
 136 466 136 466 109 457 c 1,15,-1
 109 502 l 1,16,17
 133 512 133 512 155.5 519.5 c 128,-1,18
 178 527 178 527 200 532 c 1,19,20
 210 574 210 574 215.5 600 c 128,-1,21
 221 626 221 626 227 650 c 1,22,-1
 315 659 l 1,23,24
 305 627 305 627 297.5 601.5 c 128,-1,25
 290 576 290 576 286 555 c 1,26,27
 323 563 323 563 353 566 c 128,-1,28
 383 569 383 569 408 570 c 0,29,30
 492 570 492 570 535 536 c 0,31,32
 577 503 577 503 577 439 c 0,33,34
 577 437 577 437 577 436 c 0,35,36
 577 342 577 342 482.5 266.5 c 128,-1,37
 388 191 388 191 231 161 c 1,38,39
 229 141 229 141 228 110 c 0,40,41
 226 44 226 44 198 34 c 2,42,-1
 150 17 l 2,43,44
 149 17 149 17 147.5 16 c 128,-1,45
 146 15 146 15 143 15 c 0,46,47
 139 15 139 15 136 20 c 128,-1,48
 133 25 133 25 133 32 c 0,49,50
 133 97 133 97 148.5 219 c 128,-1,51
 164 341 164 341 190 480 c 1,12,13
EndSplineSet
EndChar

StartChar: Q
Encoding: 81 81 88
Width: 600
GlyphClass: 2
Flags: W
LayerCount: 2
Fore
SplineSet
548 649 m 128,-1,1
 512 732 512 732 426 732 c 0,2,3
 362 732 362 732 302 673 c 128,-1,4
 242 614 242 614 205 524 c 128,-1,5
 168 434 168 434 160 341 c 0,6,7
 144 143 144 143 235 143 c 0,8,9
 320 143 320 143 330 259 c 0,10,11
 333 295 333 295 324.5 324.5 c 128,-1,12
 316 354 316 354 305 366 c 2,13,-1
 295 377 l 1,14,15
 319 389 319 389 349.5 389 c 128,-1,16
 380 389 380 389 407 362 c 128,-1,17
 434 335 434 335 429 279 c 0,18,19
 421 183 421 183 364.5 131 c 128,-1,20
 308 79 308 79 235 79 c 128,-1,21
 162 79 162 79 111 147 c 128,-1,22
 60 215 60 215 71 346 c 0,23,24
 82 473 82 473 144 588 c 0,25,26
 177 648 177 648 222 695 c 128,-1,27
 267 742 267 742 332 771 c 128,-1,28
 397 800 397 800 472 800 c 0,29,30
 566 800 566 800 624 716 c 128,-1,31
 682 632 682 632 669 475 c 0,32,33
 657 333 657 333 596 213 c 0,34,35
 563 146 563 146 514.5 91 c 128,-1,36
 466 36 466 36 392.5 -9 c 128,-1,37
 319 -54 319 -54 229 -77 c 1,38,39
 245 -83 245 -83 293.5 -104.5 c 128,-1,40
 342 -126 342 -126 363.5 -135 c 128,-1,41
 385 -144 385 -144 429 -160.5 c 128,-1,42
 473 -177 473 -177 502 -185 c 0,43,44
 579 -206 579 -206 645 -210 c 1,45,46
 622 -259 622 -259 591 -285.5 c 128,-1,47
 560 -312 560 -312 526 -312 c 128,-1,48
 492 -312 492 -312 364 -237.5 c 128,-1,49
 236 -163 236 -163 187 -144 c 0,50,51
 92 -106 92 -106 30 -104 c 1,52,53
 72 -46 72 -46 132 -46 c 1,54,55
 223 -35 223 -35 298 2 c 128,-1,56
 373 39 373 39 421.5 88.5 c 128,-1,57
 470 138 470 138 503 200 c 0,58,59
 562 310 562 310 573 438 c 128,-1,0
 584 566 584 566 548 649 c 128,-1,1
EndSplineSet
EndChar

StartChar: R
Encoding: 82 82 89
Width: 600
GlyphClass: 2
Flags: W
LayerCount: 2
Fore
SplineSet
83 3.5 m 128,-1,1
 63 24 63 24 67 70.5 c 128,-1,2
 71 117 71 117 124.5 354.5 c 128,-1,3
 178 592 178 592 187 693.5 c 128,-1,4
 196 795 196 795 184 826 c 1,5,6
 262 818 262 818 278 747 c 1,7,8
 354 787 354 787 439.5 787 c 128,-1,9
 525 787 525 787 573.5 730.5 c 128,-1,10
 622 674 622 674 615.5 599.5 c 128,-1,11
 609 525 609 525 560.5 461.5 c 128,-1,12
 512 398 512 398 420 368 c 1,13,-1
 430 325 l 2,14,15
 456 216 456 216 512.5 108.5 c 128,-1,16
 569 1 569 1 607 -38 c 1,17,18
 586 -48 586 -48 547.5 -48 c 128,-1,19
 509 -48 509 -48 471 -13 c 128,-1,20
 433 22 433 22 405 86 c 0,21,22
 356 198 356 198 322 348 c 1,23,24
 287 346 287 346 269 346 c 1,25,-1
 269 382 l 1,26,27
 378 386 378 386 443 447 c 128,-1,28
 508 508 508 508 516 591 c 0,29,30
 520 644 520 644 488.5 679 c 128,-1,31
 457 714 457 714 398.5 714 c 128,-1,32
 340 714 340 714 283 693 c 1,33,34
 279 654 279 654 233 440 c 128,-1,35
 187 226 187 226 174 83 c 0,36,37
 169 20 169 20 172 -15 c 1,38,39
 148 -17 148 -17 146 -17 c 0,40,0
 103 -17 103 -17 83 3.5 c 128,-1,1
EndSplineSet
EndChar

StartChar: Racute
Encoding: 340 340 90
Width: 600
GlyphClass: 2
Flags: W
HStem: 671 60<272.12 464.051> 717 21G<358.909 420.867>
VStem: 104 101<42.9082 281.579> 501 86<498.242 636.031>
LayerCount: 2
Fore
SplineSet
580 792 m 5,0,-1
 363 717 l 5,1,-1
 354 761 l 5,2,-1
 562 861 l 5,3,-1
 580 792 l 5,0,-1
EndSplineSet
Refer: 89 82 N 1 0 0 1 0 0 0
EndChar

StartChar: Rcaron
Encoding: 344 344 91
Width: 600
GlyphClass: 2
Flags: W
HStem: 671 60<272.12 464.051> 716 21G<404.583 506.126>
VStem: 104 101<42.9082 281.579> 501 86<498.242 636.031>
LayerCount: 2
Fore
SplineSet
627 819 m 5,0,-1
 477 716 l 5,1,-1
 424 716 l 5,2,-1
 324 819 l 5,3,-1
 369 860 l 5,4,-1
 466 783 l 5,5,-1
 602 860 l 5,6,-1
 627 819 l 5,0,-1
EndSplineSet
Refer: 89 82 N 1 0 0 1 0 0 0
EndChar

StartChar: Rcommaaccent
Encoding: 342 342 92
Width: 600
GlyphClass: 2
Flags: W
HStem: 671 60<272.12 464.051>
VStem: 104 101<42.9082 281.579> 249 105<-160.557 -84.5312> 501 86<498.242 636.031>
LayerCount: 2
Fore
SplineSet
347 -82 m 4,0,1
 354 -92 354 -92 354 -104 c 4,2,3
 354 -110 354 -110 352 -118 c 4,4,5
 347 -139 347 -139 326 -170 c 6,6,-1
 254 -272 l 5,7,-1
 207 -272 l 5,8,-1
 261 -161 l 5,9,10
 249 -150 249 -150 249 -132 c 4,11,12
 249 -125 249 -125 251 -118 c 4,13,14
 257 -95 257 -95 274 -82 c 4,15,16
 292 -68 292 -68 314 -67 c 4,17,18
 337 -68 337 -68 347 -82 c 4,0,1
EndSplineSet
Refer: 89 82 N 1 0 0 1 0 0 0
EndChar

StartChar: S
Encoding: 83 83 93
Width: 600
GlyphClass: 2
Flags: W
LayerCount: 2
Fore
SplineSet
331 496 m 0,0,1
 358 469 358 469 391.5 442.5 c 128,-1,2
 425 416 425 416 459 389 c 128,-1,3
 493 362 493 362 519 334 c 0,4,5
 581 271 581 271 574 195 c 0,6,7
 566 101 566 101 490.5 38 c 128,-1,8
 415 -25 415 -25 300 -25 c 128,-1,9
 185 -25 185 -25 127.5 28 c 128,-1,10
 70 81 70 81 76 154 c 0,11,12
 81 208 81 208 115.5 241.5 c 128,-1,13
 150 275 150 275 200 275 c 0,14,15
 214 275 214 275 226 271 c 1,16,17
 192 224 192 224 187 170.5 c 128,-1,18
 182 117 182 117 215.5 79 c 128,-1,19
 249 41 249 41 321 41 c 0,20,21
 373 41 373 41 416.5 73.5 c 128,-1,22
 460 106 460 106 465 164 c 0,23,24
 469 202 469 202 447.5 238.5 c 128,-1,25
 426 275 426 275 392 303 c 128,-1,26
 358 331 358 331 318 365.5 c 128,-1,27
 278 400 278 400 244.5 432 c 128,-1,28
 211 464 211 464 190.5 510 c 128,-1,29
 170 556 170 556 174 606 c 0,30,31
 182 701 182 701 250.5 756.5 c 128,-1,32
 319 812 319 812 438 812 c 0,33,34
 536 812 536 812 587 759.5 c 128,-1,35
 638 707 638 707 633 650.5 c 128,-1,36
 628 594 628 594 595 558 c 128,-1,37
 562 522 562 522 510 522 c 0,38,39
 492 522 492 522 475 526 c 1,40,41
 528 578 528 578 533 636 c 128,-1,42
 538 694 538 694 505.5 723.5 c 128,-1,43
 473 753 473 753 418.5 753 c 128,-1,44
 364 753 364 753 322.5 721 c 128,-1,45
 281 689 281 689 275.5 624 c 128,-1,46
 270 559 270 559 331 496 c 0,0,1
EndSplineSet
EndChar

StartChar: Sacute
Encoding: 346 346 94
Width: 600
GlyphClass: 2
Flags: W
HStem: -2 58<233.628 422.101> 482 21G<470 536> 664 56<270.374 430.9> 717 21G<364.909 426.867>
VStem: 135 82<477.851 601.05> 464 84<95.2999 212.916> 490 75<522.238 633.076>
LayerCount: 2
Fore
SplineSet
586 792 m 5,0,-1
 369 717 l 5,1,-1
 360 761 l 5,2,-1
 568 861 l 5,3,-1
 586 792 l 5,0,-1
EndSplineSet
Refer: 93 83 N 1 0 0 1 0 0 0
Substitution2: "'locl' Localized Forms in Latin lookup 18 subtable" Sacute.loclPLK
Substitution2: "'aalt' Access All Alternates lookup 0 subtable" Sacute.loclPLK
EndChar

StartChar: Scircumflex
Encoding: 348 348 97
Width: 600
GlyphClass: 2
Flags: W
HStem: -2 58<233.628 422.101> 482 21G<470 536> 664 56<270.374 430.9> 722 21G<328.805 376.065 549.286 596.463>
VStem: 135 82<477.851 601.05> 464 84<95.2999 212.916> 490 75<522.238 633.076>
LayerCount: 2
Fore
SplineSet
619 763 m 5,0,-1
 575 722 l 5,1,-1
 476 799 l 5,2,-1
 341 722 l 5,3,-1
 316 763 l 5,4,-1
 466 864 l 5,5,-1
 519 864 l 5,6,-1
 619 763 l 5,0,-1
EndSplineSet
Refer: 93 83 N 1 0 0 1 0 0 0
EndChar

StartChar: Scommaaccent
Encoding: 536 536 98
Width: 600
GlyphClass: 2
Flags: W
HStem: -2 58<233.628 422.101> 482 21G<470 536> 664 56<270.374 430.9>
VStem: 135 82<477.851 601.05> 247 105<-160.557 -84.5312> 464 84<95.2999 212.916> 490 75<522.238 633.076>
LayerCount: 2
Fore
SplineSet
345 -82 m 4,0,1
 352 -92 352 -92 352 -104 c 4,2,3
 352 -110 352 -110 350 -118 c 4,4,5
 345 -139 345 -139 324 -170 c 6,6,-1
 252 -272 l 5,7,-1
 205 -272 l 5,8,-1
 259 -161 l 5,9,10
 247 -150 247 -150 247 -132 c 4,11,12
 247 -125 247 -125 249 -118 c 4,13,14
 255 -95 255 -95 272 -82 c 4,15,16
 290 -68 290 -68 312 -67 c 4,17,18
 335 -68 335 -68 345 -82 c 4,0,1
EndSplineSet
Refer: 93 83 N 1 0 0 1 0 0 0
EndChar

StartChar: T
Encoding: 84 84 99
Width: 600
GlyphClass: 2
Flags: W
LayerCount: 2
Fore
SplineSet
181 729 m 0,0,1
 183 751 183 751 192 772 c 1,2,3
 295 759 295 759 430 759 c 128,-1,4
 565 759 565 759 711 785 c 1,5,6
 689 692 689 692 586 684 c 0,7,8
 532 679 532 679 478 676 c 1,9,10
 474 637 474 637 421 406 c 128,-1,11
 368 175 368 175 360.5 88.5 c 128,-1,12
 353 2 353 2 364 -31 c 1,13,14
 304 -9 304 -9 282 28.5 c 128,-1,15
 260 66 260 66 264.5 118.5 c 128,-1,16
 269 171 269 171 312 362.5 c 128,-1,17
 355 554 355 554 370 671 c 1,18,19
 282 668 282 668 219 668 c 0,20,21
 175 668 175 668 181 729 c 0,0,1
EndSplineSet
EndChar

StartChar: Tbar
Encoding: 358 358 100
Width: 600
GlyphClass: 2
Flags: W
HStem: 0 21G<255 342> 0 21G<255 342> 332 64<125 255 342 473> 583 72<40 255 342 550>
VStem: 255 87<0 332 396 583>
LayerCount: 2
Fore
SplineSet
342 583 m 1,0,-1
 342 396 l 1,1,-1
 473 396 l 1,2,-1
 473 332 l 1,3,-1
 342 332 l 1,4,-1
 342 0 l 1,5,-1
 255 0 l 1,6,-1
 255 332 l 1,7,-1
 125 332 l 1,8,-1
 125 396 l 1,9,-1
 255 396 l 1,10,-1
 255 583 l 1,11,-1
 40 583 l 1,12,-1
 40 655 l 1,13,-1
 559 655 l 1,14,-1
 550 583 l 1,15,-1
 342 583 l 1,0,-1
EndSplineSet
EndChar

StartChar: Tcaron
Encoding: 356 356 101
Width: 600
GlyphClass: 2
Flags: W
HStem: 649 83<426.594 636.375> 716 21G<403.583 505.126>
VStem: 257 104<37.8447 243.603>
LayerCount: 2
Fore
SplineSet
626 819 m 5,0,-1
 476 716 l 5,1,-1
 423 716 l 5,2,-1
 323 819 l 5,3,-1
 368 860 l 5,4,-1
 465 783 l 5,5,-1
 601 860 l 5,6,-1
 626 819 l 5,0,-1
EndSplineSet
Refer: 99 84 N 1 0 0 1 0 0 0
EndChar

StartChar: uni0162
Encoding: 354 354 102
Width: 600
GlyphClass: 2
Flags: W
HStem: -226 53<210.528 343.828> 583 72<40 255 342 550>
VStem: 255 87<0 583> 269 59<-57.1562 0> 348 73<-166.33 -100.794>
LayerCount: 2
Fore
SplineSet
328 0 m 1,0,-1
 328 -54 l 1,1,2
 374 -58 374 -58 397.5 -80.5 c 128,-1,3
 421 -103 421 -103 421 -133 c 0,4,5
 421 -178 421 -178 385.5 -202 c 128,-1,6
 350 -226 350 -226 299 -226 c 0,7,8
 269 -226 269 -226 241.5 -220 c 128,-1,9
 214 -214 214 -214 194 -203 c 1,10,-1
 221 -158 l 1,11,12
 251 -173 251 -173 288 -173 c 0,13,14
 348 -173 348 -173 348 -134 c 0,15,16
 348 -109 348 -109 327 -100.5 c 128,-1,17
 306 -92 306 -92 262 -92 c 1,18,-1
 269 0 l 1,19,-1
 255 0 l 1,20,-1
 255 583 l 1,21,-1
 40 583 l 1,22,-1
 40 655 l 1,23,-1
 559 655 l 1,24,-1
 550 583 l 1,25,-1
 342 583 l 1,26,-1
 342 0 l 1,27,-1
 328 0 l 1,0,-1
EndSplineSet
Substitution2: "'locl' Localized Forms in Latin lookup 16 subtable" uni021A
Substitution2: "'locl' Localized Forms in Latin lookup 15 subtable" uni021A
Substitution2: "'aalt' Access All Alternates lookup 0 subtable" uni021A
EndChar

StartChar: uni021A
Encoding: 538 538 103
Width: 600
GlyphClass: 2
Flags: W
HStem: 649 83<426.594 636.375>
VStem: 249 105<-160.557 -84.5312> 257 104<37.8447 243.603>
LayerCount: 2
Fore
SplineSet
347 -82 m 4,0,1
 354 -92 354 -92 354 -104 c 4,2,3
 354 -110 354 -110 352 -118 c 4,4,5
 347 -139 347 -139 326 -170 c 6,6,-1
 254 -272 l 5,7,-1
 207 -272 l 5,8,-1
 261 -161 l 5,9,10
 249 -150 249 -150 249 -132 c 4,11,12
 249 -125 249 -125 251 -118 c 4,13,14
 257 -95 257 -95 274 -82 c 4,15,16
 292 -68 292 -68 314 -67 c 4,17,18
 337 -68 337 -68 347 -82 c 4,0,1
EndSplineSet
Refer: 99 84 N 1 0 0 1 0 0 0
EndChar

StartChar: U
Encoding: 85 85 104
Width: 600
GlyphClass: 2
Flags: W
LayerCount: 2
Fore
SplineSet
687 731.5 m 128,-1,1
 689 715 689 715 685.5 675 c 128,-1,2
 682 635 682 635 630.5 409 c 128,-1,3
 579 183 579 183 571 92.5 c 128,-1,4
 563 2 563 2 573 -31 c 1,5,6
 516 -9 516 -9 495.5 28.5 c 128,-1,7
 475 66 475 66 480 129 c 0,8,9
 483 160 483 160 487 179 c 1,10,11
 388 -20 388 -20 230 -20 c 0,12,13
 151 -20 151 -20 116 37.5 c 128,-1,14
 81 95 81 95 92 220 c 0,15,16
 98 291 98 291 136 476 c 128,-1,17
 174 661 174 661 179 716.5 c 128,-1,18
 184 772 184 772 175 802 c 1,19,20
 230 780 230 780 252 745 c 128,-1,21
 274 710 274 710 268.5 648.5 c 128,-1,22
 263 587 263 587 230.5 450.5 c 128,-1,23
 198 314 198 314 190.5 226 c 128,-1,24
 183 138 183 138 206 100 c 128,-1,25
 229 62 229 62 279 62 c 0,26,27
 330 62 330 62 384 108 c 0,28,29
 452 167 452 167 501 300 c 0,30,31
 530 376 530 376 550 474 c 0,32,33
 551 477 551 477 553.5 477 c 128,-1,34
 556 477 556 477 564.5 464 c 128,-1,35
 573 451 573 451 574 451 c 2,36,-1
 561 388 l 1,37,38
 528 263 528 263 487 179 c 1,39,40
 494 219 494 219 517 322 c 0,41,42
 575 579 575 579 587 720 c 0,43,44
 590 750 590 750 590 802 c 1,45,46
 663 798 663 798 678 766 c 0,47,0
 685 748 685 748 687 731.5 c 128,-1,1
576 455 m 2,48,-1
 574 451 l 2,49,50
 575 451 575 451 576 455 c 2,48,-1
EndSplineSet
EndChar

StartChar: Ubreve
Encoding: 364 364 106
Width: 600
GlyphClass: 2
Flags: W
HStem: 22 75<197.776 331.784> 696 20G<160 232.5 496 573.5> 721 62<412.062 528.822>
VStem: 73 87<135.381 390.764> 340 56<814.312 834> 435 89<173.04 472.478>
LayerCount: 2
Fore
SplineSet
363 752 m 4,0,1
 338 776 338 776 338 814 c 4,2,3
 338 824 338 824 340 834 c 5,4,-1
 396 846 l 5,5,6
 404 782 404 782 464 783 c 4,7,8
 496 783 496 783 522.5 800 c 4,9,10
 549 817 549 817 566 846 c 5,11,-1
 617 834 l 5,12,13
 599 783 599 783 551.5 752 c 4,14,15
 504 721 504 721 449 721 c 4,16,17
 396 721 396 721 363 752 c 4,0,1
EndSplineSet
Refer: 104 85 N 1 0 0 1 0 0 0
EndChar

StartChar: Uhungarumlaut
Encoding: 368 368 110
Width: 600
GlyphClass: 2
Flags: W
HStem: 22 75<197.776 331.784> 696 20G<160 232.5 496 573.5> 717 21G<359.2 412.41 514.889 563.806>
VStem: 73 87<135.381 390.764> 435 89<173.04 472.478>
LayerCount: 2
Fore
SplineSet
463 907 m 5,0,-1
 524 873 l 5,1,-1
 396 717 l 5,2,-1
 350 742 l 5,3,-1
 463 907 l 5,0,-1
625 907 m 5,4,-1
 684 870 l 5,5,-1
 546 715 l 5,6,-1
 504 742 l 5,7,-1
 625 907 l 5,4,-1
EndSplineSet
Refer: 104 85 N 1 0 0 1 0 0 0
EndChar

StartChar: Umacron
Encoding: 362 362 111
Width: 600
GlyphClass: 2
Flags: W
HStem: 22 75<197.776 331.784> 696 20G<160 232.5 496 573.5> 755 61<349 584>
VStem: 73 87<135.381 390.764> 435 89<173.04 472.478>
LayerCount: 2
Fore
SplineSet
334 755 m 5,0,-1
 349 816 l 5,1,-1
 599 816 l 5,2,-1
 584 755 l 5,3,-1
 334 755 l 5,0,-1
EndSplineSet
Refer: 104 85 N 1 0 0 1 0 0 0
EndChar

StartChar: Uogonek
Encoding: 370 370 112
Width: 600
GlyphClass: 2
Flags: W
HStem: -218 64<261.822 361.189> 635 20G<72 159 440 528>
VStem: 72 87<117.142 655> 175 77<-145.173 -61.1737> 440 88<117.376 655>
LayerCount: 2
Fore
SplineSet
528 655 m 1,0,-1
 528 212 l 2,1,2
 528 132 528 132 487.5 76 c 128,-1,3
 447 20 447 20 375 -1 c 1,4,5
 304 -30 304 -30 278 -55.5 c 128,-1,6
 252 -81 252 -81 252 -108 c 0,7,8
 252 -131 252 -131 265 -142.5 c 128,-1,9
 278 -154 278 -154 308 -154 c 0,10,11
 335 -154 335 -154 369 -147 c 1,12,-1
 361 -212 l 1,13,14
 319 -218 319 -218 297 -218 c 0,15,16
 241 -218 241 -218 208 -191.5 c 128,-1,17
 175 -165 175 -165 175 -124 c 0,18,19
 175 -54 175 -54 263 -9 c 1,20,21
 174 1 174 1 123 61 c 128,-1,22
 72 121 72 121 72 212 c 2,23,-1
 72 655 l 1,24,-1
 159 655 l 1,25,-1
 159 209 l 2,26,27
 159 135 159 135 195 98 c 128,-1,28
 231 61 231 61 299 61 c 256,29,30
 367 61 367 61 403.5 98 c 128,-1,31
 440 135 440 135 440 209 c 2,32,-1
 440 655 l 1,33,-1
 528 655 l 1,0,-1
EndSplineSet
EndChar

StartChar: Uring
Encoding: 366 366 113
Width: 600
GlyphClass: 2
Flags: W
HStem: 22 75<197.776 331.784> 696 20G<160 232.5 496 573.5> 701 43<421.571 500.193> 851 45<434.222 516.397>
VStem: 73 87<135.381 390.764> 363 54<758.313 833.691> 435 89<173.04 472.478> 521 54<759.94 836.687>
LayerCount: 2
Fore
SplineSet
560 867 m 4,0,1
 575 847 575 847 575 823 c 4,2,3
 575 812 575 812 572 798 c 4,4,5
 563 758 563 758 526 730 c 4,6,7
 490 702 490 702 446 701 c 4,8,9
 403 701 403 701 379 730 c 4,10,11
 363 749 363 749 363 774 c 4,12,13
 363 785 363 785 366 798 c 4,14,15
 376 839 376 839 412 867.5 c 4,16,17
 448 896 448 896 493 896 c 4,18,19
 539 895 539 895 560 867 c 4,0,1
442 837 m 4,20,21
 424 822 424 822 419 798 c 4,22,23
 417 788 417 788 417 780 c 4,24,25
 416 768 416 768 423 758 c 4,26,27
 433 744 433 744 456 744 c 4,28,29
 480 744 480 744 497 758 c 4,30,31
 514 773 514 773 519 798 c 4,32,33
 521 808 521 808 521 815 c 4,34,35
 522 827 522 827 515 837 c 4,36,37
 505 851 505 851 482 851 c 260,38,39
 459 851 459 851 442 837 c 4,20,21
EndSplineSet
Refer: 104 85 N 1 0 0 1 0 0 0
EndChar

StartChar: Utilde
Encoding: 360 360 114
Width: 600
GlyphClass: 2
Flags: W
HStem: 22 75<197.776 331.784> 696 20G<160 232.5 496 573.5> 739 61<484.74 565.512> 785 61<372.471 454.132>
VStem: 73 87<135.381 390.764> 435 89<173.04 472.478>
LayerCount: 2
Fore
SplineSet
479.5 745.5 m 4,0,1
 467 752 467 752 452 765 c 4,2,3
 441 775 441 775 432 780 c 4,4,5
 423 785 423 785 413 785 c 4,6,7
 398 785 398 785 384.5 774.5 c 4,8,9
 371 764 371 764 353 741 c 5,10,-1
 310 766 l 5,11,12
 337 803 337 803 367 824.5 c 4,13,14
 397 846 397 846 428 846 c 4,15,16
 448 846 448 846 460 839 c 4,17,18
 472 832 472 832 487 820 c 4,19,20
 500 809 500 809 507 804.5 c 4,21,22
 514 800 514 800 525 800 c 4,23,24
 539 800 539 800 552.5 810 c 4,25,26
 566 820 566 820 584 843 c 5,27,-1
 628 817 l 5,28,29
 601 778 601 778 571 758.5 c 4,30,31
 541 739 541 739 510 739 c 4,32,33
 492 739 492 739 479.5 745.5 c 4,0,1
EndSplineSet
Refer: 104 85 N 1 0 0 1 0 0 0
EndChar

StartChar: V
Encoding: 86 86 115
Width: 600
GlyphClass: 2
Flags: W
LayerCount: 2
Fore
SplineSet
333.5 -8.5 m 128,-1,1
 309 -14 309 -14 289 -14 c 128,-1,2
 269 -14 269 -14 267 1 c 0,3,4
 255 63 255 63 235.5 243.5 c 128,-1,5
 216 424 216 424 193.5 571 c 128,-1,6
 171 718 171 718 142 766 c 1,7,8
 185 792 185 792 212 792 c 0,9,10
 263 792 263 792 278 733 c 128,-1,11
 293 674 293 674 316 411 c 0,12,13
 317 387 317 387 331.5 260.5 c 128,-1,14
 346 134 346 134 349 101 c 1,15,16
 426 247 426 247 526 490.5 c 128,-1,17
 626 734 626 734 633 807 c 1,18,19
 727 789 727 789 722 733 c 0,20,21
 719 692 719 692 652 559.5 c 128,-1,22
 585 427 585 427 492.5 254.5 c 128,-1,23
 400 82 400 82 363 0 c 0,24,0
 358 -3 358 -3 333.5 -8.5 c 128,-1,1
EndSplineSet
EndChar

StartChar: W
Encoding: 87 87 116
Width: 600
GlyphClass: 2
Flags: W
LayerCount: 2
Fore
SplineSet
452.5 -8.5 m 128,-1,1
 435 -14 435 -14 419.5 -14 c 128,-1,2
 404 -14 404 -14 406 1 c 0,3,4
 400 60 400 60 393.5 213.5 c 128,-1,5
 387 367 387 367 383 424 c 1,6,7
 357 360 357 360 319 262 c 0,8,9
 233 45 233 45 217 0 c 0,10,11
 213 -3 213 -3 195 -8.5 c 128,-1,12
 177 -14 177 -14 161.5 -14 c 128,-1,13
 146 -14 146 -14 147 1 c 0,14,15
 140 64 140 64 133.5 244 c 128,-1,16
 127 424 127 424 116 571 c 128,-1,17
 105 718 105 718 86 766 c 1,18,19
 118 792 118 792 139 792 c 0,20,21
 178 792 178 792 187 728.5 c 128,-1,22
 196 665 196 665 200 384 c 0,23,24
 201 369 201 369 205.5 254 c 128,-1,25
 210 139 210 139 210 101 c 1,26,27
 307 379 307 379 372 594 c 1,28,29
 361 721 361 721 344 766 c 1,30,31
 376 792 376 792 397 792 c 0,32,33
 437 792 437 792 445.5 728.5 c 128,-1,34
 454 665 454 665 459 384 c 0,35,36
 459 369 459 369 463 254 c 128,-1,37
 467 139 467 139 468 101 c 1,38,39
 670 686 670 686 684 807 c 1,40,41
 714 797 714 797 732 778.5 c 128,-1,42
 750 760 750 760 748 737 c 0,43,44
 743 672 743 672 560 220 c 0,45,46
 488 43 488 43 475 0 c 0,47,0
 470 -3 470 -3 452.5 -8.5 c 128,-1,1
EndSplineSet
EndChar

StartChar: Wacute
Encoding: 7810 7810 117
Width: 600
GlyphClass: 2
Flags: W
HStem: 679 20G<131.381 236 530.048 612> 717 21G<358.909 420.867>
VStem: 62 80<134.877 495.604> 295 73<230.371 438.863> 540 75<394.989 663.689>
LayerCount: 2
Fore
SplineSet
580 792 m 5,0,-1
 363 717 l 5,1,-1
 354 761 l 5,2,-1
 562 861 l 5,3,-1
 580 792 l 5,0,-1
EndSplineSet
Refer: 116 87 N 1 0 0 1 0 0 0
EndChar

StartChar: Wcircumflex
Encoding: 372 372 118
Width: 600
GlyphClass: 2
Flags: W
HStem: 679 20G<131.381 236 530.048 612> 722 21G<322.805 370.065 543.286 590.463>
VStem: 62 80<134.877 495.604> 295 73<230.371 438.863> 540 75<394.989 663.689>
LayerCount: 2
Fore
SplineSet
613 763 m 5,0,-1
 569 722 l 5,1,-1
 470 799 l 5,2,-1
 335 722 l 5,3,-1
 310 763 l 5,4,-1
 460 864 l 5,5,-1
 513 864 l 5,6,-1
 613 763 l 5,0,-1
EndSplineSet
Refer: 116 87 N 1 0 0 1 0 0 0
EndChar

StartChar: Wdieresis
Encoding: 7812 7812 119
Width: 600
GlyphClass: 2
Flags: W
HStem: 679 20G<131.381 236 530.048 612> 729 102<334.016 404.188 527.125 597.673>
VStem: 62 80<134.877 495.604> 295 73<230.371 438.863> 316 105<745.695 813.145> 540 75<394.989 663.689>
LayerCount: 2
Fore
SplineSet
324 743 m 4,0,1
 316 753 316 753 316 767 c 4,2,3
 317 776 317 776 318 779 c 4,4,5
 322 800 322 800 342 817 c 4,6,7
 360 831 360 831 382 831 c 260,8,9
 404 831 404 831 414 817 c 4,10,11
 421 807 421 807 421 794 c 4,12,13
 421 787 421 787 419 779 c 4,14,15
 414 757 414 757 396 743 c 4,16,17
 378 729 378 729 357 729 c 4,18,19
 335 729 335 729 324 743 c 4,0,1
517 743 m 4,20,21
 509 753 509 753 509 766 c 4,22,23
 510 776 510 776 511 779 c 4,24,25
 515 800 515 800 535 817 c 4,26,27
 553 831 553 831 574 831 c 4,28,29
 596 831 596 831 607 817 c 4,30,31
 615 807 615 807 615 792 c 6,32,-1
 613 779 l 4,33,34
 610 759 610 759 589 743 c 4,35,36
 571 729 571 729 549 729 c 4,37,38
 529 729 529 729 517 743 c 4,20,21
EndSplineSet
Refer: 116 87 N 1 0 0 1 0 0 0
EndChar

StartChar: Wgrave
Encoding: 7808 7808 120
Width: 600
GlyphClass: 2
Flags: W
HStem: 679 20G<131.381 236 530.048 612> 717 21G<489.154 548.909>
VStem: 62 80<134.877 495.604> 295 73<230.371 438.863> 540 75<394.989 663.689>
LayerCount: 2
Fore
SplineSet
568 761 m 5,0,-1
 533 717 l 5,1,-1
 362 795 l 5,2,-1
 421 864 l 5,3,-1
 568 761 l 5,0,-1
EndSplineSet
Refer: 116 87 N 1 0 0 1 0 0 0
EndChar

StartChar: X
Encoding: 88 88 121
Width: 600
GlyphClass: 2
Flags: W
LayerCount: 2
Fore
SplineSet
565 -33 m 0,0,1
 478 -33 478 -33 418 73 c 0,2,3
 367 163 367 163 320 317 c 1,4,5
 156 146 156 146 82 -31 c 1,6,7
 35 23 35 23 40 80.5 c 128,-1,8
 45 138 45 138 110 212 c 128,-1,9
 175 286 175 286 297 396 c 1,10,11
 294 405 294 405 284 438.5 c 128,-1,12
 274 472 274 472 271 482.5 c 128,-1,13
 268 493 268 493 259 523 c 128,-1,14
 250 553 250 553 246 565.5 c 128,-1,15
 242 578 242 578 233.5 604.5 c 128,-1,16
 225 631 225 631 219.5 644.5 c 128,-1,17
 214 658 214 658 205.5 679.5 c 128,-1,18
 197 701 197 701 191 716 c 0,19,20
 176 748 176 748 159 776 c 1,21,22
 200 803 200 803 229 803 c 128,-1,23
 258 803 258 803 278.5 780 c 128,-1,24
 299 757 299 757 316 716 c 0,25,26
 339 656 339 656 360.5 572.5 c 128,-1,27
 382 489 382 489 386 476 c 1,28,29
 503 583 503 583 570.5 662.5 c 128,-1,30
 638 742 638 742 648 809 c 1,31,32
 671 792 671 792 681 765 c 128,-1,33
 691 738 691 738 688.5 713.5 c 128,-1,34
 686 689 686 689 671.5 661.5 c 128,-1,35
 657 634 657 634 625.5 601 c 128,-1,36
 594 568 594 568 567 543 c 128,-1,37
 540 518 540 518 488 473 c 128,-1,38
 436 428 436 428 406 400 c 1,39,40
 490 110 490 110 604 -28 c 1,41,42
 588 -33 588 -33 565 -33 c 0,0,1
EndSplineSet
EndChar

StartChar: Y
Encoding: 89 89 122
Width: 600
GlyphClass: 2
Flags: W
LayerCount: 2
Fore
SplineSet
404 283 m 1,0,1
 376 148 376 148 369.5 75 c 128,-1,2
 363 2 363 2 374 -31 c 1,3,4
 310 -17 310 -17 288 22 c 128,-1,5
 266 61 266 61 272 129 c 0,6,7
 275 165 275 165 299 286 c 1,8,9
 229 658 229 658 159 777 c 1,10,11
 190 803 190 803 220.5 803 c 128,-1,12
 251 803 251 803 268.5 794.5 c 128,-1,13
 286 786 286 786 301 765.5 c 128,-1,14
 316 745 316 745 327 697 c 0,15,16
 348 604 348 604 369 404 c 1,17,-1
 374 335 l 1,18,19
 484 487 484 487 556 622.5 c 128,-1,20
 628 758 628 758 645 833 c 1,21,22
 701 791 701 791 695 719.5 c 128,-1,23
 689 648 689 648 404 283 c 1,0,1
EndSplineSet
EndChar

StartChar: Ycircumflex
Encoding: 374 374 124
Width: 600
GlyphClass: 2
Flags: W
HStem: 695 25G<179.935 238.5 507 626> 722 21G<325.805 373.065 546.286 593.463>
VStem: 148 90<458.688 684>
LayerCount: 2
Fore
SplineSet
616 763 m 5,0,-1
 572 722 l 5,1,-1
 473 799 l 5,2,-1
 338 722 l 5,3,-1
 313 763 l 5,4,-1
 463 864 l 5,5,-1
 516 864 l 5,6,-1
 616 763 l 5,0,-1
EndSplineSet
Refer: 122 89 N 1 0 0 1 0 0 0
EndChar

StartChar: Ygrave
Encoding: 7922 7922 126
Width: 600
GlyphClass: 2
Flags: W
HStem: 695 25G<179.935 238.5 507 626> 717 21G<492.154 551.909>
VStem: 148 90<458.688 684>
LayerCount: 2
Fore
SplineSet
571 761 m 5,0,-1
 536 717 l 5,1,-1
 365 795 l 5,2,-1
 424 864 l 5,3,-1
 571 761 l 5,0,-1
EndSplineSet
Refer: 122 89 N 1 0 0 1 0 0 0
EndChar

StartChar: Z
Encoding: 90 90 127
Width: 600
GlyphClass: 2
Flags: W
LayerCount: 2
Fore
SplineSet
213 726 m 0,0,1
 215 755 215 755 224 777 c 1,2,3
 349 763 349 763 455.5 763 c 128,-1,4
 562 763 562 763 615 767 c 1,5,6
 632 800 632 800 644 838 c 1,7,8
 685 778 685 778 679 706 c 0,9,10
 675 663 675 663 626 592 c 128,-1,11
 577 521 577 521 514 452 c 0,12,13
 298 211 298 211 210 89 c 1,14,15
 238 87 238 87 254 87 c 0,16,17
 469 87 469 87 579 117 c 1,18,19
 566 59 566 59 531 27 c 128,-1,20
 496 -5 496 -5 447 -5 c 0,21,22
 421 -5 421 -5 342.5 3.5 c 128,-1,23
 264 12 264 12 180.5 12 c 128,-1,24
 97 12 97 12 26 -3 c 1,25,26
 46 45 46 45 92 68 c 1,27,28
 421 429 421 429 577 698 c 1,29,30
 323 654 323 654 251 654 c 0,31,32
 206 654 206 654 213 726 c 0,0,1
EndSplineSet
EndChar

StartChar: Zacute
Encoding: 377 377 128
Width: 600
GlyphClass: 2
Flags: W
HStem: -2 87<238.065 501.281> 634.5 77.5<165.385 413> 717 21G<377.909 439.867>
LayerCount: 2
Fore
SplineSet
599 792 m 5,0,-1
 382 717 l 5,1,-1
 373 761 l 5,2,-1
 581 861 l 5,3,-1
 599 792 l 5,0,-1
EndSplineSet
Refer: 127 90 N 1 0 0 1 0 0 0
Substitution2: "'locl' Localized Forms in Latin lookup 18 subtable" Zacute.loclPLK
Substitution2: "'aalt' Access All Alternates lookup 0 subtable" Zacute.loclPLK
EndChar

StartChar: Zdotaccent
Encoding: 379 379 130
Width: 600
GlyphClass: 2
Flags: W
HStem: -2 87<238.065 501.281> 634.5 77.5<165.385 413> 735 112<447.332 522.338>
VStem: 427 116<755.665 826.679>
LayerCount: 2
Fore
SplineSet
535 832 m 4,0,1
 543 821 543 821 543 807 c 4,2,3
 543 800 543 800 541 791 c 4,4,5
 535 766 535 766 515.5 750.5 c 4,6,7
 496 735 496 735 471 735 c 4,8,9
 444 734 444 734 434 750 c 4,10,11
 427 760 427 760 427 775 c 4,12,13
 427 783 427 783 429 791 c 4,14,15
 435 816 435 816 454 831.5 c 4,16,17
 473 847 473 847 498 847 c 4,18,19
 524 847 524 847 535 832 c 4,0,1
EndSplineSet
Refer: 127 90 N 1 0 0 1 0 0 0
EndChar

StartChar: Cacute.loclPLK
Encoding: 1114114 -1 131
Width: 600
GlyphClass: 2
Flags: W
HStem: 0 58<289.432 435.354> 648 73<309.543 453.58> 692 21G<473.304 524.815>
VStem: 90 98<184.34 458.004>
LayerCount: 2
Fore
SplineSet
656 827 m 5,0,-1
 502 692 l 5,1,-1
 469 715 l 5,2,-1
 605 869 l 5,3,-1
 656 827 l 5,0,-1
EndSplineSet
Refer: 17 67 N 1 0 0 1 0 0 0
EndChar

StartChar: Nacute.loclPLK
Encoding: 1114115 -1 132
Width: 600
GlyphClass: 2
Flags: W
HStem: 692 21G<407.304 458.815> 714 20G<181.476 239.5 553.696 601.5>
VStem: 128.5 102.5<622.438 674.656 675.218 692> 469 68<145 330.138>
LayerCount: 2
Fore
SplineSet
590 827 m 5,0,-1
 436 692 l 5,1,-1
 403 715 l 5,2,-1
 539 869 l 5,3,-1
 590 827 l 5,0,-1
EndSplineSet
Refer: 68 78 N 1 0 0 1 0 0 0
EndChar

StartChar: Oacute.loclPLK
Encoding: 1114116 -1 133
Width: 600
GlyphClass: 2
Flags: W
HStem: -19.6924 77.3701<241.28 344.516> 692 21G<408.304 459.815>
VStem: 84.0898 98.4307<138.455 422.557> 493.835 82.8418<335.062 601.938>
LayerCount: 2
Fore
SplineSet
591 827 m 5,0,-1
 437 692 l 5,1,-1
 404 715 l 5,2,-1
 540 869 l 5,3,-1
 591 827 l 5,0,-1
EndSplineSet
Refer: 74 79 N 1 0 0 1 0 0 0
EndChar

StartChar: Sacute.loclPLK
Encoding: 1114117 -1 134
Width: 600
GlyphClass: 2
Flags: W
HStem: -2 58<233.628 422.101> 482 21G<470 536> 664 56<270.374 430.9> 692 21G<414.304 465.815>
VStem: 135 82<477.851 601.05> 464 84<95.2999 212.916> 490 75<522.238 633.076>
LayerCount: 2
Fore
SplineSet
597 827 m 5,0,-1
 443 692 l 5,1,-1
 410 715 l 5,2,-1
 546 869 l 5,3,-1
 597 827 l 5,0,-1
EndSplineSet
Refer: 93 83 N 1 0 0 1 0 0 0
EndChar

StartChar: Zacute.loclPLK
Encoding: 1114118 -1 135
Width: 600
GlyphClass: 2
Flags: W
HStem: -2 87<238.065 501.281> 634.5 77.5<165.385 413> 692 21G<427.304 478.815>
LayerCount: 2
Fore
SplineSet
610 827 m 5,0,-1
 456 692 l 5,1,-1
 423 715 l 5,2,-1
 559 869 l 5,3,-1
 610 827 l 5,0,-1
EndSplineSet
Refer: 127 90 N 1 0 0 1 0 0 0
EndChar

StartChar: a
Encoding: 97 97 136
Width: 600
GlyphClass: 2
Flags: W
LayerCount: 2
Fore
SplineSet
216.5 288.5 m 128,-1,1
 197 236 197 236 192.5 188 c 128,-1,2
 188 140 188 140 206 106.5 c 128,-1,3
 224 73 224 73 263 73 c 0,4,5
 318 73 318 73 371.5 134.5 c 128,-1,6
 425 196 425 196 458.5 283.5 c 128,-1,7
 492 371 492 371 498.5 445.5 c 128,-1,8
 505 520 505 520 504 568 c 1,9,10
 528 570 528 570 534 570 c 0,11,12
 617 570 617 570 609 483 c 0,13,14
 608 464 608 464 572.5 328.5 c 128,-1,15
 537 193 537 193 530 111.5 c 128,-1,16
 523 30 523 30 548 -33 c 1,17,18
 487 -20 487 -20 463 22.5 c 128,-1,19
 439 65 439 65 446 145 c 0,20,21
 447 159 447 159 454 199 c 1,22,23
 419 104 419 104 347.5 46 c 128,-1,24
 276 -12 276 -12 211.5 -12 c 128,-1,25
 147 -12 147 -12 112.5 37.5 c 128,-1,26
 78 87 78 87 85.5 174.5 c 128,-1,27
 93 262 93 262 132.5 345.5 c 128,-1,28
 172 429 172 429 241 490 c 128,-1,29
 310 551 310 551 390 551 c 0,30,31
 424 551 424 551 464 537 c 1,32,33
 405 522 405 522 353.5 482 c 128,-1,34
 302 442 302 442 269 391.5 c 128,-1,0
 236 341 236 341 216.5 288.5 c 128,-1,1
EndSplineSet
Substitution2: "Single Substitution lookup 159 subtable" ordfeminine
Substitution2: "'aalt' Access All Alternates lookup 0 subtable" ordfeminine
EndChar

StartChar: aogonek
Encoding: 261 261 143
Width: 600
GlyphClass: 2
Flags: W
HStem: -229 64<385.085 485> -10 59<187.025 338.822> 249 55<204.226 393> 445 66<145.266 358.297>
VStem: 69 90<77.0402 208.087> 299 77<-156.338 -71.9495> 393 85<94.9822 249 304 411.997>
LayerCount: 2
Fore
SplineSet
402 -66.5 m 128,-1,1
 376 -92 376 -92 376 -120 c 0,2,3
 376 -143 376 -143 389 -154 c 128,-1,4
 402 -165 402 -165 432 -165 c 0,5,6
 459 -165 459 -165 493 -159 c 1,7,-1
 485 -223 l 1,8,9
 443 -229 443 -229 421 -229 c 0,10,11
 365 -229 365 -229 332 -203 c 128,-1,12
 299 -177 299 -177 299 -136 c 0,13,14
 299 -91 299 -91 334.5 -56 c 128,-1,15
 370 -21 370 -21 446 6 c 1,16,17
 415 25 415 25 404 60 c 1,18,19
 376 26 376 26 333.5 8 c 128,-1,20
 291 -10 291 -10 239 -10 c 0,21,22
 160 -10 160 -10 114.5 31.5 c 128,-1,23
 69 73 69 73 69 143 c 0,24,25
 69 220 69 220 132.5 262 c 128,-1,26
 196 304 196 304 315 304 c 2,27,-1
 393 304 l 1,28,-1
 393 345 l 2,29,30
 393 398 393 398 361 421.5 c 128,-1,31
 329 445 329 445 268 445 c 0,32,33
 208 445 208 445 131 419 c 1,34,-1
 108 480 l 1,35,36
 201 511 201 511 281 511 c 0,37,38
 377 511 377 511 427.5 468.5 c 128,-1,39
 478 426 478 426 478 350 c 2,40,-1
 478 109 l 2,41,42
 478 80 478 80 488 66 c 128,-1,43
 498 52 498 52 521 46 c 1,44,-1
 500 -11 l 1,45,0
 428 -41 428 -41 402 -66.5 c 128,-1,1
393 249 m 1,46,-1
 317 249 l 2,47,48
 233 249 233 249 196 222.5 c 128,-1,49
 159 196 159 196 159 144 c 0,50,51
 159 49 159 49 260 49 c 0,52,53
 299 49 299 49 334.5 68 c 128,-1,54
 370 87 370 87 393 121 c 1,55,-1
 393 249 l 1,46,-1
EndSplineSet
EndChar

StartChar: aring
Encoding: 229 229 144
Width: 600
GlyphClass: 2
Flags: W
HStem: -17 66<434.566 520.727> -13 71<146.164 229.5> 383 93<247.198 350.045> 522 58<335.47 442.442> 714 59<334.242 441.53>
VStem: 42 85<82.7546 241.012> 248 66<600.313 694.623> 463 66<600.056 694.015>
LayerCount: 2
Fore
SplineSet
346 129 m 1,0,1
 299 58 299 58 250.5 22.5 c 128,-1,2
 202 -13 202 -13 153 -13 c 0,3,4
 102 -13 102 -13 72 24 c 0,5,6
 42 62 42 62 42 124 c 0,7,8
 42 201 42 201 79.5 279.5 c 128,-1,9
 117 358 117 358 178 411 c 0,10,11
 210 439 210 439 254 457.5 c 128,-1,12
 298 476 298 476 330 476 c 0,13,14
 348 476 348 476 356 468 c 128,-1,15
 364 460 364 460 365 446 c 0,16,17
 365 419 365 419 350.5 401 c 128,-1,18
 336 383 336 383 314 383 c 0,19,20
 301 383 301 383 284.5 387.5 c 128,-1,21
 268 392 268 392 246 403 c 1,22,23
 184 342 184 342 155 279 c 0,24,25
 127 219 127 219 127 154 c 0,26,27
 127 152 127 152 127 149 c 0,28,29
 127 106 127 106 144 82 c 128,-1,30
 161 58 161 58 190 58 c 0,31,32
 222 58 222 58 256 91.5 c 128,-1,33
 290 125 290 125 340 207 c 1,34,35
 343 233 343 233 349 279 c 0,36,37
 376 479 376 479 434 479 c 0,38,39
 464 479 464 479 483.5 469 c 128,-1,40
 503 459 503 459 503 445 c 0,41,42
 503 437 503 437 497.5 422.5 c 128,-1,43
 492 408 492 408 483 385 c 2,44,-1
 414 231 l 1,45,-1
 422 105 l 2,46,47
 424 76 424 76 437.5 63 c 128,-1,48
 451 50 451 50 476 49 c 0,49,50
 491 49 491 49 509 56.5 c 128,-1,51
 527 64 527 64 562 86 c 1,52,-1
 587 49 l 1,53,54
 540 13 540 13 507 -2 c 128,-1,55
 474 -17 474 -17 444 -17 c 0,56,57
 397 -17 397 -17 371.5 20.5 c 128,-1,58
 346 58 346 58 346 125 c 2,59,-1
 346 129 l 1,0,1
248 649 m 256,60,61
 248 702 248 702 288.5 737.5 c 128,-1,62
 329 773 329 773 389 773 c 0,63,64
 447 773 447 773 488 736.5 c 128,-1,65
 529 700 529 700 529 649 c 0,66,67
 529 596 529 596 488 559 c 128,-1,68
 447 522 447 522 388 522 c 0,69,70
 330 522 330 522 289 559 c 128,-1,71
 248 596 248 596 248 649 c 256,60,61
314 648 m 256,72,73
 314 620 314 620 336 600 c 128,-1,74
 358 580 358 580 389 580 c 128,-1,75
 420 580 420 580 441.5 599.5 c 128,-1,76
 463 619 463 619 463 648 c 0,77,78
 463 676 463 676 441 695 c 128,-1,79
 419 714 419 714 389 714 c 0,80,81
 357 714 357 714 335.5 695 c 128,-1,82
 314 676 314 676 314 648 c 256,72,73
EndSplineSet
EndChar

StartChar: ae
Encoding: 230 230 146
Width: 600
GlyphClass: 2
Flags: W
HStem: -28 56<383.649 552.355> -10 73<115.959 199.737> 388 94<202.53 290.53> 447 52<397.126 485.366>
VStem: 22 76<84.0502 243.752> 252 76<182 332.887> 495 79<309.503 437.003>
LayerCount: 2
Fore
SplineSet
329 182 m 1,0,1
 414 228 414 228 454.5 279 c 128,-1,2
 495 330 495 330 495 389 c 0,3,4
 495 419 495 419 483.5 433 c 128,-1,5
 472 447 472 447 448 447 c 0,6,7
 400 447 400 447 364 383.5 c 128,-1,8
 328 320 328 320 328 226 c 0,9,10
 328 209 328 209 328.5 200 c 128,-1,11
 329 191 329 191 329 182 c 1,0,1
557 47 m 1,12,-1
 572 1 l 1,13,14
 539 -12 539 -12 504 -20 c 128,-1,15
 469 -28 469 -28 432 -28 c 0,16,17
 370 -28 370 -28 329.5 -1 c 128,-1,18
 289 26 289 26 272 79 c 1,19,20
 241 37 241 37 203 13.5 c 128,-1,21
 165 -10 165 -10 128 -10 c 0,22,23
 78 -10 78 -10 50 27 c 128,-1,24
 22 64 22 64 22 126 c 0,25,26
 22 186 22 186 47.5 255 c 128,-1,27
 73 324 73 324 113 377 c 0,28,29
 156 431 156 431 194 456.5 c 128,-1,30
 232 482 232 482 271 482 c 0,31,32
 292 482 292 482 299 474.5 c 128,-1,33
 306 467 306 467 306 449 c 0,34,35
 306 423 306 423 291 405.5 c 128,-1,36
 276 388 276 388 254 388 c 0,37,38
 244 388 244 388 231.5 391.5 c 128,-1,39
 219 395 219 395 202 404 c 1,40,41
 152 347 152 347 125 282 c 128,-1,42
 98 217 98 217 98 150 c 0,43,44
 98 109 98 109 115 86 c 128,-1,45
 132 63 132 63 162 63 c 0,46,47
 185 63 185 63 209 81 c 128,-1,48
 233 99 233 99 256 133 c 1,49,50
 254 146 254 146 253 162 c 128,-1,51
 252 178 252 178 252 196 c 0,52,53
 252 323 252 323 313 410.5 c 128,-1,54
 374 498 374 498 463 499 c 0,55,56
 515 499 515 499 544.5 470.5 c 128,-1,57
 574 442 574 442 574 392 c 0,58,59
 574 323 574 323 515 257 c 128,-1,60
 456 191 456 191 342 131 c 1,61,62
 351 80 351 80 378.5 54 c 128,-1,63
 406 28 406 28 448 28 c 0,64,65
 474 28 474 28 501 32.5 c 128,-1,66
 528 37 528 37 557 47 c 1,12,-1
EndSplineSet
EndChar

StartChar: b
Encoding: 98 98 148
Width: 600
GlyphClass: 2
Flags: W
LayerCount: 2
Fore
SplineSet
326 764 m 0,0,1
 322 719 322 719 290.5 577 c 128,-1,2
 259 435 259 435 245 357 c 1,3,4
 282 462 282 462 340.5 519.5 c 128,-1,5
 399 577 399 577 461.5 577 c 128,-1,6
 524 577 524 577 564 516 c 128,-1,7
 604 455 604 455 595 360 c 0,8,9
 582 211 582 211 501.5 109 c 128,-1,10
 421 7 421 7 317 7 c 0,11,12
 288 7 288 7 259 16 c 1,13,14
 323 32 323 32 375.5 90.5 c 128,-1,15
 428 149 428 149 455.5 217.5 c 128,-1,16
 483 286 483 286 488 345 c 128,-1,17
 493 404 493 404 476 443.5 c 128,-1,18
 459 483 459 483 416 483 c 128,-1,19
 373 483 373 483 328 431 c 128,-1,20
 283 379 283 379 249.5 294 c 128,-1,21
 216 209 216 209 209 128.5 c 128,-1,22
 202 48 202 48 215 -18 c 1,23,24
 165 -1 165 -1 140 54 c 128,-1,25
 115 109 115 109 121.5 184.5 c 128,-1,26
 128 260 128 260 179.5 475 c 128,-1,27
 231 690 231 690 240 789 c 128,-1,28
 249 888 249 888 246 957 c 1,29,30
 340 921 340 921 326 764 c 0,0,1
EndSplineSet
EndChar

StartChar: c
Encoding: 99 99 149
Width: 600
GlyphClass: 2
Flags: W
LayerCount: 2
Fore
SplineSet
264.5 364.5 m 132,-1,1
 239 297 239 297 232.5 220 c 132,-1,2
 226 143 226 143 247.5 96 c 132,-1,3
 269 49 269 49 312.5 49 c 132,-1,4
 356 49 356 49 400.5 75 c 132,-1,5
 445 101 445 101 478 147 c 5,6,7
 514 142 514 142 512 120 c 5,8,9
 481 70 481 70 438 38 c 132,-1,10
 395 6 395 6 359 -4.5 c 132,-1,11
 323 -15 323 -15 287 -15 c 4,12,13
 210 -15 210 -15 162 45.5 c 132,-1,14
 114 106 114 106 124 221 c 4,15,16
 137 367 137 367 225 472 c 132,-1,17
 313 577 313 577 444 577 c 4,18,19
 516 577 516 577 550 539.5 c 132,-1,20
 584 502 584 502 579.5 452.5 c 132,-1,21
 575 403 575 403 544.5 368 c 132,-1,22
 514 333 514 333 471 333 c 4,23,24
 444 333 444 333 426 342 c 5,25,26
 443 360 443 360 457.5 392.5 c 132,-1,27
 472 425 472 425 475 456 c 4,28,29
 481 525 481 525 424 525 c 4,30,31
 376 525 376 525 333 478.5 c 132,-1,0
 290 432 290 432 264.5 364.5 c 132,-1,1
EndSplineSet
EndChar

StartChar: d
Encoding: 100 100 155
Width: 600
GlyphClass: 2
Flags: W
LayerCount: 2
Fore
SplineSet
214.5 109 m 128,-1,1
 233 73 233 73 278.5 73 c 128,-1,2
 324 73 324 73 366 114.5 c 128,-1,3
 408 156 408 156 437.5 226.5 c 128,-1,4
 467 297 467 297 491 376.5 c 128,-1,5
 515 456 515 456 531 546 c 0,6,7
 560 713 560 713 569 811 c 128,-1,8
 578 909 578 909 574 957 c 1,9,10
 672 924 672 924 657 750 c 0,11,12
 650 679 650 679 598.5 464 c 128,-1,13
 547 249 547 249 538 150 c 128,-1,14
 529 51 529 51 532 -18 c 1,15,16
 478 1 478 1 462 50 c 128,-1,17
 446 99 446 99 452 175 c 1,18,19
 414 89 414 89 349.5 39 c 128,-1,20
 285 -11 285 -11 220.5 -11 c 128,-1,21
 156 -11 156 -11 120.5 39.5 c 128,-1,22
 85 90 85 90 93 188 c 0,23,24
 108 351 108 351 201 456 c 128,-1,25
 294 561 294 561 420 561 c 0,26,27
 455 561 455 561 494 550 c 1,28,29
 426 539 426 539 369.5 500.5 c 128,-1,30
 313 462 313 462 280 410 c 0,31,32
 210 304 210 304 201 202 c 0,33,0
 196 145 196 145 214.5 109 c 128,-1,1
EndSplineSet
EndChar

StartChar: eth
Encoding: 240 240 156
Width: 600
Flags: W
HStem: -21 69<196.656 320.251> 389 67<243.518 388.663> 489 21G<266.5 273.5> 700 20G<364 381.5>
VStem: 78 92<75.1711 271.312> 417 77<206.347 364.25>
LayerCount: 2
Fore
SplineSet
417 353 m 1,0,1
 386 370 386 370 357.5 379.5 c 128,-1,2
 329 389 329 389 306 389 c 0,3,4
 247 389 247 389 208.5 327 c 128,-1,5
 170 265 170 265 170 170 c 0,6,7
 170 105 170 105 190.5 76.5 c 128,-1,8
 211 48 211 48 257 48 c 0,9,10
 323 48 323 48 370 128.5 c 128,-1,11
 417 209 417 209 417 332 c 2,12,-1
 417 353 l 1,0,1
411 428 m 1,13,14
 404 457 404 457 397 480.5 c 128,-1,15
 390 504 390 504 381 527 c 1,16,17
 350 517 350 517 313 503 c 128,-1,18
 276 489 276 489 271 489 c 0,19,20
 262 489 262 489 254 500 c 0,21,22
 246 510 246 510 246 522 c 0,23,24
 246 532 246 532 271.5 544.5 c 128,-1,25
 297 557 297 557 353 575 c 1,26,27
 339 603 339 603 318.5 635.5 c 128,-1,28
 298 668 298 668 298 674 c 0,29,30
 298 688 298 688 326 704 c 128,-1,31
 354 720 354 720 374 720 c 0,32,33
 389 720 389 720 403.5 697.5 c 128,-1,34
 418 675 418 675 444 608 c 1,35,36
 486 621 486 621 509 627 c 128,-1,37
 532 633 532 633 543 633 c 128,-1,38
 554 633 554 633 561.5 621.5 c 128,-1,39
 569 610 569 610 569 593 c 2,40,-1
 569 592 l 2,41,42
 569 581 569 581 534 575 c 0,43,44
 494 566 494 566 464 557 c 1,45,46
 478 517 478 517 486 468.5 c 128,-1,47
 494 420 494 420 494 365 c 0,48,49
 494 202 494 202 420 90.5 c 128,-1,50
 346 -21 346 -21 239 -21 c 0,51,52
 164 -21 164 -21 121 25 c 128,-1,53
 78 71 78 71 78 151 c 0,54,55
 78 267 78 267 150.5 361.5 c 128,-1,56
 223 456 223 456 309 456 c 0,57,58
 335 456 335 456 361 448.5 c 128,-1,59
 387 441 387 441 411 428 c 1,13,14
EndSplineSet
EndChar

StartChar: dcaron
Encoding: 271 271 157
Width: 600
GlyphClass: 2
Flags: W
HStem: -15 71<154.502 263.554 401 473.129> 394 64<180.098 370.538> 691 20G<666.326 742> 703 20G<491.5 509.5>
VStem: 29 90<95.0128 287.896>
LayerCount: 2
Fore
SplineSet
742 702 m 5,0,-1
 652 532 l 5,1,-1
 608 539 l 5,2,-1
 674 711 l 5,3,-1
 742 702 l 5,0,-1
EndSplineSet
Refer: 155 100 N 1 0 0 1 -29 0 0
EndChar

StartChar: dcroat
Encoding: 273 273 158
Width: 600
GlyphClass: 2
Flags: W
HStem: -15 71<174.283 278.717 408.5 478.23> 394 64<198.111 380.31> 526 55<285.316 431 548 667.465> 533.5 44.5<619.027 678.293> 703 20G<497 511>
VStem: 54 86<93.9817 289.467>
LayerCount: 2
Fore
SplineSet
444 581 m 1,0,1
 447 594 447 594 455 621 c 0,2,3
 484 723 484 723 510 723 c 0,4,5
 512 723 512 723 518 722 c 0,6,7
 519 722 519 722 521 721 c 2,8,-1
 569 708 l 2,9,10
 578 705 578 705 584 697.5 c 128,-1,11
 590 690 590 690 590 683 c 0,12,13
 590 671 590 671 569 627 c 0,14,15
 555 599 555 599 548 580 c 1,16,17
 574 579 574 579 596.5 578.5 c 128,-1,18
 619 578 619 578 636 578 c 2,19,-1
 650 578 l 2,20,21
 672 578 672 578 678.5 573.5 c 128,-1,22
 685 569 685 569 685 560 c 0,23,24
 685 542 685 542 668 533.5 c 128,-1,25
 651 525 651 525 618 525 c 128,-1,26
 585 525 585 525 565.5 525.5 c 128,-1,27
 546 526 546 526 527 526 c 1,28,29
 492 436 492 436 473 338.5 c 128,-1,30
 454 241 454 241 454 146 c 0,31,32
 454 98 454 98 458.5 80 c 128,-1,33
 463 62 463 62 472 62 c 0,34,35
 486 62 486 62 538 86 c 0,36,37
 551 93 551 93 558 96 c 1,38,-1
 582 53 l 1,39,40
 532 25 532 25 486.5 7.5 c 128,-1,41
 441 -10 441 -10 420 -10 c 0,42,43
 397 -10 397 -10 386 11 c 128,-1,44
 375 32 375 32 370 97 c 1,45,46
 327 39 327 39 287.5 12 c 128,-1,47
 248 -15 248 -15 204 -15 c 0,48,49
 137 -15 137 -15 95.5 35.5 c 128,-1,50
 54 86 54 86 54 167 c 0,51,52
 54 222 54 222 72 278.5 c 128,-1,53
 90 335 90 335 121 380 c 0,54,55
 149 420 149 420 194 439 c 128,-1,56
 239 458 239 458 305 458 c 0,57,58
 333 458 333 458 359 454 c 128,-1,59
 385 450 385 450 415 444 c 1,60,61
 418 469 418 469 422.5 489 c 128,-1,62
 427 509 427 509 431 526 c 1,63,64
 390 525 390 525 350 523.5 c 128,-1,65
 310 522 310 522 308 522 c 0,66,67
 289 522 289 522 282 528.5 c 128,-1,68
 275 535 275 535 275 550 c 0,69,70
 275 568 275 568 285 575 c 128,-1,71
 295 582 295 582 321 582 c 0,72,73
 322 582 322 582 329 582 c 0,74,75
 364 582 364 582 398 581 c 2,76,-1
 444 581 l 1,0,1
396 368 m 1,77,78
 352 380 352 380 317.5 387 c 128,-1,79
 283 394 283 394 256 394 c 0,80,81
 231 394 231 394 214.5 385.5 c 128,-1,82
 198 377 198 377 185 354 c 0,83,84
 165 323 165 323 152.5 275.5 c 128,-1,85
 140 228 140 228 140 187 c 0,86,87
 140 126 140 126 163.5 91 c 128,-1,88
 187 56 187 56 227 56 c 0,89,90
 285 56 285 56 330.5 141 c 128,-1,91
 376 226 376 226 396 368 c 1,77,78
EndSplineSet
EndChar

StartChar: e
Encoding: 101 101 159
Width: 600
GlyphClass: 2
Flags: W
LayerCount: 2
Fore
SplineSet
408 525 m 0,0,1
 348 525 348 525 300.5 456 c 128,-1,2
 253 387 253 387 231 294 c 1,3,-1
 259 294 l 2,4,5
 312 294 312 294 352 309 c 128,-1,6
 392 324 392 324 415 348 c 0,7,8
 459 394 459 394 465 452 c 0,9,10
 467 485 467 485 453.5 505 c 128,-1,11
 440 525 440 525 408 525 c 0,0,1
403.5 15 m 128,-1,13
 346 -15 346 -15 273.5 -15 c 128,-1,14
 201 -15 201 -15 152.5 49 c 128,-1,15
 104 113 104 113 114 229 c 0,16,17
 126 361 126 361 206 465 c 0,18,19
 245 515 245 515 304 546 c 128,-1,20
 363 577 363 577 431 577 c 0,21,22
 581 577 581 577 569 432 c 0,23,24
 561 345 561 345 489.5 295.5 c 128,-1,25
 418 246 418 246 329 246 c 0,26,27
 270 246 270 246 223 257 c 1,28,29
 222 247 222 247 220 226 c 0,30,31
 204 49 204 49 309 49 c 0,32,33
 408 49 408 49 479 147 c 1,34,35
 515 142 515 142 513 120 c 1,36,12
 461 45 461 45 403.5 15 c 128,-1,13
EndSplineSet
EndChar

StartChar: eogonek
Encoding: 281 281 168
Width: 600
GlyphClass: 2
Flags: W
HStem: -218 64<284.822 384.189> 222 61<167 441> 446 65<233.547 382.746>
VStem: 79 88<130.137 222 283 369.383> 198 77<-145.173 -63.4136> 441 82<283 380.77>
LayerCount: 2
Fore
SplineSet
521 222 m 1,1,-1
 167 222 l 1,2,3
 170 139 170 139 212.5 97.5 c 128,-1,4
 255 56 255 56 320 56 c 0,5,6
 359 56 359 56 391.5 67 c 128,-1,7
 424 78 424 78 461 101 c 1,8,-1
 500 48 l 1,9,10
 454 15 454 15 399 0 c 1,11,12
 327 -29 327 -29 301 -55 c 128,-1,13
 275 -81 275 -81 275 -108 c 0,14,15
 275 -131 275 -131 288 -142.5 c 128,-1,16
 301 -154 301 -154 331 -154 c 0,17,18
 358 -154 358 -154 392 -147 c 1,19,-1
 384 -212 l 1,20,21
 342 -218 342 -218 320 -218 c 0,22,23
 264 -218 264 -218 231 -191.5 c 128,-1,24
 198 -165 198 -165 198 -124 c 0,25,26
 198 -88 198 -88 224 -58 c 0,27,28
 250 -30 250 -30 301 -10 c 1,29,30
 196 -4 196 -4 137.5 66 c 128,-1,31
 79 136 79 136 79 250 c 0,32,33
 79 325 79 325 107 384.5 c 128,-1,34
 135 444 135 444 187 477.5 c 128,-1,35
 239 511 239 511 308 511 c 0,36,37
 408 511 408 511 465.5 445 c 128,-1,38
 523 379 523 379 523 265 c 0,39,0
 523 243 523 243 521 222 c 1,1,-1
441 283 m 1,40,41
 440 362 440 362 405 404 c 128,-1,42
 370 446 370 446 309 446 c 256,43,44
 248 446 248 446 210 404.5 c 128,-1,45
 172 363 172 363 167 283 c 1,46,-1
 441 283 l 1,40,41
EndSplineSet
EndChar

StartChar: f
Encoding: 102 102 169
Width: 600
GlyphClass: 2
Flags: W
LayerCount: 2
Fore
SplineSet
501 548 m 4,0,1
 497 506 497 506 479.5 490 c 132,-1,2
 462 474 462 474 431 474 c 6,3,-1
 347 474 l 5,4,5
 295 258 295 258 278 63 c 4,6,7
 272 4 272 4 272.5 -22.5 c 132,-1,8
 273 -49 273 -49 278 -113 c 5,9,10
 169 -68 169 -68 183 93 c 4,11,12
 199 274 199 274 253 468 c 5,13,14
 202 460 202 460 147 438 c 5,15,16
 147 454 147 454 148 467 c 4,17,18
 152 515 152 515 185 531.5 c 132,-1,19
 218 548 218 548 277 548 c 5,20,21
 394 900 394 900 573 900 c 4,22,23
 632 900 632 900 667 867 c 132,-1,24
 702 834 702 834 698 788 c 132,-1,25
 694 742 694 742 664 710.5 c 132,-1,26
 634 679 634 679 590 679 c 4,27,28
 572 679 572 679 558 686 c 5,29,30
 571 697 571 697 585.5 722.5 c 132,-1,31
 600 748 600 748 602.5 775.5 c 132,-1,32
 605 803 605 803 592.5 822 c 132,-1,33
 580 841 580 841 557 841 c 4,34,35
 451 841 451 841 366 545 c 5,36,37
 463 545 463 545 501 574 c 5,38,39
 502 560 502 560 501 548 c 4,0,1
EndSplineSet
EndChar

StartChar: g
Encoding: 103 103 170
Width: 600
GlyphClass: 2
Flags: W
LayerCount: 2
Fore
SplineSet
449 567 m 0,0,1
 486 567 486 567 487 538 c 1,2,3
 377 515 377 515 296 414.5 c 128,-1,4
 215 314 215 314 207 212 c 0,5,6
 202 156 202 156 219.5 119 c 128,-1,7
 237 82 237 82 283 82 c 128,-1,8
 329 82 329 82 374 132 c 0,9,10
 453 221 453 221 496 412 c 0,11,12
 522 535 522 535 546 572 c 0,13,14
 578 618 578 618 619 633 c 1,15,16
 596 527 596 527 591 473 c 0,17,18
 556 73 556 73 458 -128 c 128,-1,19
 360 -329 360 -329 178 -329 c 0,20,21
 106 -329 106 -329 68 -293.5 c 128,-1,22
 30 -258 30 -258 34 -213 c 128,-1,23
 38 -168 38 -168 65 -136 c 128,-1,24
 92 -104 92 -104 132 -104 c 0,25,26
 153 -104 153 -104 176 -114 c 1,27,28
 159 -125 159 -125 146.5 -148 c 128,-1,29
 134 -171 134 -171 131.5 -199.5 c 128,-1,30
 129 -228 129 -228 148.5 -247.5 c 128,-1,31
 168 -267 168 -267 205.5 -267 c 128,-1,32
 243 -267 243 -267 278.5 -244.5 c 128,-1,33
 314 -222 314 -222 348 -174 c 0,34,35
 422 -70 422 -70 450 183 c 1,36,37
 414 97 414 97 352 45 c 128,-1,38
 290 -7 290 -7 231 -7 c 0,39,40
 155 -7 155 -7 122 51.5 c 128,-1,41
 89 110 89 110 97 201 c 0,42,43
 108 328 108 328 200 443 c 0,44,45
 245 498 245 498 310 532.5 c 128,-1,46
 375 567 375 567 449 567 c 0,0,1
EndSplineSet
EndChar

StartChar: gcommaaccent
Encoding: 291 291 173
Width: 600
GlyphClass: 2
Flags: W
HStem: -201 64<170.366 414.384> 17 69<194.304 419.964> 167 53<212.116 364.63> 452 59<207.542 367.98> 752 20G<290.901 351>
VStem: 66 76<-99.4033 -50> 79 86<263.861 409.857> 109 79<94.7806 168.356> 235 109<583.47 660.497> 405 87<260.444 409.961> 454 85<-103.108 -9.25671>
LayerCount: 2
Fore
SplineSet
251 583 m 128,-1,1
 235 598 235 598 235 618 c 256,2,3
 235 638 235 638 250 671 c 2,4,-1
 301 772 l 1,5,-1
 351 772 l 1,6,-1
 322 661 l 1,7,8
 344 645 344 645 344 618 c 0,9,10
 344 596 344 596 328.5 582 c 128,-1,11
 313 568 313 568 290 568 c 256,12,0
 267 568 267 568 251 583 c 128,-1,1
554 478 m 1,13,14
 524 468 524 468 489 466 c 128,-1,15
 454 464 454 464 400 464 c 1,16,17
 492 424 492 424 492 337 c 0,18,19
 492 261 492 261 439 214 c 128,-1,20
 386 167 386 167 294 167 c 0,21,22
 247 167 247 167 215 178 c 1,23,24
 203 169 203 169 195.5 155.5 c 128,-1,25
 188 142 188 142 188 129 c 0,26,27
 188 86 188 86 258 86 c 2,28,-1
 353 86 l 2,29,30
 405 86 405 86 447.5 68.5 c 128,-1,31
 490 51 490 51 514.5 20 c 128,-1,32
 539 -11 539 -11 539 -49 c 0,33,34
 539 -122 539 -122 473.5 -161.5 c 128,-1,35
 408 -201 408 -201 288 -201 c 0,36,37
 166 -201 166 -201 116 -165 c 128,-1,38
 66 -129 66 -129 66 -50 c 1,39,-1
 142 -50 l 1,40,41
 142 -81 142 -81 154.5 -100 c 128,-1,42
 167 -119 167 -119 198.5 -128 c 128,-1,43
 230 -137 230 -137 288 -137 c 0,44,45
 373 -137 373 -137 413.5 -116 c 128,-1,46
 454 -95 454 -95 454 -54 c 0,47,48
 454 -20 454 -20 421 -1.5 c 128,-1,49
 388 17 388 17 336 17 c 2,50,-1
 242 17 l 2,51,52
 177 17 177 17 143 44 c 128,-1,53
 109 71 109 71 109 112 c 0,54,55
 109 136 109 136 124 159 c 128,-1,56
 139 182 139 182 167 200 c 1,57,58
 122 222 122 222 100.5 255.5 c 128,-1,59
 79 289 79 289 79 337 c 0,60,61
 79 387 79 387 105.5 426.5 c 128,-1,62
 132 466 132 466 179.5 488.5 c 128,-1,63
 227 511 227 511 289 511 c 0,64,65
 379 511 379 511 426 520.5 c 128,-1,66
 473 530 473 530 529 553 c 1,67,-1
 554 478 l 1,13,14
196 421 m 128,-1,69
 165 390 165 390 165 337 c 256,70,71
 165 284 165 284 196.5 252 c 128,-1,72
 228 220 228 220 290 220 c 0,73,74
 346 220 346 220 375.5 251 c 128,-1,75
 405 282 405 282 405 338 c 0,76,77
 405 452 405 452 288 452 c 0,78,68
 227 452 227 452 196 421 c 128,-1,69
EndSplineSet
EndChar

StartChar: h
Encoding: 104 104 175
Width: 600
GlyphClass: 2
Flags: W
LayerCount: 2
Fore
SplineSet
359.5 499.5 m 128,-1,1
 433 577 433 577 492 577 c 128,-1,2
 551 577 551 577 573 540.5 c 128,-1,3
 595 504 595 504 589.5 441.5 c 128,-1,4
 584 379 584 379 554.5 266 c 128,-1,5
 525 153 525 153 520.5 101.5 c 128,-1,6
 516 50 516 50 527 26.5 c 128,-1,7
 538 3 538 3 567 -14 c 1,8,9
 555 -15 555 -15 531 -15 c 0,10,11
 468 -15 468 -15 440 11.5 c 128,-1,12
 412 38 412 38 418 102 c 0,13,14
 421 139 421 139 450.5 251.5 c 128,-1,15
 480 364 480 364 484 417 c 0,16,17
 490 483 490 483 445 483 c 0,18,19
 419 483 419 483 384 454.5 c 128,-1,20
 349 426 349 426 315 377.5 c 128,-1,21
 281 329 281 329 254 254.5 c 128,-1,22
 227 180 227 180 220.5 107.5 c 128,-1,23
 214 35 214 35 217 0 c 1,24,25
 193 -2 193 -2 191 -2 c 0,26,27
 144 -2 144 -2 123.5 18 c 128,-1,28
 103 38 103 38 107 80.5 c 128,-1,29
 111 123 111 123 139 244 c 0,30,31
 224 616 224 616 241 809 c 0,32,33
 248 896 248 896 239 926 c 1,34,35
 294 905 294 905 313.5 864 c 128,-1,36
 333 823 333 823 327 751 c 0,37,38
 322 701 322 701 289 541 c 128,-1,39
 256 381 256 381 243 309 c 1,40,0
 286 422 286 422 359.5 499.5 c 128,-1,1
EndSplineSet
EndChar

StartChar: hbar
Encoding: 295 295 176
Width: 600
GlyphClass: 2
Flags: W
HStem: 0 21G<100 184 417 501> 0 21G<100 184 417 501> 447 64<258.273 394.971> 567 65<19 100 184 353> 690 20G<100 184>
VStem: 100 84<0 390.41 431 567 632 701> 417 84<0 424.245>
LayerCount: 2
Fore
SplineSet
501 363 m 2,1,-1
 501 0 l 1,2,-1
 417 0 l 1,3,-1
 417 362 l 2,4,5
 417 407 417 407 395 427 c 128,-1,6
 373 447 373 447 325 447 c 0,7,8
 284 447 284 447 246 422.5 c 128,-1,9
 208 398 208 398 184 365 c 1,10,-1
 184 0 l 1,11,-1
 100 0 l 1,12,-1
 100 567 l 1,13,-1
 19 567 l 1,14,-1
 19 632 l 1,15,-1
 100 632 l 1,16,-1
 100 701 l 1,17,-1
 184 710 l 1,18,-1
 184 632 l 1,19,-1
 353 632 l 1,20,-1
 353 567 l 1,21,-1
 184 567 l 1,22,-1
 184 431 l 1,23,24
 215 469 215 469 260 490 c 128,-1,25
 305 511 305 511 353 511 c 0,26,0
 501 511 501 511 501 363 c 2,1,-1
EndSplineSet
EndChar

StartChar: hcircumflex
Encoding: 293 293 177
Width: 600
GlyphClass: 2
Flags: W
HStem: -24 62<423 521.123> 388 68<368.408 465.5> 699 20G<258 298>
VStem: 377 84<38.4551 207.029> 426 95<285.789 403.5>
LayerCount: 2
Fore
SplineSet
613 811 m 5,0,-1
 569 770 l 5,1,-1
 470 847 l 5,2,-1
 335 770 l 5,3,-1
 310 811 l 5,4,-1
 460 912 l 5,5,-1
 513 912 l 5,6,-1
 613 811 l 5,0,-1
EndSplineSet
Refer: 175 104 N 1 0 0 1 0 0 0
EndChar

StartChar: i
Encoding: 105 105 178
Width: 600
GlyphClass: 2
Flags: WO
LayerCount: 2
Fore
SplineSet
350 -11 m 4,0,1
 305 -10 305 -10 277 52 c 4,2,3
 260 94 260 94 266 152.5 c 132,-1,4
 272 211 272 211 299.5 320.5 c 132,-1,5
 327 430 327 430 333.5 491 c 132,-1,6
 340 552 340 552 337 585 c 5,7,8
 355 587 355 587 366 587 c 4,9,10
 411 587 411 587 429 567 c 132,-1,11
 447 547 447 547 442 501 c 4,12,13
 440 486 440 486 400 344 c 4,14,15
 373 246 373 246 360 131 c 4,16,17
 357 101 357 101 383 80 c 132,-1,18
 409 59 409 59 464 77 c 5,19,20
 461 51 461 51 451.5 32 c 132,-1,21
 442 13 442 13 429.5 5 c 132,-1,22
 417 -3 417 -3 402.5 -8 c 132,-1,23
 388 -13 388 -13 374.5 -12 c 132,-1,24
 361 -11 361 -11 350 -11 c 4,0,1
438 685 m 4,25,26
 355 685 355 685 361 742 c 4,27,28
 363 762 363 762 381 798 c 5,29,30
 404 802 404 802 420 802 c 4,31,32
 503 802 503 802 497 745 c 4,33,34
 495 725 495 725 476 689 c 5,35,36
 454 685 454 685 438 685 c 4,25,26
EndSplineSet
Substitution2: "'locl' Localized Forms in Latin lookup 21 subtable" i.loclTRK
Substitution2: "'locl' Localized Forms in Latin lookup 19 subtable" i.loclTRK
Substitution2: "'locl' Localized Forms in Latin lookup 17 subtable" i.loclTRK
Substitution2: "'locl' Localized Forms in Latin lookup 14 subtable" i.loclTRK
Substitution2: "'locl' Localized Forms in Latin lookup 13 subtable" i.loclTRK
Substitution2: "'aalt' Access All Alternates lookup 0 subtable" i.loclTRK
EndChar

StartChar: dotlessi
Encoding: 305 305 179
Width: 600
GlyphClass: 2
Flags: W
HStem: -14 55<328.478 489.144> 441 20G<325.5 379>
VStem: 227 70<74.4971 192>
LayerCount: 2
Fore
SplineSet
227 192 m 1,0,1
 175 154 175 154 123.5 120 c 128,-1,2
 72 86 72 86 20 55 c 1,3,-1
 -7 91 l 1,4,5
 44 121 44 121 102 159.5 c 128,-1,6
 160 198 160 198 228 248 c 1,7,8
 230 256 230 256 233 272 c 0,9,10
 277 461 277 461 374 461 c 0,11,12
 384 461 384 461 387 457 c 0,13,14
 390 454 390 454 390 441 c 0,15,16
 390 404 390 404 369 364 c 128,-1,17
 348 324 348 324 302 281 c 1,18,19
 300 254 300 254 298.5 230 c 128,-1,20
 297 206 297 206 297 184 c 0,21,22
 297 104 297 104 320 72 c 0,23,24
 342 41 342 41 395 41 c 0,25,26
 397 41 397 41 398 41 c 0,27,28
 433 41 433 41 474 53.5 c 128,-1,29
 515 66 515 66 563 93 c 1,30,-1
 587 56 l 1,31,32
 536 23 536 23 480.5 4.5 c 128,-1,33
 425 -14 425 -14 374 -14 c 0,34,35
 297 -14 297 -14 262 30 c 128,-1,36
 227 74 227 74 227 171 c 2,37,-1
 227 192 l 1,0,1
EndSplineSet
EndChar

StartChar: ij
Encoding: 307 307 186
Width: 600
Flags: W
HStem: -201 62<242.177 273.213> 0 64<48 142 223 319> 439 62<53 142 223 418> 622 112<141.018 227.951 405.018 491.951>
VStem: 124 122<638.502 718.013> 142 81<64 439> 388 122<638.502 718.013> 418 82<-30.0898 439>
LayerCount: 2
Fore
SplineSet
228.5 718.5 m 128,-1,1
 246 703 246 703 246 678 c 256,2,3
 246 653 246 653 228.5 637.5 c 128,-1,4
 211 622 211 622 184 622 c 256,5,6
 157 622 157 622 140.5 638 c 128,-1,7
 124 654 124 654 124 678 c 0,8,9
 124 703 124 703 140.5 718.5 c 128,-1,10
 157 734 157 734 184 734 c 256,11,0
 211 734 211 734 228.5 718.5 c 128,-1,1
492.5 718.5 m 128,-1,13
 510 703 510 703 510 678 c 256,14,15
 510 653 510 653 492.5 637.5 c 128,-1,16
 475 622 475 622 448 622 c 256,17,18
 421 622 421 622 404.5 638 c 128,-1,19
 388 654 388 654 388 678 c 0,20,21
 388 703 388 703 404.5 718.5 c 128,-1,22
 421 734 421 734 448 734 c 256,23,12
 475 734 475 734 492.5 718.5 c 128,-1,13
500 52 m 2,24,25
 500 -44 500 -44 431.5 -104 c 128,-1,26
 363 -164 363 -164 245 -201 c 1,27,-1
 220 -139 l 1,28,29
 311 -106 311 -106 364.5 -65 c 128,-1,30
 418 -24 418 -24 418 48 c 2,31,-1
 418 439 l 1,32,-1
 223 439 l 1,33,-1
 223 64 l 1,34,-1
 319 64 l 1,35,-1
 319 0 l 1,36,-1
 48 0 l 1,37,-1
 48 64 l 1,38,-1
 142 64 l 1,39,-1
 142 439 l 1,40,-1
 53 439 l 1,41,-1
 53 501 l 1,42,-1
 500 501 l 1,43,-1
 500 52 l 2,24,25
EndSplineSet
EndChar

StartChar: iogonek
Encoding: 303 303 188
Width: 600
GlyphClass: 2
Flags: W
HStem: -218 64<252.822 352.189> 0 64<121 271 367 515> 437 64<126 283> 622 112<257.018 343.466>
VStem: 166 77<-145.173 -60.7867> 240 121<638.502 718.013> 283 84<64 437>
LayerCount: 2
Fore
SplineSet
256.5 638 m 128,-1,1
 240 654 240 654 240 678 c 0,2,3
 240 703 240 703 256.5 718.5 c 128,-1,4
 273 734 273 734 300 734 c 256,5,6
 327 734 327 734 344 718.5 c 128,-1,7
 361 703 361 703 361 678 c 256,8,9
 361 653 361 653 344 637.5 c 128,-1,10
 327 622 327 622 300 622 c 256,11,0
 273 622 273 622 256.5 638 c 128,-1,1
515 64 m 1,12,-1
 515 0 l 1,13,-1
 367 0 l 1,14,15
 295 -29 295 -29 269 -55 c 128,-1,16
 243 -81 243 -81 243 -108 c 0,17,18
 243 -131 243 -131 256 -142.5 c 128,-1,19
 269 -154 269 -154 299 -154 c 0,20,21
 326 -154 326 -154 360 -147 c 1,22,-1
 352 -212 l 1,23,24
 310 -218 310 -218 288 -218 c 0,25,26
 232 -218 232 -218 199 -191.5 c 128,-1,27
 166 -165 166 -165 166 -124 c 0,28,29
 166 -48 166 -48 271 0 c 1,30,-1
 121 0 l 1,31,-1
 121 64 l 1,32,-1
 283 64 l 1,33,-1
 283 437 l 1,34,-1
 126 437 l 1,35,-1
 126 501 l 1,36,-1
 367 501 l 1,37,-1
 367 64 l 1,38,-1
 515 64 l 1,12,-1
EndSplineSet
EndChar

StartChar: j
Encoding: 106 106 190
Width: 600
GlyphClass: 2
Flags: W
LayerCount: 2
Fore
SplineSet
468.5 564.5 m 128,-1,1
 485 546 485 546 480 493 c 128,-1,2
 475 440 475 440 467 375.5 c 128,-1,3
 459 311 459 311 443 225.5 c 128,-1,4
 427 140 427 140 407 65 c 128,-1,5
 387 -10 387 -10 356 -85 c 128,-1,6
 325 -160 325 -160 288.5 -213.5 c 128,-1,7
 252 -267 252 -267 201 -300.5 c 128,-1,8
 150 -334 150 -334 94.5 -334 c 128,-1,9
 39 -334 39 -334 5.5 -300.5 c 128,-1,10
 -28 -267 -28 -267 -24 -220.5 c 128,-1,11
 -20 -174 -20 -174 10 -141 c 128,-1,12
 40 -108 40 -108 84 -108 c 0,13,14
 102 -108 102 -108 116 -115 c 1,15,16
 76 -150 76 -150 71 -207 c 0,17,18
 68 -237 68 -237 79.5 -253.5 c 128,-1,19
 91 -270 91 -270 112 -270 c 0,20,21
 166 -270 166 -270 212 -205.5 c 128,-1,22
 258 -141 258 -141 288 -36 c 0,23,24
 346 163 346 163 368 412 c 0,25,26
 374 483 374 483 377 581 c 1,27,28
 395 583 395 583 411 583 c 0,29,0
 452 583 452 583 468.5 564.5 c 128,-1,1
466 683 m 0,30,31
 382 683 382 683 387 740 c 0,32,33
 388 760 388 760 407 796 c 1,34,35
 429 800 429 800 445 800 c 0,36,37
 529 800 529 800 524 743 c 0,38,39
 522 723 522 723 504 687 c 1,40,41
 482 683 482 683 466 683 c 0,30,31
EndSplineSet
EndChar

StartChar: uni0237
Encoding: 567 567 191
Width: 600
GlyphClass: 2
Flags: W
HStem: -201 61<108.393 187.906> 437 64<142 361>
VStem: 361 84<-15.5391 437>
LayerCount: 2
Fore
SplineSet
445 80 m 2,0,1
 445 -41 445 -41 360.5 -108 c 128,-1,2
 276 -175 276 -175 110 -201 c 1,3,-1
 96 -140 l 1,4,5
 223 -120 223 -120 292 -70 c 128,-1,6
 361 -20 361 -20 361 75 c 2,7,-1
 361 437 l 1,8,-1
 142 437 l 1,9,-1
 142 501 l 1,10,-1
 445 501 l 1,11,-1
 445 80 l 2,0,1
EndSplineSet
EndChar

StartChar: k
Encoding: 107 107 193
Width: 600
GlyphClass: 2
Flags: W
LayerCount: 2
Fore
SplineSet
331.5 515.5 m 128,-1,1
 396 579 396 579 451.5 579 c 128,-1,2
 507 579 507 579 535.5 545 c 128,-1,3
 564 511 564 511 558.5 449.5 c 128,-1,4
 553 388 553 388 513.5 339.5 c 128,-1,5
 474 291 474 291 412 268 c 1,6,-1
 421 231 l 2,7,8
 444 128 444 128 498.5 27 c 128,-1,9
 553 -74 553 -74 588 -111 c 1,10,11
 561 -120 561 -120 536.5 -120 c 128,-1,12
 512 -120 512 -120 488 -107.5 c 128,-1,13
 464 -95 464 -95 446.5 -79.5 c 128,-1,14
 429 -64 429 -64 412 -30.5 c 128,-1,15
 395 3 395 3 385 26 c 128,-1,16
 375 49 375 49 361 96 c 0,17,18
 347 145 347 145 321 244 c 1,19,20
 308 243 308 243 283 243 c 1,21,22
 278 248 278 248 280 275 c 1,23,24
 325 276 325 276 361.5 293 c 128,-1,25
 398 310 398 310 418 336 c 0,26,27
 461 389 461 389 466 443 c 0,28,29
 468 470 468 470 457 487.5 c 128,-1,30
 446 505 446 505 422 505 c 0,31,32
 380 505 380 505 332 449.5 c 128,-1,33
 284 394 284 394 246.5 297 c 128,-1,34
 209 200 209 200 200 94 c 0,35,36
 195 35 195 35 197 0 c 1,37,38
 174 -2 174 -2 171 -2 c 0,39,40
 124 -2 124 -2 103 18 c 128,-1,41
 82 38 82 38 86 80.5 c 128,-1,42
 90 123 90 123 117 244 c 0,43,44
 204 616 204 616 221 809 c 0,45,46
 228 896 228 896 219 926 c 1,47,48
 275 905 275 905 294.5 864 c 128,-1,49
 314 823 314 823 308 751 c 0,50,51
 303 701 303 701 269.5 541 c 128,-1,52
 236 381 236 381 223 309 c 1,53,0
 267 452 267 452 331.5 515.5 c 128,-1,1
EndSplineSet
EndChar

StartChar: kgreenlandic
Encoding: 312 312 195
Width: 600
GlyphClass: 2
Flags: W
HStem: 0 21G<100 184 433.743 563> 0 21G<100 184 433.743 563> 481 20G<100 184 406.914 536>
VStem: 100 84<0 501>
LayerCount: 2
Fore
SplineSet
184 0 m 1,0,-1
 100 0 l 1,1,-1
 100 501 l 1,2,-1
 184 501 l 1,3,-1
 184 0 l 1,0,-1
297 274 m 1,4,-1
 563 0 l 1,5,-1
 453 0 l 1,6,-1
 194 269 l 1,7,-1
 427 501 l 1,8,-1
 536 501 l 1,9,-1
 297 274 l 1,4,-1
EndSplineSet
EndChar

StartChar: l
Encoding: 108 108 196
Width: 600
GlyphClass: 2
Flags: W
LayerCount: 2
Fore
SplineSet
258 73 m 0,0,1
 259 89 259 89 262 124.5 c 128,-1,2
 265 160 265 160 322 428 c 128,-1,3
 379 696 379 696 387.5 796 c 128,-1,4
 396 896 396 896 387 926 c 1,5,6
 441 905 441 905 460.5 864 c 128,-1,7
 480 823 480 823 475 765 c 128,-1,8
 470 707 470 707 420 465 c 128,-1,9
 370 223 370 223 357 75 c 0,10,11
 354 43 354 43 353 -15 c 1,12,13
 298 -11 298 -11 277 11 c 0,14,15
 260 29 260 29 258 73 c 0,0,1
EndSplineSet
EndChar

StartChar: lcaron
Encoding: 318 318 198
Width: 600
GlyphClass: 2
Flags: W
HStem: -14.5273 63.0693<326.91 512.769> 691 20G<512.326 588> 721.364 50.4687<406.373 469.054>
VStem: 196.605 86.3896<220.54 263.943 303.023 429.15> 482.183 47.2625<575.237 716.023>
LayerCount: 2
Fore
SplineSet
588 702 m 5,0,-1
 498 532 l 5,1,-1
 454 539 l 5,2,-1
 520 711 l 5,3,-1
 588 702 l 5,0,-1
EndSplineSet
Refer: 196 108 N 1 0 0 1 0 0 0
EndChar

StartChar: lslash
Encoding: 322 322 201
Width: 600
GlyphClass: 2
Flags: W
HStem: -13 63<310.103 488.55> 645 60<346.827 424.383>
VStem: 188 75<99.9729 226> 434 92<547.76 633.135>
LayerCount: 2
Fore
SplineSet
48 177 m 1,0,-1
 24 223 l 1,1,2
 64 238 64 238 104 252 c 128,-1,3
 144 266 144 266 186 279 c 1,4,5
 198 463 198 463 247.5 584 c 128,-1,6
 297 705 297 705 354 705 c 0,7,8
 377 705 377 705 409.5 693 c 128,-1,9
 442 681 442 681 480 659 c 0,10,11
 506 645 506 645 516.5 633.5 c 128,-1,12
 527 622 527 622 526 610 c 0,13,14
 526 564 526 564 449.5 467.5 c 128,-1,15
 373 371 373 371 265 300 c 1,16,17
 293 310 293 310 330 319.5 c 128,-1,18
 367 329 367 329 447 346 c 1,19,-1
 462 299 l 1,20,21
 395 282 395 282 284 252 c 2,22,-1
 264 247 l 1,23,-1
 263 229 l 1,24,25
 263 126 263 126 292 88 c 128,-1,26
 321 50 321 50 397 50 c 0,27,28
 439 50 439 50 482 60 c 0,29,30
 524 70 524 70 566 88 c 1,31,-1
 587 50 l 1,32,33
 529 19 529 19 467.5 3 c 128,-1,34
 406 -13 406 -13 346 -13 c 0,35,36
 260 -13 260 -13 224 38 c 128,-1,37
 188 89 188 89 188 214 c 2,38,-1
 188 226 l 1,39,40
 158 216 158 216 123 204 c 128,-1,41
 88 192 88 192 48 177 c 1,0,-1
264 362 m 1,42,43
 336 424 336 424 385 499.5 c 128,-1,44
 434 575 434 575 434 604 c 0,45,46
 434 618 434 618 414.5 631.5 c 128,-1,47
 395 645 395 645 375 645 c 0,48,49
 349 645 349 645 314 561.5 c 128,-1,50
 279 478 279 478 264 362 c 1,42,43
EndSplineSet
EndChar

StartChar: m
Encoding: 109 109 202
Width: 600
GlyphClass: 2
Flags: W
LayerCount: 2
Fore
SplineSet
389 259 m 256,0,1
 366 186 366 186 360.5 121 c 128,-1,2
 355 56 355 56 356 0 c 1,3,4
 332 -2 332 -2 327 -2 c 0,5,6
 248 -2 248 -2 254 83 c 0,7,8
 256 108 256 108 288 237 c 0,9,10
 318 360 318 360 324 422 c 0,11,12
 329 483 329 483 287 483 c 0,13,14
 254 483 254 483 196 373 c 0,15,16
 137 263 137 263 123 106 c 0,17,18
 119 56 119 56 119 0 c 1,19,20
 96 -2 96 -2 91 -2 c 0,21,22
 13 -2 13 -2 18 83 c 0,23,24
 19 94 19 94 50 232 c 256,25,26
 81 370 81 370 88 450 c 0,27,28
 95 531 95 531 85 598 c 1,29,30
 138 575 138 575 156 532 c 128,-1,31
 174 489 174 489 168 426 c 0,32,33
 165 394 165 394 155 345 c 1,34,35
 213 490 213 490 231 511 c 0,36,37
 286 577 286 577 332 577 c 0,38,39
 435 577 435 577 420 404 c 1,40,41
 480 521 480 521 490 530 c 0,42,43
 538 577 538 577 567 577 c 0,44,45
 623 577 623 577 643 540 c 0,46,47
 663 504 663 504 658 442 c 0,48,49
 652 379 652 379 624 266 c 256,50,51
 596 153 596 153 592 102 c 0,52,53
 587 50 587 50 597 26 c 0,54,55
 607 3 607 3 634 -14 c 1,56,57
 622 -15 622 -15 600 -15 c 0,58,59
 542 -15 542 -15 516 11.5 c 128,-1,60
 490 38 490 38 496 102 c 0,61,62
 499 139 499 139 527 251.5 c 128,-1,63
 555 364 555 364 559 417 c 0,64,65
 565 483 565 483 523 483 c 0,66,67
 499 483 499 483 479 455 c 1,68,69
 442 382 442 382 441 380 c 0,70,71
 412 332 412 332 389 259 c 256,0,1
EndSplineSet
EndChar

StartChar: n
Encoding: 110 110 203
Width: 600
GlyphClass: 2
Flags: W
LayerCount: 2
Fore
SplineSet
574 435 m 0,0,1
 570 389 570 389 541 272.5 c 128,-1,2
 512 156 512 156 507 103 c 128,-1,3
 502 50 502 50 512.5 26.5 c 128,-1,4
 523 3 523 3 553 -14 c 1,5,6
 540 -15 540 -15 516 -15 c 0,7,8
 450 -15 450 -15 424 10.5 c 128,-1,9
 398 36 398 36 404 102 c 0,10,11
 407 139 407 139 436.5 251.5 c 128,-1,12
 466 364 466 364 470 417 c 0,13,14
 476 483 476 483 437 483 c 0,15,16
 374 483 374 483 296.5 370 c 128,-1,17
 219 257 219 257 206 98 c 0,18,19
 200 35 200 35 203 0 c 1,20,21
 177 -2 177 -2 172 -2 c 0,22,23
 86 -2 86 -2 93 84 c 0,24,25
 95 104 95 104 127.5 238 c 128,-1,26
 160 372 160 372 166.5 451.5 c 128,-1,27
 173 531 173 531 163 598 c 1,28,29
 219 575 219 575 238.5 532.5 c 128,-1,30
 258 490 258 490 253 435.5 c 128,-1,31
 248 381 248 381 230 309 c 1,32,33
 272 422 272 422 348 499.5 c 128,-1,34
 424 577 424 577 484 577 c 0,35,36
 586 577 586 577 574 435 c 0,0,1
EndSplineSet
EndChar

StartChar: napostrophe
Encoding: 329 329 205
Width: 600
GlyphClass: 2
Flags: W
HStem: 0 21G<109 193 426 510> 0 21G<109 193 426 510> 447 64<266.148 397.05> 481 20G<109 182.972> 507 21G<1 60.8795> 694 20G<51.5 74.5>
VStem: 8 110<621.348 699.045> 109 84<0 390.057> 109 72<430 501> 426 84<0 420.668>
LayerCount: 2
Fore
SplineSet
102 699.5 m 128,-1,1
 118 685 118 685 118 663 c 0,2,3
 118 652 118 652 112.5 636.5 c 128,-1,4
 107 621 107 621 92 590 c 2,5,-1
 51 507 l 1,6,-1
 1 507 l 1,7,-1
 31 620 l 1,8,9
 8 639 8 639 8 663 c 0,10,11
 8 685 8 685 24 699.5 c 128,-1,12
 40 714 40 714 63 714 c 256,13,0
 86 714 86 714 102 699.5 c 128,-1,1
109 501 m 1,14,-1
 181 501 l 1,15,-1
 188 430 l 1,16,17
 219 468 219 468 266.5 489.5 c 128,-1,18
 314 511 314 511 362 511 c 0,19,20
 510 511 510 511 510 363 c 2,21,-1
 510 0 l 1,22,-1
 426 0 l 1,23,-1
 426 304 l 2,24,25
 426 360 426 360 419.5 389.5 c 128,-1,26
 413 419 413 419 394 433 c 128,-1,27
 375 447 375 447 336 447 c 0,28,29
 293 447 293 447 255 422.5 c 128,-1,30
 217 398 217 398 193 364 c 1,31,-1
 193 0 l 1,32,-1
 109 0 l 1,33,-1
 109 501 l 1,14,-1
EndSplineSet
Ligature2: "'locl' Localized Forms in Latin lookup 22 subtable" quoteright n
Ligature2: "'locl' Localized Forms in Latin lookup 22 subtable" quotesingle n
EndChar

StartChar: eng
Encoding: 331 331 208
Width: 600
Flags: W
HStem: 0 21G<100 184> 0 21G<100 184> 447 64<257.128 387.792> 481 20G<100 173.972>
VStem: 100 84<0 390.41> 100 72<430 501> 417 84<-84.666 420.668>
LayerCount: 2
Fore
SplineSet
484.5 -83.5 m 128,-1,1
 468 -125 468 -125 435.5 -150.5 c 128,-1,2
 403 -176 403 -176 346 -200 c 1,3,-1
 315 -142 l 1,4,5
 354 -124 354 -124 375 -107.5 c 128,-1,6
 396 -91 396 -91 406.5 -61 c 128,-1,7
 417 -31 417 -31 417 22 c 2,8,-1
 417 304 l 2,9,10
 417 360 417 360 410.5 389.5 c 128,-1,11
 404 419 404 419 384.5 433 c 128,-1,12
 365 447 365 447 325 447 c 0,13,14
 284 447 284 447 246 422.5 c 128,-1,15
 208 398 208 398 184 365 c 1,16,-1
 184 0 l 1,17,-1
 100 0 l 1,18,-1
 100 501 l 1,19,-1
 172 501 l 1,20,-1
 179 430 l 1,21,22
 210 468 210 468 257.5 489.5 c 128,-1,23
 305 511 305 511 353 511 c 0,24,25
 501 511 501 511 501 363 c 2,26,-1
 501 28 l 2,27,0
 501 -42 501 -42 484.5 -83.5 c 128,-1,1
EndSplineSet
EndChar

StartChar: o
Encoding: 111 111 210
Width: 600
GlyphClass: 2
Flags: W
LayerCount: 2
Fore
SplineSet
486 468.5 m 128,-1,1
 466 511 466 511 421 511 c 128,-1,2
 376 511 376 511 327 466.5 c 128,-1,3
 278 422 278 422 245.5 356.5 c 128,-1,4
 213 291 213 291 207 220.5 c 128,-1,5
 201 150 201 150 223.5 98.5 c 128,-1,6
 246 47 246 47 300 47 c 0,7,8
 377 47 377 47 433 139 c 128,-1,9
 489 231 489 231 497.5 328.5 c 128,-1,0
 506 426 506 426 486 468.5 c 128,-1,1
468 578 m 0,10,11
 535 566 535 566 568 516 c 0,12,13
 606 457 606 457 597 357 c 0,14,15
 588 250 588 250 537 153 c 0,16,17
 483 51 483 51 391 8 c 0,18,19
 342 -15 342 -15 285 -15 c 0,20,21
 205 -15 205 -15 150 52 c 0,22,23
 88 130 88 130 107 246 c 0,24,25
 129 375 129 375 198 467 c 0,26,27
 304 608 304 608 468 578 c 0,10,11
EndSplineSet
Substitution2: "Single Substitution lookup 159 subtable" ordmasculine
Substitution2: "'aalt' Access All Alternates lookup 0 subtable" ordmasculine
EndChar

StartChar: oslash
Encoding: 248 248 218
Width: 600
GlyphClass: 2
Flags: W
HStem: -20 68<206.751 326.999> 420 64<271.047 387.499> 441 20G<598.75 602.25>
LayerCount: 2
Fore
SplineSet
178 122 m 1,0,1
 186 87 186 87 207 68 c 128,-1,2
 228 49 228 49 261 48 c 0,3,4
 319 48 319 48 365.5 107 c 128,-1,5
 412 166 412 166 412 238 c 0,6,7
 412 248 412 248 411 256.5 c 128,-1,8
 410 265 410 265 409 273 c 1,9,-1
 178 122 l 1,0,1
32 23 m 1,10,-1
 28 20 l 2,11,12
 5 5 5 5 -1 4 c 0,13,14
 -4 4 -4 4 -7.5 5 c 128,-1,15
 -11 6 -11 6 -13 7 c 2,16,-1
 -30 23 l 1,17,18
 -30 23 -30 23 -31 26 c 256,19,20
 -32 29 -32 29 -32 31 c 0,21,22
 -32 36 -32 36 -25.5 43 c 128,-1,23
 -19 50 -19 50 -7 59 c 2,24,-1
 79 113 l 1,25,26
 78 125 78 125 77 134.5 c 128,-1,27
 76 144 76 144 76 151 c 0,28,29
 76 227 76 227 115 300.5 c 128,-1,30
 154 374 154 374 223 429 c 0,31,32
 256 456 256 456 286.5 470 c 128,-1,33
 317 484 317 484 342 484 c 0,34,35
 366 484 366 484 390.5 473 c 128,-1,36
 415 462 415 462 415 450 c 0,37,38
 415 448 415 448 413 446 c 128,-1,39
 411 444 411 444 408 442 c 2,40,-1
 387 418 l 2,41,42
 383 414 383 414 378 411.5 c 128,-1,43
 373 409 373 409 367.5 409 c 128,-1,44
 362 409 362 409 346.5 414.5 c 128,-1,45
 331 420 331 420 322 420 c 0,46,47
 274 420 274 420 226 347.5 c 128,-1,48
 178 275 178 275 172 175 c 1,49,-1
 394 324 l 1,50,51
 391 335 391 335 388.5 345.5 c 128,-1,52
 386 356 386 356 385 363 c 0,53,54
 385 375 385 375 390.5 385 c 128,-1,55
 396 395 396 395 404 400 c 2,56,-1
 450 428 l 2,57,58
 460 433 460 433 468 437 c 128,-1,59
 476 441 476 441 482 441 c 0,60,61
 492 441 492 441 499 432 c 128,-1,62
 506 423 506 423 509 403 c 1,63,-1
 568 444 l 2,64,65
 582 454 582 454 589.5 457.5 c 128,-1,66
 597 461 597 461 600.5 461 c 128,-1,67
 604 461 604 461 607 460.5 c 128,-1,68
 610 460 610 460 613 458 c 2,69,-1
 629 443 l 2,70,71
 630 442 630 442 630.5 439 c 128,-1,72
 631 436 631 436 631 433 c 0,73,74
 631 427 631 427 627 422 c 128,-1,75
 623 417 623 417 607 407 c 2,76,-1
 508 339 l 1,77,78
 496 180 496 180 422.5 80 c 128,-1,79
 349 -20 349 -20 251 -20 c 0,80,81
 198 -20 198 -20 159 2 c 128,-1,82
 120 24 120 24 97 65 c 1,83,-1
 32 23 l 1,10,-1
EndSplineSet
EndChar

StartChar: oe
Encoding: 339 339 221
Width: 600
Flags: W
HStem: -28 56<389.375 559.086> -20 59<138.271 271.48 454.782 561.125> 447 50<399.927 490.359> 450 54<179.393 299.752>
VStem: 21 87<71.5733 320.508> 256 78<182 326.873> 500 80<309.322 432.043>
LayerCount: 2
Fore
SplineSet
562 46 m 1,0,-1
 578 1 l 1,1,2
 544 -13 544 -13 509 -20.5 c 128,-1,3
 474 -28 474 -28 439 -28 c 0,4,5
 396 -28 396 -28 364 -15 c 128,-1,6
 332 -2 332 -2 307 25 c 1,7,8
 281 3 281 3 249.5 -8.5 c 128,-1,9
 218 -20 218 -20 184 -20 c 0,10,11
 109 -20 109 -20 65 30.5 c 128,-1,12
 21 81 21 81 21 169 c 0,13,14
 21 310 21 310 83 407 c 0,15,16
 144 504 144 504 236 504 c 0,17,18
 274 504 274 504 302.5 490 c 128,-1,19
 331 476 331 476 349 448 c 1,20,21
 375 473 375 473 405.5 485 c 128,-1,22
 436 497 436 497 469 497 c 0,23,24
 522 496 522 496 552 467 c 0,25,26
 580 439 580 439 580 392 c 2,27,-1
 580 386 l 2,28,29
 580 322 580 322 520 256 c 128,-1,30
 460 190 460 190 348 130 c 1,31,32
 357 80 357 80 384 54 c 128,-1,33
 411 28 411 28 454 28 c 0,34,35
 479 28 479 28 506.5 32.5 c 128,-1,36
 534 37 534 37 562 46 c 1,0,-1
280 66 m 1,37,38
 268 93 268 93 262 125.5 c 128,-1,39
 256 158 256 158 256 196 c 0,40,41
 256 254 256 254 272 310 c 128,-1,42
 288 366 288 366 317 407 c 1,43,44
 302 430 302 430 284 440 c 128,-1,45
 266 450 266 450 241 450 c 0,46,47
 177 450 177 450 142.5 379 c 128,-1,48
 108 308 108 308 108 176 c 0,49,50
 108 104 108 104 129.5 71.5 c 128,-1,51
 151 39 151 39 197 39 c 0,52,53
 220 39 220 39 239.5 45.5 c 128,-1,54
 259 52 259 52 280 66 c 1,37,38
334 182 m 1,55,56
 419 228 419 228 459.5 278.5 c 128,-1,57
 500 329 500 329 500 389 c 0,58,59
 500 418 500 418 488.5 432.5 c 128,-1,60
 477 447 477 447 453 447 c 0,61,62
 403 447 403 447 367.5 383.5 c 128,-1,63
 332 320 332 320 332 226 c 0,64,65
 332 216 332 216 334 187 c 0,66,67
 334 184 334 184 334 182 c 1,55,56
EndSplineSet
EndChar

StartChar: p
Encoding: 112 112 222
Width: 600
GlyphClass: 2
Flags: W
LayerCount: 2
Fore
SplineSet
357.5 503.5 m 128,-1,1
 423 553 423 553 483 553 c 128,-1,2
 543 553 543 553 578 503.5 c 128,-1,3
 613 454 613 454 604 360 c 0,4,5
 591 211 591 211 505 105.5 c 128,-1,6
 419 0 419 0 312 0 c 0,7,8
 274 0 274 0 235 16 c 1,9,10
 310 31 310 31 370.5 92.5 c 128,-1,11
 431 154 431 154 462 224.5 c 128,-1,12
 493 295 493 295 498 351.5 c 128,-1,13
 503 408 503 408 486 438 c 128,-1,14
 469 468 469 468 433 468 c 0,15,16
 366 468 366 468 306.5 391.5 c 128,-1,17
 247 315 247 315 207 184 c 128,-1,18
 167 53 167 53 154.5 -86.5 c 128,-1,19
 142 -226 142 -226 153 -329 c 1,20,21
 93 -326 93 -326 61.5 -302 c 128,-1,22
 30 -278 30 -278 35 -213 c 0,23,24
 37 -189 37 -189 87.5 40.5 c 128,-1,25
 138 270 138 270 148.5 394 c 128,-1,26
 159 518 159 518 152 603 c 1,27,28
 214 584 214 584 233.5 525.5 c 128,-1,29
 253 467 253 467 244 361 c 1,30,0
 292 454 292 454 357.5 503.5 c 128,-1,1
EndSplineSet
EndChar

StartChar: thorn
Encoding: 254 254 223
Width: 600
GlyphClass: 2
Flags: W
HStem: -3 71<293.434 401.477> 408 74<339.47 452.655> 702 20G<154 218>
VStem: 146 93<423.02 702.778> 476 80<196.365 379.119>
LayerCount: 2
Fore
SplineSet
206 86 m 2,0,-1
 234 112 l 2,1,2
 237 116 237 116 241 118.5 c 128,-1,3
 245 121 245 121 250.5 121 c 128,-1,4
 256 121 256 121 287.5 94.5 c 128,-1,5
 319 68 319 68 350 68 c 0,6,7
 400 68 400 68 438 136.5 c 128,-1,8
 476 205 476 205 476 299 c 0,9,10
 476 352 476 352 457.5 380 c 128,-1,11
 439 408 439 408 403 408 c 0,12,13
 358 408 358 408 322 380 c 0,14,15
 286 354 286 354 239 276 c 0,16,17
 203 218 203 218 187.5 172 c 128,-1,18
 172 126 172 126 167 72 c 0,19,20
 165 37 165 37 161 -26 c 0,21,22
 152 -212 152 -212 77 -213 c 0,23,24
 57 -213 57 -213 49 -205 c 128,-1,25
 41 -197 41 -197 41 -177 c 0,26,27
 41 -160 41 -160 59 -79 c 128,-1,28
 77 2 77 2 88 66 c 0,29,30
 118 250 118 250 132 374.5 c 128,-1,31
 146 499 146 499 146 572 c 0,32,33
 146 626 146 626 135 679 c 0,34,35
 133 690 133 690 132 694 c 0,36,37
 132 707 132 707 140 714.5 c 128,-1,38
 148 722 148 722 160 722 c 2,39,-1
 210 722 l 2,40,41
 226 722 226 722 232.5 712 c 128,-1,42
 239 702 239 702 239 674 c 0,43,44
 239 594 239 594 227.5 497.5 c 128,-1,45
 216 401 216 401 192 290 c 1,46,47
 250 390 250 390 305 436 c 128,-1,48
 360 482 360 482 417 482 c 0,49,50
 481 482 481 482 519 436 c 0,51,52
 556 391 556 391 556 317 c 0,53,54
 556 316 556 316 556 314 c 0,55,56
 556 260 556 260 537 203 c 128,-1,57
 518 146 518 146 484 98 c 0,58,59
 448 47 448 47 407 22 c 128,-1,60
 366 -3 366 -3 320 -3 c 0,61,62
 277 -3 277 -3 237.5 22.5 c 128,-1,63
 198 48 198 48 198 68 c 0,64,65
 198 72 198 72 200.5 77.5 c 128,-1,66
 203 83 203 83 206 86 c 2,0,-1
EndSplineSet
EndChar

StartChar: q
Encoding: 113 113 224
Width: 600
GlyphClass: 2
Flags: W
LayerCount: 2
Fore
SplineSet
186 0 m 0,0,1
 125 0 125 0 90 48 c 128,-1,2
 55 96 55 96 63 187 c 0,3,4
 74 312 74 312 152 428 c 0,5,6
 188 483 188 483 243 518.5 c 128,-1,7
 298 554 298 554 360 554 c 0,8,9
 397 554 397 554 435 541 c 1,10,11
 326 510 326 510 253.5 414.5 c 128,-1,12
 181 319 181 319 171 202 c 0,13,14
 166 151 166 151 182 117 c 128,-1,15
 198 83 198 83 235 83 c 0,16,17
 289 83 289 83 341.5 134 c 128,-1,18
 394 185 394 185 430.5 271.5 c 128,-1,19
 467 358 467 358 474 439 c 128,-1,20
 481 520 481 520 480 568 c 1,21,22
 502 570 502 570 505 570 c 0,23,24
 588 570 588 570 580 483 c 0,25,26
 578 460 578 460 536 288 c 128,-1,27
 494 116 494 116 473 -13 c 1,28,29
 543 12 543 12 565 43 c 1,30,31
 581 22 581 22 579 -2 c 0,32,33
 576 -35 576 -35 536 -50 c 128,-1,34
 496 -65 496 -65 463 -75 c 1,35,36
 456 -135 456 -135 451 -195 c 128,-1,37
 446 -255 446 -255 450 -329 c 1,38,39
 392 -326 392 -326 362 -302.5 c 128,-1,40
 332 -279 332 -279 337 -217 c 0,41,42
 340 -186 340 -186 359 -113 c 1,43,44
 331 -127 331 -127 294 -154 c 1,45,46
 286 -136 286 -136 287 -122 c 0,47,48
 291 -76 291 -76 378 -44 c 1,49,50
 426 134 426 134 441 216 c 1,51,52
 331 0 331 0 186 0 c 0,0,1
EndSplineSet
EndChar

StartChar: r
Encoding: 114 114 225
Width: 600
GlyphClass: 2
Flags: W
LayerCount: 2
Fore
SplineSet
382 516 m 0,0,1
 443 578 443 578 506 578 c 0,2,3
 560 578 560 578 579 546 c 0,4,5
 598 513 598 513 593.5 463 c 128,-1,6
 589 413 589 413 560 376.5 c 128,-1,7
 531 340 531 340 481 340 c 0,8,9
 465 340 465 340 456 342 c 1,10,11
 494 391 494 391 499 442 c 0,12,13
 502 478 502 478 473 478 c 0,14,15
 450 478 450 478 401.5 451 c 128,-1,16
 353 424 353 424 325 376 c 256,17,18
 297 328 297 328 274 251 c 0,19,20
 247 160 247 160 243 85 c 0,21,22
 243 75 243 75 241 0 c 1,23,24
 215 -2 215 -2 211 -2 c 0,25,26
 123 -2 123 -2 130 84 c 0,27,28
 132 104 132 104 165 238 c 256,29,30
 198 372 198 372 204.5 451.5 c 128,-1,31
 211 531 211 531 200 598 c 1,32,33
 257 575 257 575 277 532.5 c 128,-1,34
 297 490 297 490 292 433.5 c 128,-1,35
 287 377 287 377 273 325 c 1,36,37
 321 455 321 455 382 516 c 0,0,1
EndSplineSet
EndChar

StartChar: s
Encoding: 115 115 229
Width: 600
GlyphClass: 2
Flags: W
LayerCount: 2
Fore
SplineSet
337 507 m 128,-1,1
 309 486 309 486 305.5 449.5 c 128,-1,2
 302 413 302 413 324 381 c 128,-1,3
 346 349 346 349 378.5 324 c 128,-1,4
 411 299 411 299 445 273 c 0,5,6
 523 211 523 211 517 140 c 128,-1,7
 511 69 511 69 450 24.5 c 128,-1,8
 389 -20 389 -20 300.5 -20 c 128,-1,9
 212 -20 212 -20 166.5 15 c 128,-1,10
 121 50 121 50 125.5 97.5 c 128,-1,11
 130 145 130 145 156 172 c 128,-1,12
 182 199 182 199 216 199 c 0,13,14
 234 199 234 199 250 191 c 1,15,16
 225 163 225 163 222 125 c 128,-1,17
 219 87 219 87 240 61 c 128,-1,18
 261 35 261 35 302.5 35 c 128,-1,19
 344 35 344 35 375 56.5 c 128,-1,20
 406 78 406 78 409 111 c 128,-1,21
 412 144 412 144 397 169 c 128,-1,22
 382 194 382 194 358 212 c 128,-1,23
 334 230 334 230 306 252 c 128,-1,24
 278 274 278 274 254.5 295.5 c 128,-1,25
 231 317 231 317 216.5 349.5 c 128,-1,26
 202 382 202 382 206 421 c 0,27,28
 212 492 212 492 270 537.5 c 128,-1,29
 328 583 328 583 410 583 c 128,-1,30
 492 583 492 583 527 549 c 128,-1,31
 562 515 562 515 558.5 472.5 c 128,-1,32
 555 430 555 430 531.5 402.5 c 128,-1,33
 508 375 508 375 475 375 c 0,34,35
 459 375 459 375 439 384 c 1,36,37
 467 416 467 416 470.5 453 c 128,-1,38
 474 490 474 490 453 509 c 128,-1,39
 432 528 432 528 398.5 528 c 128,-1,0
 365 528 365 528 337 507 c 128,-1,1
EndSplineSet
EndChar

StartChar: germandbls
Encoding: 223 223 235
Width: 600
Flags: W
HStem: -21 54<287.157 402.174> 599 57<284.136 403.529>
VStem: 85 98<42.2827 218.517> 431 82<473.117 573.359> 440 76<82.8271 239.291>
LayerCount: 2
Fore
SplineSet
155 28 m 2,0,-1
 104 9 l 1,1,2
 104 9 104 9 103 9 c 0,3,4
 101 9 101 9 99 9 c 0,5,6
 93 9 93 9 89 15 c 128,-1,7
 85 21 85 21 85 31 c 0,8,9
 85 54 85 54 92.5 119.5 c 128,-1,10
 100 185 100 185 113 257 c 0,11,12
 132 361 132 361 146.5 423 c 128,-1,13
 161 485 161 485 177 530 c 0,14,15
 207 611 207 611 246 633.5 c 128,-1,16
 285 656 285 656 363 656 c 0,17,18
 432 656 432 656 473 626 c 0,19,20
 513 598 513 598 513 549 c 0,21,22
 513 548 513 548 513 547 c 0,23,24
 513 492 513 492 469.5 444 c 128,-1,25
 426 396 426 396 345 363 c 1,26,27
 425 353 425 353 470.5 305 c 128,-1,28
 516 257 516 257 516 183 c 0,29,30
 516 92 516 92 460 35.5 c 128,-1,31
 404 -21 404 -21 311 -21 c 0,32,33
 257 -21 257 -21 228.5 -3 c 128,-1,34
 200 15 200 15 200 49 c 0,35,36
 200 74 200 74 210 88.5 c 128,-1,37
 220 103 220 103 235 103 c 0,38,39
 247 103 247 103 274.5 68 c 128,-1,40
 302 33 302 33 344 33 c 0,41,42
 388 33 388 33 414 67 c 128,-1,43
 440 101 440 101 440 157 c 0,44,45
 440 214 440 214 408 254 c 128,-1,46
 376 294 376 294 319 309 c 0,47,48
 300 314 300 314 272 317 c 0,49,50
 244 319 244 319 243 330 c 0,51,52
 243 365 243 365 268 374 c 0,53,54
 271 375 271 375 273 377 c 0,55,56
 353 412 353 412 392 448 c 128,-1,57
 431 484 431 484 431 522 c 0,58,59
 431 556 431 556 404.5 577.5 c 128,-1,60
 378 599 378 599 337 599 c 0,61,62
 291 599 291 599 267 554.5 c 128,-1,63
 243 510 243 510 212 331 c 0,64,65
 211 324 211 324 209 307 c 0,66,67
 186 174 186 174 183 66 c 0,68,69
 183 51 183 51 176 42 c 128,-1,70
 169 33 169 33 155 28 c 2,0,-1
EndSplineSet
EndChar

StartChar: t
Encoding: 116 116 236
Width: 600
GlyphClass: 2
Flags: W
LayerCount: 2
Fore
SplineSet
561 548 m 0,0,1
 557 506 557 506 539.5 490 c 128,-1,2
 522 474 522 474 491 474 c 2,3,-1
 419 474 l 1,4,5
 413 448 413 448 388 350 c 0,6,7
 337 164 337 164 329 69 c 128,-1,8
 321 -26 321 -26 332 -57 c 1,9,10
 277 -36 277 -36 256.5 6.5 c 128,-1,11
 236 49 236 49 241.5 110 c 128,-1,12
 247 171 247 171 259 225.5 c 128,-1,13
 271 280 271 280 291.5 353 c 128,-1,14
 312 426 312 426 322 470 c 1,15,16
 264 462 264 462 207 438 c 1,17,18
 207 454 207 454 208 467 c 0,19,20
 212 515 212 515 245.5 531.5 c 128,-1,21
 279 548 279 548 339 548 c 1,22,23
 352 622 352 622 355.5 658.5 c 128,-1,24
 359 695 359 695 360.5 717 c 128,-1,25
 362 739 362 739 363 750 c 1,26,27
 408 743 408 743 430 709.5 c 128,-1,28
 452 676 452 676 447 618 c 0,29,30
 444 588 444 588 436 545 c 1,31,32
 523 545 523 545 561 574 c 1,33,34
 562 560 562 560 561 548 c 0,0,1
EndSplineSet
EndChar

StartChar: tbar
Encoding: 359 359 237
Width: 600
GlyphClass: 2
Flags: W
HStem: -10 66<307.927 486.37> 274 60<90 200 284 457> 438 63<79 200 284 456>
VStem: 200 84<80.4597 274 334 438 501 614>
LayerCount: 2
Fore
SplineSet
519 26 m 1,0,1
 492 9 492 9 453.5 -0.5 c 128,-1,2
 415 -10 415 -10 377 -10 c 0,3,4
 294 -10 294 -10 247 31 c 128,-1,5
 200 72 200 72 200 140 c 2,6,-1
 200 274 l 1,7,-1
 90 274 l 1,8,-1
 90 334 l 1,9,-1
 200 334 l 1,10,-1
 200 438 l 1,11,-1
 79 438 l 1,12,-1
 79 501 l 1,13,-1
 200 501 l 1,14,-1
 200 614 l 1,15,-1
 284 623 l 1,16,-1
 284 501 l 1,17,-1
 467 501 l 1,18,-1
 456 438 l 1,19,-1
 284 438 l 1,20,-1
 284 334 l 1,21,-1
 457 334 l 1,22,-1
 457 274 l 1,23,-1
 284 274 l 1,24,-1
 284 141 l 2,25,26
 284 98 284 98 308 77 c 128,-1,27
 332 56 332 56 385 56 c 0,28,29
 439 56 439 56 486 80 c 1,30,-1
 519 26 l 1,0,1
EndSplineSet
EndChar

StartChar: tcaron
Encoding: 357 357 238
Width: 600
GlyphClass: 2
Flags: W
HStem: -18 51<341.114 507.159> 453 68<561 600.842> 704 20G<493.326 569>
VStem: 233 84<56.7644 250.407>
LayerCount: 2
Fore
SplineSet
569 715 m 5,0,-1
 479 545 l 5,1,-1
 435 552 l 5,2,-1
 501 724 l 5,3,-1
 569 715 l 5,0,-1
EndSplineSet
Refer: 236 116 N 1 0 0 1 0 0 0
EndChar

StartChar: uni0163
Encoding: 355 355 239
Width: 600
GlyphClass: 2
Flags: W
HStem: -226 53<273.528 406.828> 438 63<79 200 284 456>
VStem: 200 84<79.9427 438 501 614> 411 73<-166.33 -100.794>
LayerCount: 2
Fore
SplineSet
460.5 -80.5 m 128,-1,1
 484 -103 484 -103 484 -133 c 0,2,3
 484 -178 484 -178 448.5 -202 c 128,-1,4
 413 -226 413 -226 362 -226 c 0,5,6
 332 -226 332 -226 304.5 -220 c 128,-1,7
 277 -214 277 -214 257 -203 c 1,8,-1
 284 -158 l 1,9,10
 314 -173 314 -173 351 -173 c 0,11,12
 411 -173 411 -173 411 -134 c 0,13,14
 411 -109 411 -109 390 -100.5 c 128,-1,15
 369 -92 369 -92 325 -92 c 1,16,-1
 331 -7 l 1,17,18
 269 4 269 4 234.5 43.5 c 128,-1,19
 200 83 200 83 200 140 c 2,20,-1
 200 438 l 1,21,-1
 79 438 l 1,22,-1
 79 501 l 1,23,-1
 200 501 l 1,24,-1
 200 614 l 1,25,-1
 284 623 l 1,26,-1
 284 501 l 1,27,-1
 467 501 l 1,28,-1
 456 438 l 1,29,-1
 284 438 l 1,30,-1
 284 141 l 2,31,32
 284 98 284 98 308 77 c 128,-1,33
 332 56 332 56 385 56 c 0,34,35
 439 56 439 56 486 80 c 1,36,-1
 519 26 l 1,37,38
 494 11 494 11 460.5 1 c 128,-1,39
 427 -9 427 -9 391 -10 c 1,40,-1
 391 -54 l 1,41,0
 437 -58 437 -58 460.5 -80.5 c 128,-1,1
EndSplineSet
Substitution2: "'locl' Localized Forms in Latin lookup 16 subtable" uni021B
Substitution2: "'locl' Localized Forms in Latin lookup 15 subtable" uni021B
Substitution2: "'aalt' Access All Alternates lookup 0 subtable" uni021B
EndChar

StartChar: u
Encoding: 117 117 241
Width: 600
GlyphClass: 2
Flags: W
LayerCount: 2
Fore
SplineSet
513 579 m 4,0,1
 598 579 598 579 590 490 c 4,2,3
 588 474 588 474 558.5 349.5 c 132,-1,4
 529 225 529 225 521 136 c 132,-1,5
 513 47 513 47 526 -21 c 5,6,7
 468 3 468 3 448.5 47 c 132,-1,8
 429 91 429 91 435 156 c 4,9,10
 437 181 437 181 456 269 c 5,11,12
 416 155 416 155 347 77.5 c 132,-1,13
 278 0 278 0 225 0 c 4,14,15
 112 0 112 0 127 166 c 4,16,17
 131 221 131 221 156.5 319.5 c 132,-1,18
 182 418 182 418 186 469 c 132,-1,19
 190 520 190 520 181 572 c 5,20,21
 244 572 244 572 273.5 550 c 132,-1,22
 303 528 303 528 298 465 c 4,23,24
 295 431 295 431 265 325 c 132,-1,25
 235 219 235 219 231 168 c 4,26,27
 224 94 224 94 269 94 c 4,28,29
 307 94 307 94 353.5 153.5 c 132,-1,30
 400 213 400 213 435.5 308 c 132,-1,31
 471 403 471 403 479 496 c 4,32,33
 483 538 483 538 480 577 c 5,34,35
 503 579 503 579 513 579 c 4,0,1
EndSplineSet
EndChar

StartChar: uogonek
Encoding: 371 371 249
Width: 600
GlyphClass: 2
Flags: W
HStem: -218 64<385.822 485.189> -10 62<206.444 348.311> 481 20G<100 184 416 500>
VStem: 100 84<75.2094 501> 299 77<-145.173 -60.1401> 416 84<106.19 501>
LayerCount: 2
Fore
SplineSet
402 -55 m 128,-1,1
 376 -81 376 -81 376 -108 c 0,2,3
 376 -131 376 -131 389 -142.5 c 128,-1,4
 402 -154 402 -154 432 -154 c 0,5,6
 459 -154 459 -154 493 -147 c 1,7,-1
 485 -212 l 1,8,9
 443 -218 443 -218 421 -218 c 0,10,11
 365 -218 365 -218 332 -191.5 c 128,-1,12
 299 -165 299 -165 299 -124 c 0,13,14
 299 -38 299 -38 427 10 c 1,15,-1
 421 67 l 1,16,17
 390 30 390 30 344.5 10 c 128,-1,18
 299 -10 299 -10 252 -10 c 0,19,20
 177 -10 177 -10 138.5 28 c 128,-1,21
 100 66 100 66 100 137 c 2,22,-1
 100 501 l 1,23,-1
 184 501 l 1,24,-1
 184 145 l 2,25,26
 184 97 184 97 205.5 74.5 c 128,-1,27
 227 52 227 52 273 52 c 0,28,29
 315 52 315 52 354 75 c 128,-1,30
 393 98 393 98 416 132 c 1,31,-1
 416 501 l 1,32,-1
 500 501 l 1,33,-1
 500 0 l 1,34,0
 428 -29 428 -29 402 -55 c 128,-1,1
EndSplineSet
EndChar

StartChar: v
Encoding: 118 118 252
Width: 600
GlyphClass: 2
Flags: W
LayerCount: 2
Fore
SplineSet
328 0 m 1,0,1
 303 -14 303 -14 273.5 -14 c 128,-1,2
 244 -14 244 -14 242 1 c 0,3,4
 232 65 232 65 222 192.5 c 128,-1,5
 212 320 212 320 199 415.5 c 128,-1,6
 186 511 186 511 160 560 c 1,7,8
 198 586 198 586 233 586 c 0,9,10
 278 586 278 586 292.5 534.5 c 128,-1,11
 307 483 307 483 309.5 318.5 c 128,-1,12
 312 154 312 154 321 105 c 1,13,14
 548 479 548 479 558 599 c 1,15,16
 617 557 617 557 613 512.5 c 128,-1,17
 609 468 609 468 560.5 389.5 c 128,-1,18
 512 311 512 311 440 199.5 c 128,-1,19
 368 88 368 88 328 0 c 1,0,1
EndSplineSet
EndChar

StartChar: w
Encoding: 119 119 253
Width: 600
GlyphClass: 2
Flags: W
LayerCount: 2
Fore
SplineSet
450 -8 m 0,0,1
 429 -14 429 -14 411 -14 c 0,2,3
 394 -14 394 -14 392 1 c 0,4,5
 385 63 385 63 378 195 c 0,6,7
 372 327 372 327 368 367 c 1,8,9
 292 202 292 202 285 190 c 0,10,11
 215 66 215 66 193 0 c 0,12,13
 192 -3 192 -3 172 -9 c 0,14,15
 156 -14 156 -14 139 -14 c 256,16,17
 122 -14 122 -14 120 1 c 0,18,19
 112 65 112 65 107 192 c 0,20,21
 102 320 102 320 92 416 c 0,22,23
 82 511 82 511 59 560 c 1,24,25
 97 586 97 586 121 586 c 256,26,27
 145 586 145 586 160 574 c 0,28,29
 175 563 175 563 183 538 c 0,30,31
 191 514 191 514 194 484 c 0,32,33
 197 455 197 455 197 410 c 0,34,35
 197 364 197 364 195 322 c 0,36,37
 192 188 192 188 194 105 c 1,38,39
 258 236 258 236 351 500 c 1,40,41
 343 532 343 532 331 560 c 1,42,43
 369 586 369 586 393 586 c 0,44,45
 416 586 416 586 431 574 c 0,46,47
 445 563 445 563 453 538 c 0,48,49
 462 508 462 508 463 484 c 0,50,51
 464 476 464 476 467 410 c 0,52,53
 468 394 468 394 466 322 c 0,54,55
 464 205 464 205 466 105 c 1,56,57
 526 266 526 266 534 284 c 0,58,59
 548 316 548 316 591 444 c 0,60,61
 630 556 630 556 634 599 c 1,62,63
 691 569 691 569 685 502 c 0,64,65
 681 452 681 452 640 379 c 0,66,67
 598 304 598 304 549 192 c 0,68,69
 467 8 467 8 475 0 c 0,70,71
 477 -2 477 -2 450 -8 c 0,0,1
EndSplineSet
Substitution2: "Single Substitution lookup 174 subtable" LIG
Substitution2: "Single Substitution lookup 173 subtable" w_w_w.liga
AlternateSubs2: "'aalt' Access All Alternates lookup 1 subtable" w_w_w.liga LIG
EndChar

StartChar: x
Encoding: 120 120 258
Width: 600
GlyphClass: 2
Flags: W
LayerCount: 2
Fore
SplineSet
497 -30 m 0,0,1
 426 -30 426 -30 382.5 35 c 128,-1,2
 339 100 339 100 303 219 c 1,3,4
 192 104 192 104 136 -42 c 1,5,6
 87 19 87 19 91 68 c 0,7,8
 94 104 94 104 141.5 154 c 128,-1,9
 189 204 189 204 284 287 c 1,10,11
 277 317 277 317 270.5 337 c 128,-1,12
 264 357 264 357 258 378.5 c 128,-1,13
 252 400 252 400 249 409 c 128,-1,14
 246 418 246 418 240 437 c 128,-1,15
 234 456 234 456 230 465.5 c 128,-1,16
 226 475 226 475 219.5 490.5 c 128,-1,17
 213 506 213 506 208 516 c 0,18,19
 199 536 199 536 184 560 c 1,20,21
 198 571 198 571 219.5 578.5 c 128,-1,22
 241 586 241 586 255 586 c 0,23,24
 302 586 302 586 329 514 c 0,25,26
 340 482 340 482 368 360 c 1,27,28
 540 514 540 514 562 595 c 1,29,30
 597 546 597 546 594 514.5 c 128,-1,31
 591 483 591 483 570.5 455.5 c 128,-1,32
 550 428 550 428 528.5 409.5 c 128,-1,33
 507 391 507 391 459 353.5 c 128,-1,34
 411 316 411 316 385 294 c 1,35,36
 448 57 448 57 547 -21 c 1,37,38
 519 -30 519 -30 497 -30 c 0,0,1
EndSplineSet
Substitution2: "Single Substitution lookup 240 subtable" x.multiply
Substitution2: "'aalt' Access All Alternates lookup 0 subtable" x.multiply
EndChar

StartChar: y
Encoding: 121 121 259
Width: 600
GlyphClass: 2
Flags: W
LayerCount: 2
Fore
SplineSet
612 508 m 0,0,1
 609 473 609 473 574 411 c 128,-1,2
 539 349 539 349 489.5 275 c 128,-1,3
 440 201 440 201 389.5 117.5 c 128,-1,4
 339 34 339 34 300.5 -65.5 c 128,-1,5
 262 -165 262 -165 254 -256 c 0,6,7
 250 -301 250 -301 253 -342 c 1,8,9
 190 -327 190 -327 170.5 -297.5 c 128,-1,10
 151 -268 151 -268 154 -228 c 0,11,12
 159 -171 159 -171 243 -11 c 1,13,14
 233 51 233 51 223 183.5 c 128,-1,15
 213 316 213 316 199 414 c 128,-1,16
 185 512 185 512 160 560 c 1,17,18
 200 586 200 586 227 586 c 0,19,20
 279 586 279 586 293.5 532.5 c 128,-1,21
 308 479 308 479 309 328 c 128,-1,22
 310 177 310 177 319 106 c 1,23,24
 548 475 548 475 558 599 c 1,25,26
 617 557 617 557 612 508 c 0,0,1
EndSplineSet
EndChar

StartChar: z
Encoding: 122 122 264
Width: 600
GlyphClass: 2
Flags: W
LayerCount: 2
Fore
SplineSet
220 566 m 1,0,1
 314 552 314 552 396.5 552 c 128,-1,2
 479 552 479 552 534 557 c 1,3,4
 551 588 551 588 561 614 c 1,5,6
 602 576 602 576 598.5 531 c 128,-1,7
 595 486 595 486 549 425 c 128,-1,8
 503 364 503 364 405 259.5 c 128,-1,9
 307 155 307 155 256 94 c 1,10,11
 376 91 376 91 419.5 91 c 128,-1,12
 463 91 463 91 526 100 c 1,13,14
 529 75 529 75 526 48 c 0,15,16
 521 -7 521 -7 445 -7 c 0,17,18
 427 -7 427 -7 341.5 1 c 128,-1,19
 256 9 256 9 193 9 c 128,-1,20
 130 9 130 9 66 -8 c 1,21,22
 87 67 87 67 142 86 c 1,23,24
 357 291 357 291 487 481 c 1,25,26
 435 479 435 479 358.5 469.5 c 128,-1,27
 282 460 282 460 267 460 c 0,28,29
 202 460 202 460 208 525 c 0,30,31
 210 544 210 544 220 566 c 1,0,1
EndSplineSet
EndChar

StartChar: cacute.loclPLK
Encoding: 1114120 -1 268
Width: 600
GlyphClass: 2
Flags: W
HStem: -20 63<226.774 481.187> 37 44<524.764 560.5> 420 61<247.354 369.367> 703 20G<530.125 573>
VStem: 59 95<109.263 279.64> 389 85<300.917 397.306>
LayerCount: 2
Fore
SplineSet
599 683 m 5,0,-1
 444 539 l 5,1,-1
 412 563 l 5,2,-1
 547 723 l 5,3,-1
 599 683 l 5,0,-1
EndSplineSet
Refer: 149 99 N 1 0 0 1 0 0 0
EndChar

StartChar: nacute.loclPLK
Encoding: 1114121 -1 269
Width: 600
GlyphClass: 2
Flags: W
HStem: -20 62<434.861 521.123> 391 72<377.853 452.937> 712 20G<488.125 531>
VStem: 66 113<35.5 116.168> 122 91<250.735 455.265> 377 84<42.5471 211.45> 426 95<289.931 407>
LayerCount: 2
Fore
SplineSet
557 692 m 5,0,-1
 402 548 l 5,1,-1
 370 572 l 5,2,-1
 505 732 l 5,3,-1
 557 692 l 5,0,-1
EndSplineSet
Refer: 203 110 N 1 0 0 1 0 0 0
EndChar

StartChar: oacute.loclPLK
Encoding: 1114122 -1 270
Width: 600
GlyphClass: 2
Flags: W
HStem: -19.6924 50.8857<214.888 335.432> 712 20G<488.125 531>
VStem: 84.0898 88.5303<80.1399 276.718> 452.625 74.5098<206.743 388.402>
LayerCount: 2
Fore
SplineSet
557 692 m 5,0,-1
 402 548 l 5,1,-1
 370 572 l 5,2,-1
 505 732 l 5,3,-1
 557 692 l 5,0,-1
EndSplineSet
Refer: 210 111 N 1 0 0 1 0 0 0
EndChar

StartChar: sacute.loclPLK
Encoding: 1114123 -1 271
Width: 600
GlyphClass: 2
Flags: W
HStem: -12.6846 46.582<183.715 320.317> 451.443 46.583<278.291 402.826> 712 20G<495.125 538>
VStem: 156.091 92.3672<325.729 416.978>
LayerCount: 2
Fore
SplineSet
564 692 m 5,0,-1
 409 548 l 5,1,-1
 377 572 l 5,2,-1
 512 732 l 5,3,-1
 564 692 l 5,0,-1
EndSplineSet
Refer: 229 115 N 1 0 0 1 0 0 0
EndChar

StartChar: zacute.loclPLK
Encoding: 1114124 -1 272
Width: 600
GlyphClass: 2
Flags: W
HStem: -10 66<297.925 506.375> 391 64<229 408.437> 451 20G<167.5 229> 712 20G<498.125 541>
LayerCount: 2
Fore
SplineSet
567 692 m 5,0,-1
 412 548 l 5,1,-1
 380 572 l 5,2,-1
 515 732 l 5,3,-1
 567 692 l 5,0,-1
EndSplineSet
Refer: 264 122 N 1 0 0 1 0 0 0
EndChar

StartChar: x.multiply
Encoding: 1114125 -1 273
Width: 600
Flags: W
HStem: 480 20G<228.255 264.333 482.305 517.941>
LayerCount: 2
Fore
SplineSet
538 449 m 1,0,-1
 379 309 l 1,1,-1
 470 166 l 1,2,-1
 412 116 l 1,3,-1
 320 257 l 1,4,-1
 157 116 l 1,5,-1
 124 166 l 1,6,-1
 286 309 l 1,7,-1
 193 449 l 1,8,-1
 251 500 l 1,9,-1
 345 359 l 1,10,-1
 505 500 l 1,11,-1
 538 449 l 1,0,-1
EndSplineSet
EndChar

StartChar: w_w_w.liga
Encoding: 1114126 -1 274
Width: 600
Flags: W
HStem: 0 21G<-872 -763.576 -653 -538.748 -429 -318.633 -209 -94.9771 5 116.94 238 347.277> 0 21G<-872 -763.576 -653 -538.748 -429 -318.633 -209 -94.9771 5 116.94 238 347.277> 456 20G<-842.303 -765 455.494 536>
VStem: -841 76<410.717 476>
LayerCount: 2
Fore
SplineSet
536 476 m 1,0,-1
 339 0 l 1,1,-1
 238 0 l 1,2,-1
 264 349 l 1,3,-1
 108 0 l 1,4,-1
 5 0 l 1,5,-1
 37 349 l 1,6,-1
 -103 0 l 1,7,-1
 -209 0 l 1,8,-1
 -181 349 l 1,9,-1
 -327 0 l 1,10,-1
 -429 0 l 1,11,-1
 -403 349 l 1,12,-1
 -547 0 l 1,13,-1
 -653 0 l 1,14,-1
 -625 349 l 1,15,-1
 -772 0 l 1,16,-1
 -872 0 l 1,17,-1
 -841 476 l 1,18,-1
 -765 476 l 1,19,-1
 -811 47 l 1,20,-1
 -650 415 l 1,21,-1
 -565 415 l 1,22,-1
 -588 47 l 1,23,-1
 -429 415 l 1,24,-1
 -342 415 l 1,25,-1
 -365 47 l 1,26,-1
 -205 415 l 1,27,-1
 -120 415 l 1,28,-1
 -144 47 l 1,29,-1
 12 415 l 1,30,-1
 98 415 l 1,31,-1
 69 47 l 1,32,-1
 239 415 l 1,33,-1
 324 415 l 1,34,-1
 302 47 l 1,35,-1
 463 476 l 1,36,-1
 536 476 l 1,0,-1
EndSplineSet
EndChar

StartChar: ordfeminine
Encoding: 170 170 275
Width: 600
Flags: W
HStem: 189 60<37.1572 453.327> 302 55<412.018 497.939> 304 61<149.068 234.37> 620 77<241.655 339.399>
VStem: 54 81<380.941 515.168> 332 141<617.281 684>
LayerCount: 2
Fore
SplineSet
51 189 m 2,0,1
 42 189 42 189 37 193 c 128,-1,2
 32 197 32 197 32 203 c 2,3,-1
 32 232 l 2,4,5
 32 239 32 239 38 244 c 128,-1,6
 44 249 44 249 51 249 c 2,7,-1
 439 249 l 2,8,9
 448 249 448 249 453.5 245 c 128,-1,10
 459 241 459 241 459 234 c 2,11,-1
 459 206 l 2,12,13
 459 199 459 199 453 194 c 128,-1,14
 447 189 447 189 439 189 c 2,15,-1
 51 189 l 2,0,1
454 623 m 1,16,-1
 394 501 l 1,17,-1
 402 400 l 2,18,19
 404 377 404 377 415.5 367 c 128,-1,20
 427 357 427 357 449 357 c 0,21,22
 464 357 464 357 481.5 363.5 c 128,-1,23
 499 370 499 370 526 387 c 1,24,-1
 550 355 l 1,25,26
 508 327 508 327 478 314.5 c 128,-1,27
 448 302 448 302 422 302 c 0,28,29
 376 302 376 302 352.5 331 c 128,-1,30
 329 360 329 360 329 416 c 1,31,32
 287 359 287 359 244 331.5 c 128,-1,33
 201 304 201 304 157 304 c 0,34,35
 109 304 109 304 81.5 334.5 c 128,-1,36
 54 365 54 365 54 418 c 0,37,38
 54 477 54 477 88.5 541.5 c 128,-1,39
 123 606 123 606 178 647 c 0,40,41
 207 670 207 670 246.5 683.5 c 128,-1,42
 286 697 286 697 317 697 c 0,43,44
 333 697 333 697 341 691.5 c 128,-1,45
 349 686 349 686 349 673 c 0,46,47
 349 652 349 652 335 636 c 128,-1,48
 321 620 321 620 301 620 c 0,49,50
 290 620 290 620 276 624 c 128,-1,51
 262 628 262 628 241 637 c 1,52,53
 187 587 187 587 161 538 c 128,-1,54
 135 489 135 489 135 436 c 0,55,56
 135 403 135 403 149.5 384 c 128,-1,57
 164 365 164 365 190 365 c 0,58,59
 220 365 220 365 252 392 c 0,60,61
 282 420 282 420 324 483 c 1,62,63
 326 503 326 503 332 535 c 0,64,65
 356 698 356 698 411 699 c 0,66,67
 437 699 437 699 455 691.5 c 128,-1,68
 473 684 473 684 473 672 c 0,69,70
 473 662 473 662 455 626 c 1,71,-1
 454 623 l 1,16,-1
EndSplineSet
EndChar

StartChar: ordmasculine
Encoding: 186 186 276
Width: 600
Flags: W
HStem: 189 60<58.1575 399.843> 295 57<199.822 319.261> 645 20G<450.5 460.5> 646 55<256.776 370.989>
VStem: 88 88<376.515 531.329> 365 114<520.995 635.494>
LayerCount: 2
Fore
SplineSet
73 189 m 2,0,1
 63 189 63 189 58 193 c 128,-1,2
 53 197 53 197 52 203 c 2,3,-1
 52 232 l 2,4,5
 52 239 52 239 58.5 244 c 128,-1,6
 65 249 65 249 73 249 c 2,7,-1
 386 249 l 2,8,9
 395 249 395 249 400 245 c 128,-1,10
 405 241 405 241 405 234 c 2,11,-1
 405 206 l 2,12,13
 405 199 405 199 399 194 c 128,-1,14
 393 189 393 189 386 189 c 2,15,-1
 73 189 l 2,0,1
389 663 m 2,16,-1
 368 646 l 2,17,18
 364 642 364 642 359.5 640 c 128,-1,19
 355 638 355 638 350 638 c 0,20,21
 346 638 346 638 332.5 642 c 128,-1,22
 319 646 319 646 309 646 c 0,23,24
 265 646 265 646 220.5 584 c 128,-1,25
 176 522 176 522 176 446 c 0,26,27
 176 402 176 402 196.5 377 c 128,-1,28
 217 352 217 352 254 352 c 0,29,30
 307 352 307 352 347.5 399 c 128,-1,31
 388 446 388 446 388 504 c 0,32,33
 388 527 388 527 376.5 559.5 c 128,-1,34
 365 592 365 592 365 605 c 0,35,36
 365 614 365 614 370 622 c 128,-1,37
 375 630 375 630 382 633 c 2,38,-1
 425 656 l 2,39,40
 433 660 433 660 440.5 662.5 c 128,-1,41
 448 665 448 665 453 665 c 0,42,43
 468 665 468 665 474 652 c 0,44,45
 479 642 479 642 479 623 c 0,46,47
 479 620 479 620 479 616.5 c 128,-1,48
 479 613 479 613 479 609 c 0,49,50
 479 480 479 480 409.5 387.5 c 128,-1,51
 340 295 340 295 240 295 c 0,52,53
 173 295 173 295 130.5 335.5 c 128,-1,54
 88 376 88 376 88 439 c 0,55,56
 88 500 88 500 126.5 562.5 c 128,-1,57
 165 625 165 625 231 665 c 0,58,59
 260 683 260 683 283.5 691.5 c 128,-1,60
 307 700 307 700 327 701 c 0,61,62
 351 701 351 701 372.5 692 c 128,-1,63
 394 683 394 683 394 674 c 0,64,65
 394 672 394 672 392.5 668.5 c 128,-1,66
 391 665 391 665 389 663 c 2,16,-1
EndSplineSet
EndChar

StartChar: uni207F
Encoding: 8319 8319 277
Width: 600
Flags: W
HStem: -189 56<243.237 343.922> 71 57<282.102 384.054>
VStem: 163 71<-124.621 14.0322> 392 71<-73.1022 54.7294>
LayerCount: 2
Fore
SplineSet
391.5 -143 m 132,-1,1
 343 -189 343 -189 275 -189 c 260,2,3
 207 -189 207 -189 180 -143 c 4,4,5
 163 -115 163 -115 163 -78 c 4,6,7
 163 -56 163 -56 169 -30 c 4,8,9
 186 38 186 38 234.5 83 c 132,-1,10
 283 128 283 128 352 128 c 4,11,12
 420 128 420 128 446 83 c 4,13,14
 462 55 462 55 463 19 c 4,15,16
 463 -4 463 -4 456 -30 c 4,17,0
 440 -97 440 -97 391.5 -143 c 132,-1,1
386 47 m 4,18,19
 373 71 373 71 338 71 c 260,20,21
 303 71 303 71 277.5 45.5 c 132,-1,22
 252 20 252 20 240 -30 c 4,23,24
 234 -54 234 -54 234 -73 c 4,25,26
 234 -93 234 -93 240 -106 c 4,27,28
 252 -133 252 -133 288 -133 c 4,29,30
 361 -133 361 -133 386 -30 c 4,31,32
 392 -3 392 -3 392 16.5 c 132,-1,33
 392 36 392 36 386 47 c 4,18,19
EndSplineSet
EndChar

StartChar: uni052C
Encoding: 1324 1324 278
Width: 600
GlyphClass: 2
Flags: W
HStem: 0 69<177 440> 319 68<302 440> 583 72<327 440>
VStem: 53 69<-140 -70> 61 89<434.167 655> 440 87<69 319 387 583> 493 69<-140 -70>
LayerCount: 2
Fore
SplineSet
562 69 m 1,0,-1
 562 -140 l 1,1,-1
 493 -140 l 1,2,-1
 479 0 l 1,3,-1
 136 0 l 1,4,-1
 122 -140 l 1,5,-1
 53 -140 l 1,6,-1
 53 69 l 1,7,-1
 89 69 l 1,8,9
 120 99 120 99 149 162.5 c 128,-1,10
 178 226 178 226 200 329 c 1,11,12
 130 345 130 345 96 394 c 128,-1,13
 62 443 62 443 61 530 c 2,14,-1
 61 655 l 1,15,-1
 150 655 l 1,16,-1
 150 534 l 2,17,18
 150 480 150 480 164.5 447.5 c 128,-1,19
 179 415 179 415 214 401 c 1,20,-1
 223 464 l 1,21,-1
 248 655 l 1,22,-1
 527 655 l 1,23,-1
 527 69 l 1,24,-1
 562 69 l 1,0,-1
312 460 m 2,25,26
 307 414 307 414 302 387 c 1,27,-1
 440 387 l 1,28,-1
 440 583 l 1,29,-1
 327 583 l 1,30,-1
 312 460 l 2,25,26
440 69 m 1,31,-1
 440 319 l 1,32,-1
 296 319 l 1,33,-1
 290 319 l 1,34,35
 269 215 269 215 241.5 160.5 c 128,-1,36
 214 106 214 106 177 69 c 1,37,-1
 440 69 l 1,31,-1
EndSplineSet
EndChar

StartChar: uni052A
Encoding: 1322 1322 279
Width: 600
GlyphClass: 2
Flags: W
HStem: 0 61<90 229> 307 68<302 353 426 452> 591 64<174 229>
VStem: -13 64<-140 -74.6667> 229 73<61 307 375 591> 287 80<-61.25 0> 303 64<-140 -78.75> 353 73<61 307 375 655>
LayerCount: 2
Fore
SplineSet
612 0 m 1,0,-1
 529 0 l 1,1,-1
 452 307 l 1,2,-1
 426 307 l 1,3,-1
 426 0 l 1,4,-1
 367 0 l 1,5,-1
 367 -140 l 1,6,-1
 303 -140 l 1,7,-1
 287 0 l 1,8,-1
 66 0 l 1,9,-1
 51 -140 l 1,10,-1
 -13 -140 l 1,11,-1
 -13 61 l 1,12,-1
 21 61 l 1,13,14
 38 106 38 106 48 140.5 c 128,-1,15
 58 175 58 175 68.5 241.5 c 128,-1,16
 79 308 79 308 86 413 c 2,17,-1
 102 655 l 1,18,-1
 302 655 l 1,19,-1
 302 375 l 1,20,-1
 353 375 l 1,21,-1
 353 655 l 1,22,-1
 426 655 l 1,23,-1
 426 375 l 1,24,-1
 453 375 l 1,25,-1
 519 655 l 1,26,-1
 591 655 l 1,27,-1
 515 344 l 1,28,-1
 612 0 l 1,0,-1
229 591 m 1,29,-1
 174 591 l 1,30,-1
 163 409 l 2,31,32
 155 260 155 260 138 185 c 128,-1,33
 121 110 121 110 90 61 c 1,34,-1
 229 61 l 1,35,-1
 229 591 l 1,29,-1
302 307 m 1,36,-1
 302 61 l 1,37,-1
 353 61 l 1,38,-1
 353 307 l 1,39,-1
 302 307 l 1,36,-1
EndSplineSet
EndChar

StartChar: uni052E
Encoding: 1326 1326 280
Width: 600
Flags: W
HStem: -10 21G<28.3333 67> 583 72<233 399>
VStem: 399 87<69 583> 478 69<-140 -70>
LayerCount: 2
Fore
SplineSet
547 69 m 1,0,-1
 547 -140 l 1,1,-1
 478 -140 l 1,2,-1
 464 0 l 1,3,-1
 399 0 l 1,4,-1
 399 583 l 1,5,-1
 233 583 l 1,6,-1
 208 390 l 2,7,8
 189 242 189 242 168 166.5 c 128,-1,9
 147 91 147 91 120 57 c 128,-1,10
 93 23 93 23 41 -10 c 1,11,-1
 3 50 l 1,12,13
 32 73 32 73 49 98 c 128,-1,14
 66 123 66 123 84 185.5 c 128,-1,15
 102 248 102 248 118 367 c 2,16,-1
 157 655 l 1,17,-1
 486 655 l 1,18,-1
 486 69 l 1,19,-1
 547 69 l 1,0,-1
EndSplineSet
EndChar

StartChar: uni0528
Encoding: 1320 1320 281
Width: 600
GlyphClass: 2
Flags: W
HStem: -201 66<-59.035 70.1675> 0 21G<430 517> 0 21G<430 517> 311 67<170 430> 635 20G<83 170 430 517>
VStem: 83 87<-123.14 311 378 655> 430 87<0 311 378 655>
LayerCount: 2
Fore
SplineSet
517 655 m 1,0,-1
 517 0 l 1,1,-1
 430 0 l 1,2,-1
 430 311 l 1,3,-1
 170 311 l 1,4,-1
 170 -59 l 2,5,6
 170 -128 170 -128 131.5 -164.5 c 128,-1,7
 93 -201 93 -201 25 -201 c 0,8,9
 -39 -201 -39 -201 -88 -166 c 1,10,-1
 -54 -112 l 1,11,12
 -35 -124 -35 -124 -19 -129.5 c 128,-1,13
 -3 -135 -3 -135 21 -135 c 0,14,15
 83 -135 83 -135 83 -64 c 2,16,-1
 83 655 l 1,17,-1
 170 655 l 1,18,-1
 170 378 l 1,19,-1
 430 378 l 1,20,-1
 430 655 l 1,21,-1
 517 655 l 1,0,-1
EndSplineSet
EndChar

StartChar: uni0411
Encoding: 1041 1041 283
Width: 600
GlyphClass: 2
Flags: W
HStem: 0 66<187 395.569> 334 66<187 391.212> 585 70<187 477>
VStem: 101 86<66 334 400 585> 452 90<116.916 279.184>
LayerCount: 2
Fore
SplineSet
477 585 m 1,0,-1
 187 585 l 1,1,-1
 187 400 l 1,2,-1
 274 400 l 2,3,4
 403 400 403 400 472.5 352 c 128,-1,5
 542 304 542 304 542 204 c 0,6,7
 542 97 542 97 471 48.5 c 128,-1,8
 400 0 400 0 275 0 c 2,9,-1
 101 0 l 1,10,-1
 101 655 l 1,11,-1
 485 655 l 1,12,-1
 477 585 l 1,0,-1
187 334 m 1,13,-1
 187 66 l 1,14,-1
 286 66 l 2,15,16
 366 66 366 66 409 95.5 c 128,-1,17
 452 125 452 125 452 203 c 0,18,19
 452 271 452 271 407.5 302.5 c 128,-1,20
 363 334 363 334 287 334 c 2,21,-1
 187 334 l 1,13,-1
EndSplineSet
EndChar

StartChar: uni0413
Encoding: 1043 1043 285
Width: 600
GlyphClass: 2
Flags: W
HStem: 0 21G<136 223> 0 21G<136 223> 581 74<223 535>
VStem: 136 87<0 581>
LayerCount: 2
Fore
SplineSet
535 581 m 1,0,-1
 223 581 l 1,1,-1
 223 0 l 1,2,-1
 136 0 l 1,3,-1
 136 655 l 1,4,-1
 544 655 l 1,5,-1
 535 581 l 1,0,-1
EndSplineSet
EndChar

StartChar: uni0403
Encoding: 1027 1027 286
Width: 600
GlyphClass: 2
Flags: W
HStem: 0 21G<136 223 136 223> 581 74<223 535> 717 21G<407.909 469.867>
VStem: 136 87<0 581>
LayerCount: 2
Fore
SplineSet
629 792 m 5,0,-1
 412 717 l 5,1,-1
 403 761 l 5,2,-1
 611 861 l 5,3,-1
 629 792 l 5,0,-1
EndSplineSet
Refer: 285 1043 N 1 0 0 1 0 0 0
EndChar

StartChar: uni0490
Encoding: 1168 1168 287
Width: 600
GlyphClass: 2
Flags: W
HStem: 0 21G<136 223> 0 21G<136 223> 581 74<223 460>
VStem: 136 87<0 581> 460 84<655 793>
LayerCount: 2
Fore
SplineSet
544 793 m 1,0,-1
 544 655 l 1,1,-1
 535 581 l 1,2,-1
 223 581 l 1,3,-1
 223 0 l 1,4,-1
 136 0 l 1,5,-1
 136 655 l 1,6,-1
 460 655 l 1,7,-1
 460 793 l 1,8,-1
 544 793 l 1,0,-1
EndSplineSet
EndChar

StartChar: uni0414
Encoding: 1044 1044 288
Width: 600
GlyphClass: 2
Flags: W
HStem: 0 69<127 426> 584 71<245 426>
VStem: 0 69<-140 -70> 426 88<69 584> 496 69<-140 -70>
LayerCount: 2
Fore
SplineSet
565 69 m 1,0,-1
 565 -140 l 1,1,-1
 496 -140 l 1,2,-1
 482 0 l 1,3,-1
 83 0 l 1,4,-1
 69 -140 l 1,5,-1
 0 -140 l 1,6,-1
 0 69 l 1,7,-1
 42 69 l 1,8,9
 68 93 68 93 82.5 127.5 c 128,-1,10
 97 162 97 162 107 219 c 128,-1,11
 117 276 117 276 136 417 c 2,12,-1
 143 466 l 1,13,-1
 168 655 l 1,14,-1
 514 655 l 1,15,-1
 514 69 l 1,16,-1
 565 69 l 1,0,-1
426 584 m 1,17,-1
 245 584 l 1,18,-1
 230 461 l 2,19,20
 211 308 211 308 200 241.5 c 128,-1,21
 189 175 189 175 173 135 c 128,-1,22
 157 95 157 95 127 69 c 1,23,-1
 426 69 l 1,24,-1
 426 584 l 1,17,-1
EndSplineSet
EndChar

StartChar: uni0415
Encoding: 1045 1045 289
Width: 600
GlyphClass: 2
Flags: W
HStem: 0 66<212 526> 298 68<212 468> 586 69<212 507>
VStem: 126 86<66 298 366 586>
LayerCount: 2
Fore
SplineSet
212 366 m 1,0,-1
 468 366 l 1,1,-1
 468 298 l 1,2,-1
 212 298 l 1,3,-1
 212 66 l 1,4,-1
 526 66 l 1,5,-1
 526 0 l 1,6,-1
 126 0 l 1,7,-1
 126 655 l 1,8,-1
 517 655 l 1,9,-1
 507 586 l 1,10,-1
 212 586 l 1,11,-1
 212 366 l 1,0,-1
EndSplineSet
EndChar

StartChar: uni0400
Encoding: 1024 1024 290
Width: 600
GlyphClass: 2
Flags: W
HStem: 0 66<212 526> 298 68<212 468> 586 69<212 507> 717 21G<510.154 569.909>
VStem: 126 86<66 298 366 586>
LayerCount: 2
Fore
SplineSet
589 761 m 5,0,-1
 554 717 l 5,1,-1
 383 795 l 5,2,-1
 442 864 l 5,3,-1
 589 761 l 5,0,-1
EndSplineSet
Refer: 289 1045 N 1 0 0 1 0 0 0
EndChar

StartChar: uni0401
Encoding: 1025 1025 291
Width: 600
GlyphClass: 2
Flags: W
HStem: 7 72<228.725 433.947> 368 60<255 465.832> 380 59<396.609 511> 712 20G<555.5 586.03> 729 102<355.016 425.188 548.125 618.673>
VStem: 122 89<94.4449 275.74> 337 105<745.695 813.145>
LayerCount: 2
Fore
SplineSet
345 743 m 4,0,1
 337 753 337 753 337 767 c 4,2,3
 338 776 338 776 339 779 c 4,4,5
 343 800 343 800 363 817 c 4,6,7
 381 831 381 831 403 831 c 260,8,9
 425 831 425 831 435 817 c 4,10,11
 442 807 442 807 442 794 c 4,12,13
 442 787 442 787 440 779 c 4,14,15
 435 757 435 757 417 743 c 4,16,17
 399 729 399 729 378 729 c 4,18,19
 356 729 356 729 345 743 c 4,0,1
538 743 m 4,20,21
 530 753 530 753 530 766 c 4,22,23
 531 776 531 776 532 779 c 4,24,25
 536 800 536 800 556 817 c 4,26,27
 574 831 574 831 595 831 c 4,28,29
 617 831 617 831 628 817 c 4,30,31
 636 807 636 807 636 792 c 6,32,-1
 634 779 l 4,33,34
 631 759 631 759 610 743 c 4,35,36
 592 729 592 729 570 729 c 4,37,38
 550 729 550 729 538 743 c 4,20,21
EndSplineSet
Refer: 27 69 N 1 0 0 1 0 0 0
EndChar

StartChar: uni0416
Encoding: 1046 1046 292
Width: 600
GlyphClass: 2
Flags: W
HStem: 0 21G<12 102.688 261 339 495.376 588> 0 21G<12 102.688 261 339 495.376 588> 311 67<201 261 339 399> 635 20G<27 116.57 261 339 484.357 573>
VStem: 261 78<0 311 378 655>
LayerCount: 2
Fore
SplineSet
200 311 m 1,0,-1
 96 0 l 1,1,-1
 12 0 l 1,2,-1
 135 346 l 1,3,-1
 27 655 l 1,4,-1
 110 655 l 1,5,-1
 201 378 l 1,6,-1
 261 378 l 1,7,-1
 261 655 l 1,8,-1
 339 655 l 1,9,-1
 339 378 l 1,10,-1
 399 378 l 1,11,-1
 491 655 l 1,12,-1
 573 655 l 1,13,-1
 465 346 l 1,14,-1
 588 0 l 1,15,-1
 502 0 l 1,16,-1
 399 311 l 1,17,-1
 339 311 l 1,18,-1
 339 0 l 1,19,-1
 261 0 l 1,20,-1
 261 311 l 1,21,-1
 200 311 l 1,0,-1
EndSplineSet
EndChar

StartChar: uni0417
Encoding: 1047 1047 293
Width: 600
GlyphClass: 2
Flags: W
HStem: -10 69<165.921 381.54> 316 70<175 374.319> 598 67<167.717 376.951>
VStem: 428 89<430.267 553.4> 447 94<118.41 264.255>
LayerCount: 2
Fore
SplineSet
406.5 643.5 m 128,-1,1
 460 622 460 622 488.5 583 c 128,-1,2
 517 544 517 544 517 494 c 0,3,4
 517 436 517 436 477 400.5 c 128,-1,5
 437 365 437 365 375 356 c 1,6,7
 445 350 445 350 493 308 c 128,-1,8
 541 266 541 266 541 195 c 0,9,10
 541 136 541 136 509 89.5 c 128,-1,11
 477 43 477 43 417 16.5 c 128,-1,12
 357 -10 357 -10 278 -10 c 0,13,14
 205 -10 205 -10 142.5 13.5 c 128,-1,15
 80 37 80 37 35 82 c 1,16,-1
 89 128 l 1,17,18
 171 59 171 59 278 59 c 0,19,20
 358 59 358 59 402.5 94 c 128,-1,21
 447 129 447 129 447 192 c 256,22,23
 447 255 447 255 403 285.5 c 128,-1,24
 359 316 359 316 286 316 c 2,25,-1
 165 316 l 1,26,-1
 175 386 l 1,27,-1
 280 386 l 2,28,29
 343 386 343 386 385.5 413 c 128,-1,30
 428 440 428 440 428 493 c 0,31,32
 428 543 428 543 386.5 570.5 c 128,-1,33
 345 598 345 598 279 598 c 0,34,35
 225 598 225 598 182 582 c 128,-1,36
 139 566 139 566 97 535 c 1,37,-1
 49 583 l 1,38,39
 101 624 101 624 157.5 644.5 c 128,-1,40
 214 665 214 665 281 665 c 0,41,0
 353 665 353 665 406.5 643.5 c 128,-1,1
EndSplineSet
EndChar

StartChar: uni0418
Encoding: 1048 1048 294
Width: 600
GlyphClass: 2
Flags: W
HStem: 0 21G<83 205.611 431 517> 0 21G<83 205.611 431 517> 635 20G<83 169 396.409 517>
VStem: 83 86<74.8427 655> 431 86<0 572.311>
LayerCount: 2
Fore
SplineSet
83 655 m 1,0,-1
 169 655 l 1,1,-1
 169 323 l 2,2,3
 169 241 169 241 165.5 186.5 c 128,-1,4
 162 132 162 132 155 73 c 1,5,-1
 405 655 l 1,6,-1
 517 655 l 1,7,-1
 517 0 l 1,8,-1
 431 0 l 1,9,-1
 431 332 l 2,10,11
 431 458 431 458 445 576 c 1,12,-1
 197 0 l 1,13,-1
 83 0 l 1,14,-1
 83 655 l 1,0,-1
EndSplineSet
EndChar

StartChar: uni0419
Encoding: 1049 1049 295
Width: 600
GlyphClass: 2
Flags: W
HStem: 0 21G<83 205.611 83 205.611 431 517 431 517> 635 20G<83 169 396.409 517> 734 62<414.341 538.161>
VStem: 83 86<74.8427 655> 342 56<824.25 841> 431 86<0 572.311>
LayerCount: 2
Fore
SplineSet
366 762 m 4,0,1
 341 786 341 786 341 824 c 4,2,3
 341 832 341 832 342 841 c 5,4,-1
 398 853 l 5,5,6
 401 823 401 823 417.5 809.5 c 4,7,8
 434 796 434 796 468 796 c 4,9,10
 501 796 501 796 525.5 809.5 c 4,11,12
 550 823 550 823 568 853 c 5,13,-1
 619 841 l 5,14,15
 601 791 601 791 554.5 762.5 c 4,16,17
 508 734 508 734 453 734 c 4,18,19
 395 734 395 734 366 762 c 4,0,1
EndSplineSet
Refer: 294 1048 N 1 0 0 1 0 0 0
EndChar

StartChar: uni040D
Encoding: 1037 1037 296
Width: 600
GlyphClass: 2
Flags: W
HStem: 0 21G<83 205.611 83 205.611 431 517 431 517> 635 20G<83 169 396.409 517> 717 21G<489.154 548.909>
VStem: 83 86<74.8427 655> 431 86<0 572.311>
LayerCount: 2
Fore
SplineSet
568 761 m 5,0,-1
 533 717 l 5,1,-1
 362 795 l 5,2,-1
 421 864 l 5,3,-1
 568 761 l 5,0,-1
EndSplineSet
Refer: 294 1048 N 1 0 0 1 0 0 0
EndChar

StartChar: uni048A
Encoding: 1162 1162 297
Width: 600
GlyphClass: 2
Flags: W
HStem: 0 21G<83 205.611> 0 21G<83 205.611> 635 20G<83 169 396.409 517> 734 62<235.484 368.033>
VStem: 83 86<74.8427 655> 151 57<818.357 842.474> 391 58<818.97 842.448> 431 86<66 572.311>
LayerCount: 2
Fore
SplineSet
198 762 m 128,-1,1
 157 790 157 790 151 841 c 1,2,-1
 208 853 l 1,3,4
 219 823 219 823 240.5 809.5 c 128,-1,5
 262 796 262 796 298 796 c 256,6,7
 334 796 334 796 357 809.5 c 128,-1,8
 380 823 380 823 391 853 c 1,9,-1
 449 841 l 1,10,11
 443 791 443 791 400.5 762.5 c 128,-1,12
 358 734 358 734 298 734 c 0,13,0
 239 734 239 734 198 762 c 128,-1,1
607 66 m 1,14,-1
 529 -140 l 1,15,-1
 461 -140 l 1,16,-1
 496 0 l 1,17,-1
 431 0 l 1,18,-1
 431 332 l 2,19,20
 431 458 431 458 445 576 c 1,21,-1
 197 0 l 1,22,-1
 83 0 l 1,23,-1
 83 655 l 1,24,-1
 169 655 l 1,25,-1
 169 323 l 2,26,27
 169 241 169 241 165.5 186.5 c 128,-1,28
 162 132 162 132 155 73 c 1,29,-1
 405 655 l 1,30,-1
 517 655 l 1,31,-1
 517 66 l 1,32,-1
 607 66 l 1,14,-1
EndSplineSet
EndChar

StartChar: uni041A
Encoding: 1050 1050 298
Width: 600
GlyphClass: 2
Flags: W
HStem: 0 21G<95 181 467.742 587> 0 21G<95 181 467.742 587> 310 69<181 261> 635 20G<95 181 458.638 568>
VStem: 95 86<0 310 379 655>
LayerCount: 2
Fore
SplineSet
181 310 m 1,0,-1
 181 0 l 1,1,-1
 95 0 l 1,2,-1
 95 655 l 1,3,-1
 181 655 l 1,4,-1
 181 379 l 1,5,-1
 262 379 l 1,6,-1
 474 655 l 1,7,-1
 568 655 l 1,8,-1
 336 346 l 1,9,-1
 587 0 l 1,10,-1
 482 0 l 1,11,-1
 261 310 l 1,12,-1
 181 310 l 1,0,-1
EndSplineSet
EndChar

StartChar: uni040C
Encoding: 1036 1036 299
Width: 600
GlyphClass: 2
Flags: W
HStem: 0 21G<95 181 95 181 467.742 587 467.742 587> 310 69<181 261> 635 20G<95 181 458.638 568> 717 21G<378.909 440.867>
VStem: 95 86<0 310 379 655>
LayerCount: 2
Fore
SplineSet
600 792 m 5,0,-1
 383 717 l 5,1,-1
 374 761 l 5,2,-1
 582 861 l 5,3,-1
 600 792 l 5,0,-1
EndSplineSet
Refer: 298 1050 N 1 0 0 1 0 0 0
EndChar

StartChar: uni041B
Encoding: 1051 1051 300
Width: 600
GlyphClass: 2
Flags: W
HStem: 0 21G<40.3333 79 430 517> 583 72<245 430>
VStem: 430 87<0 583>
LayerCount: 2
Fore
SplineSet
517 0 m 1,0,-1
 430 0 l 1,1,-1
 430 583 l 1,2,-1
 245 583 l 1,3,-1
 220 390 l 2,4,5
 201 242 201 242 180 166.5 c 128,-1,6
 159 91 159 91 132 57 c 128,-1,7
 105 23 105 23 53 -10 c 1,8,-1
 15 50 l 1,9,10
 44 73 44 73 61 98 c 128,-1,11
 78 123 78 123 96 185.5 c 128,-1,12
 114 248 114 248 130 367 c 2,13,-1
 169 655 l 1,14,-1
 517 655 l 1,15,-1
 517 0 l 1,0,-1
EndSplineSet
EndChar

StartChar: uni041E
Encoding: 1054 1054 303
Width: 600
GlyphClass: 2
Flags: W
HStem: -10 69<219.332 380.73> 596 69<218.757 380.73>
VStem: 47 90<168.296 481.349> 463 90<171.084 485.133>
LayerCount: 2
Fore
SplineSet
487.5 82 m 128,-1,1
 422 -10 422 -10 300 -10 c 0,2,3
 177 -10 177 -10 112 80 c 128,-1,4
 47 170 47 170 47 326 c 0,5,6
 47 426 47 426 76 503 c 128,-1,7
 105 580 105 580 162 622.5 c 128,-1,8
 219 665 219 665 300 665 c 0,9,10
 422 665 422 665 487.5 573.5 c 128,-1,11
 553 482 553 482 553 327 c 0,12,0
 553 174 553 174 487.5 82 c 128,-1,1
424 528.5 m 128,-1,14
 385 596 385 596 300 596 c 256,15,16
 215 596 215 596 176 528 c 128,-1,17
 137 460 137 460 137 326 c 0,18,19
 137 193 137 193 176.5 126 c 128,-1,20
 216 59 216 59 300 59 c 0,21,22
 385 59 385 59 424 126 c 128,-1,23
 463 193 463 193 463 327 c 256,24,13
 463 461 463 461 424 528.5 c 128,-1,14
EndSplineSet
EndChar

StartChar: uni041F
Encoding: 1055 1055 304
Width: 600
GlyphClass: 2
Flags: W
HStem: 0 21G<83 170 430 517> 0 21G<83 170 430 517> 582 73<170 430>
VStem: 83 87<0 582> 430 87<0 582>
LayerCount: 2
Fore
SplineSet
430 582 m 1,0,-1
 170 582 l 1,1,-1
 170 0 l 1,2,-1
 83 0 l 1,3,-1
 83 655 l 1,4,-1
 517 655 l 1,5,-1
 517 0 l 1,6,-1
 430 0 l 1,7,-1
 430 582 l 1,0,-1
EndSplineSet
EndChar

StartChar: uni0423
Encoding: 1059 1059 308
Width: 600
GlyphClass: 2
Flags: W
HStem: -10 65<120.6 197.499> 635 20G<26 126.311 484.449 580>
LayerCount: 2
Fore
SplineSet
369 171 m 2,0,1
 344 113 344 113 314.5 77.5 c 128,-1,2
 285 42 285 42 239 20 c 128,-1,3
 193 -2 193 -2 122 -10 c 1,4,-1
 109 55 l 1,5,6
 169 64 169 64 203.5 79 c 128,-1,7
 238 94 238 94 257 118 c 0,8,9
 276 140 276 140 291 180 c 1,10,-1
 254 180 l 1,11,-1
 26 655 l 1,12,-1
 117 655 l 1,13,-1
 313 234 l 1,14,-1
 493 655 l 1,15,-1
 580 655 l 1,16,-1
 369 171 l 2,0,1
EndSplineSet
EndChar

StartChar: uni040E
Encoding: 1038 1038 309
Width: 600
GlyphClass: 2
Flags: W
HStem: -10 65<120.6 197.499> 635 20G<26 126.311 484.449 580> 721 62<422.062 538.822>
VStem: 350 56<814.312 834>
LayerCount: 2
Fore
SplineSet
373 752 m 4,0,1
 348 776 348 776 348 814 c 4,2,3
 348 824 348 824 350 834 c 5,4,-1
 406 846 l 5,5,6
 414 782 414 782 474 783 c 4,7,8
 506 783 506 783 532.5 800 c 4,9,10
 559 817 559 817 576 846 c 5,11,-1
 627 834 l 5,12,13
 609 783 609 783 561.5 752 c 4,14,15
 514 721 514 721 459 721 c 4,16,17
 406 721 406 721 373 752 c 4,0,1
EndSplineSet
Refer: 308 1059 N 1 0 0 1 0 0 0
EndChar

StartChar: uni0424
Encoding: 1060 1060 310
Width: 600
GlyphClass: 2
Flags: W
HStem: 29 61<185.441 258 342 414.064> 662 20G<258 342>
VStem: 13 88<184.016 474.007> 258 84<-28 29 90 565 624.35 682> 499 88<185.869 473.59>
CounterMasks: 1 38
LayerCount: 2
Fore
SplineSet
342 626 m 1,0,1
 467 617 467 617 527 543.5 c 128,-1,2
 587 470 587 470 587 330 c 0,3,4
 587 186 587 186 524 110.5 c 128,-1,5
 461 35 461 35 342 29 c 1,6,-1
 342 -28 l 1,7,-1
 258 -28 l 1,8,-1
 258 29 l 1,9,10
 138 34 138 34 75.5 109 c 128,-1,11
 13 184 13 184 13 330 c 0,12,13
 13 471 13 471 73 544.5 c 128,-1,14
 133 618 133 618 258 626 c 1,15,-1
 258 682 l 1,16,-1
 342 682 l 1,17,-1
 342 626 l 1,0,1
139 508 m 128,-1,19
 101 454 101 454 101 330 c 0,20,21
 101 209 101 209 138 153.5 c 128,-1,22
 175 98 175 98 259 90 c 1,23,-1
 259 565 l 1,24,18
 177 562 177 562 139 508 c 128,-1,19
341 90 m 1,25,26
 425 98 425 98 462 153.5 c 128,-1,27
 499 209 499 209 499 330 c 0,28,29
 499 454 499 454 461 508 c 128,-1,30
 423 562 423 562 341 565 c 1,31,-1
 341 90 l 1,25,26
EndSplineSet
EndChar

StartChar: uni0427
Encoding: 1063 1063 312
Width: 600
GlyphClass: 2
Flags: W
HStem: 0 21G<430 517> 0 21G<430 517> 208 72<185.488 362.388> 635 20G<51 137 430 517>
VStem: 51 86<327.19 655> 430 87<0 268 321.291 655>
LayerCount: 2
Fore
SplineSet
517 655 m 1,0,-1
 517 0 l 1,1,-1
 430 0 l 1,2,-1
 430 268 l 1,3,4
 384 236 384 236 344 222 c 128,-1,5
 304 208 304 208 251 208 c 0,6,7
 161 208 161 208 106 261 c 128,-1,8
 51 314 51 314 51 402 c 2,9,-1
 51 655 l 1,10,-1
 137 655 l 1,11,-1
 137 408 l 2,12,13
 137 343 137 343 172 311.5 c 128,-1,14
 207 280 207 280 273 280 c 0,15,16
 367 280 367 280 430 338 c 1,17,-1
 430 655 l 1,18,-1
 517 655 l 1,0,-1
EndSplineSet
EndChar

StartChar: uni0426
Encoding: 1062 1062 313
Width: 600
GlyphClass: 2
Flags: W
HStem: 0 68<170 430> 635 20G<83 170 430 517>
VStem: 83 87<68 655> 430 87<69 655> 509 69<-140 -70>
LayerCount: 2
Fore
SplineSet
578 69 m 1,0,-1
 578 -140 l 1,1,-1
 509 -140 l 1,2,-1
 495 0 l 1,3,-1
 83 0 l 1,4,-1
 83 655 l 1,5,-1
 170 655 l 1,6,-1
 170 68 l 1,7,-1
 430 68 l 1,8,-1
 430 655 l 1,9,-1
 517 655 l 1,10,-1
 517 69 l 1,11,-1
 578 69 l 1,0,-1
EndSplineSet
EndChar

StartChar: uni0428
Encoding: 1064 1064 314
Width: 600
GlyphClass: 2
Flags: W
HStem: 0 69<128 261 339 472> 635 20G<46 128 261 339 472 554>
VStem: 46 82<69 655> 261 78<69 655> 472 82<69 655>
CounterMasks: 1 38
LayerCount: 2
Fore
SplineSet
554 0 m 1,0,-1
 46 0 l 1,1,-1
 46 655 l 1,2,-1
 128 655 l 1,3,-1
 128 69 l 1,4,-1
 261 69 l 1,5,-1
 261 655 l 1,6,-1
 339 655 l 1,7,-1
 339 69 l 1,8,-1
 472 69 l 1,9,-1
 472 655 l 1,10,-1
 554 655 l 1,11,-1
 554 0 l 1,0,-1
EndSplineSet
EndChar

StartChar: uni0429
Encoding: 1065 1065 315
Width: 600
GlyphClass: 2
Flags: W
HStem: 0 69<128 261 339 472> 635 20G<46 128 261 339 472 554>
VStem: 46 82<69 655> 261 78<69 655> 472 82<69 655> 546 69<-140 -70>
LayerCount: 2
Fore
SplineSet
615 69 m 1,0,-1
 615 -140 l 1,1,-1
 546 -140 l 1,2,-1
 532 0 l 1,3,-1
 46 0 l 1,4,-1
 46 655 l 1,5,-1
 128 655 l 1,6,-1
 128 69 l 1,7,-1
 261 69 l 1,8,-1
 261 655 l 1,9,-1
 339 655 l 1,10,-1
 339 69 l 1,11,-1
 472 69 l 1,12,-1
 472 655 l 1,13,-1
 554 655 l 1,14,-1
 554 69 l 1,15,-1
 615 69 l 1,0,-1
EndSplineSet
EndChar

StartChar: uni040F
Encoding: 1039 1039 316
Width: 600
GlyphClass: 2
Flags: W
HStem: 0 68<170 259 342 430> 635 20G<83 170 430 517>
VStem: 83 87<68 655> 259 83<-70 0> 273 69<-140 -70> 430 87<68 655>
LayerCount: 2
Fore
SplineSet
517 0 m 1,0,-1
 342 0 l 1,1,-1
 342 -140 l 1,2,-1
 273 -140 l 1,3,-1
 259 0 l 1,4,-1
 83 0 l 1,5,-1
 83 655 l 1,6,-1
 170 655 l 1,7,-1
 170 68 l 1,8,-1
 243 68 l 1,9,-1
 243 69 l 1,10,-1
 342 69 l 1,11,-1
 342 68 l 1,12,-1
 430 68 l 1,13,-1
 430 655 l 1,14,-1
 517 655 l 1,15,-1
 517 0 l 1,0,-1
EndSplineSet
EndChar

StartChar: uni042C
Encoding: 1068 1068 317
Width: 600
GlyphClass: 2
Flags: W
HStem: 0 67<181 400.842> 346 65<181 398.08> 635 20G<94 181>
VStem: 94 87<67 346 411 655> 459 92<120.294 290.549>
LayerCount: 2
Fore
SplineSet
181 411 m 1,0,-1
 285 411 l 2,1,2
 413 411 413 411 482 362.5 c 128,-1,3
 551 314 551 314 551 210 c 0,4,5
 551 102 551 102 480 51 c 128,-1,6
 409 0 409 0 286 0 c 2,7,-1
 94 0 l 1,8,-1
 94 655 l 1,9,-1
 181 655 l 1,10,-1
 181 411 l 1,0,-1
181 346 m 1,11,-1
 181 67 l 1,12,-1
 296 67 l 2,13,14
 374 67 374 67 416.5 98 c 128,-1,15
 459 129 459 129 459 209 c 0,16,17
 459 281 459 281 415.5 313.5 c 128,-1,18
 372 346 372 346 297 346 c 2,19,-1
 181 346 l 1,11,-1
EndSplineSet
EndChar

StartChar: uni042A
Encoding: 1066 1066 318
Width: 600
Flags: W
HStem: 0 67<209 432.012> 346 65<209 428.25> 581 74<0 121>
VStem: 121 88<67 346 411 581> 491 90<119.99 290.549>
LayerCount: 2
Fore
SplineSet
209 411 m 1,0,-1
 315 411 l 2,1,2
 443 411 443 411 512 362.5 c 128,-1,3
 581 314 581 314 581 210 c 0,4,5
 581 101 581 101 510 50.5 c 128,-1,6
 439 0 439 0 316 0 c 2,7,-1
 121 0 l 1,8,-1
 121 581 l 1,9,-1
 0 581 l 1,10,-1
 0 655 l 1,11,-1
 209 655 l 1,12,-1
 209 411 l 1,0,-1
209 346 m 1,13,-1
 209 67 l 1,14,-1
 331 67 l 2,15,16
 407 67 407 67 449 98 c 128,-1,17
 491 129 491 129 491 209 c 0,18,19
 491 281 491 281 447.5 313.5 c 128,-1,20
 404 346 404 346 329 346 c 2,21,-1
 209 346 l 1,13,-1
EndSplineSet
EndChar

StartChar: uni042B
Encoding: 1067 1067 319
Width: 600
GlyphClass: 2
Flags: W
HStem: 0 66<119 285.207> 349 62<119 282.243> 635 20G<31 119 481 569>
VStem: 31 88<66 349 411 655> 338 92<118.144 294.479> 481 88<0 655>
LayerCount: 2
Fore
SplineSet
119 411 m 1,0,-1
 182 411 l 2,1,2
 307 411 307 411 368.5 360 c 128,-1,3
 430 309 430 309 430 210 c 0,4,5
 430 106 430 106 366.5 53 c 128,-1,6
 303 0 303 0 184 0 c 2,7,-1
 31 0 l 1,8,-1
 31 655 l 1,9,-1
 119 655 l 1,10,-1
 119 411 l 1,0,-1
569 0 m 1,11,-1
 481 0 l 1,12,-1
 481 655 l 1,13,-1
 569 655 l 1,14,-1
 569 0 l 1,11,-1
119 349 m 1,15,-1
 119 66 l 1,16,-1
 193 66 l 2,17,18
 265 66 265 66 301.5 99.5 c 128,-1,19
 338 133 338 133 338 209 c 0,20,21
 338 349 338 349 191 349 c 2,22,-1
 119 349 l 1,15,-1
EndSplineSet
EndChar

StartChar: uni0409
Encoding: 1033 1033 320
Width: 600
GlyphClass: 2
Flags: W
HStem: -10 21G<29.7037 63> 0 66<355 461.075> 348 63<355 460.227> 586 69<175 269>
VStem: 269 86<66 348 411 586> 510 90<112.135 300.675>
LayerCount: 2
Fore
SplineSet
355 411 m 1,0,1
 479 411 479 411 539.5 362.5 c 128,-1,2
 600 314 600 314 600 210 c 0,3,4
 600 0 600 0 363 0 c 2,5,-1
 269 0 l 1,6,-1
 269 586 l 1,7,-1
 175 586 l 1,8,-1
 152 295 l 2,9,10
 143 182 143 182 130 124 c 128,-1,11
 117 66 117 66 98.5 40 c 128,-1,12
 80 14 80 14 46 -10 c 1,13,-1
 2 44 l 1,14,15
 20 63 20 63 31 86 c 128,-1,16
 42 109 42 109 51.5 158.5 c 128,-1,17
 61 208 61 208 69 297 c 2,18,-1
 99 655 l 1,19,-1
 355 655 l 1,20,-1
 355 411 l 1,0,1
355 348 m 1,21,-1
 355 66 l 1,22,-1
 370 66 l 2,23,24
 442 66 442 66 476 96.5 c 128,-1,25
 510 127 510 127 510 209 c 0,26,27
 510 284 510 284 475.5 316 c 128,-1,28
 441 348 441 348 371 348 c 2,29,-1
 355 348 l 1,21,-1
EndSplineSet
EndChar

StartChar: uni040A
Encoding: 1034 1034 321
Width: 600
GlyphClass: 2
Flags: W
HStem: 0 65<354 467.237> 332 61<127 269 354 462.875> 635 20G<41 127 269 354>
VStem: 41 86<0 332 393 655> 269 85<65 332 393 655> 509 91<104.995 287.157>
LayerCount: 2
Fore
SplineSet
354 393 m 1,0,1
 479 393 479 393 539.5 346.5 c 128,-1,2
 600 300 600 300 600 201 c 0,3,4
 600 95 600 95 539 47.5 c 128,-1,5
 478 0 478 0 363 0 c 2,6,-1
 269 0 l 1,7,-1
 269 332 l 1,8,-1
 127 332 l 1,9,-1
 127 0 l 1,10,-1
 41 0 l 1,11,-1
 41 655 l 1,12,-1
 127 655 l 1,13,-1
 127 393 l 1,14,-1
 269 393 l 1,15,-1
 269 655 l 1,16,-1
 354 655 l 1,17,-1
 354 393 l 1,0,1
354 332 m 1,18,-1
 354 65 l 1,19,-1
 371 65 l 2,20,21
 419 65 419 65 448.5 75.5 c 128,-1,22
 478 86 478 86 493.5 115.5 c 128,-1,23
 509 145 509 145 509 200 c 0,24,25
 509 271 509 271 475 301.5 c 128,-1,26
 441 332 441 332 371 332 c 2,27,-1
 354 332 l 1,18,-1
EndSplineSet
EndChar

StartChar: uni0404
Encoding: 1028 1028 323
Width: 600
GlyphClass: 2
Flags: W
HStem: -10 68<262.106 460.835> 302 68<149 454> 598 67<262.523 461.251>
VStem: 58 89<186.363 302 370 466.782>
LayerCount: 2
Fore
SplineSet
463 649 m 128,-1,1
 510 633 510 633 552 601 c 1,2,-1
 507 551 l 1,3,4
 439 598 439 598 358 598 c 0,5,6
 272 598 272 598 215.5 543 c 128,-1,7
 159 488 159 488 149 370 c 1,8,-1
 454 370 l 1,9,-1
 454 302 l 1,10,-1
 147 302 l 1,11,12
 153 178 153 178 210 118 c 128,-1,13
 267 58 267 58 357 58 c 0,14,15
 450 58 450 58 516 115 c 1,16,-1
 562 61 l 1,17,18
 526 30 526 30 474.5 10 c 128,-1,19
 423 -10 423 -10 354 -10 c 0,20,21
 267 -10 267 -10 200 28.5 c 128,-1,22
 133 67 133 67 95.5 143.5 c 128,-1,23
 58 220 58 220 58 328 c 0,24,25
 58 434 58 434 97.5 510.5 c 128,-1,26
 137 587 137 587 204 626 c 128,-1,27
 271 665 271 665 352 665 c 0,28,0
 416 665 416 665 463 649 c 128,-1,1
EndSplineSet
EndChar

StartChar: uni042D
Encoding: 1069 1069 324
Width: 600
GlyphClass: 2
Flags: W
HStem: -10 68<155.574 349.764> 301 70<146 449> 598 67<163.384 357.173>
VStem: 449 90<178.937 301 371 487.524>
LayerCount: 2
Fore
SplineSet
467.5 581.5 m 128,-1,1
 539 498 539 498 539 335 c 0,2,3
 539 167 539 167 465 78.5 c 128,-1,4
 391 -10 391 -10 261 -10 c 0,5,6
 195 -10 195 -10 138 12 c 128,-1,7
 81 34 81 34 42 73 c 1,8,-1
 94 120 l 1,9,10
 131 89 131 89 169.5 73.5 c 128,-1,11
 208 58 208 58 256 58 c 0,12,13
 347 58 347 58 395 117.5 c 128,-1,14
 443 177 443 177 449 301 c 1,15,-1
 146 301 l 1,16,-1
 146 371 l 1,17,-1
 449 371 l 1,18,19
 442 491 442 491 396 544.5 c 128,-1,20
 350 598 350 598 265 598 c 0,21,22
 212 598 212 598 173.5 581 c 128,-1,23
 135 564 135 564 98 536 c 1,24,-1
 50 584 l 1,25,26
 148 665 148 665 269 665 c 0,27,0
 396 665 396 665 467.5 581.5 c 128,-1,1
EndSplineSet
EndChar

StartChar: uni0407
Encoding: 1031 1031 326
Width: 600
GlyphClass: 2
Flags: W
HStem: -9 69<173.094 227.032> 710 20G<366.048 514.5> 729 102<334.016 404.188 527.125 597.673>
VStem: 316 105<745.695 813.145>
LayerCount: 2
Fore
SplineSet
324 743 m 4,0,1
 316 753 316 753 316 767 c 4,2,3
 317 776 317 776 318 779 c 4,4,5
 322 800 322 800 342 817 c 4,6,7
 360 831 360 831 382 831 c 260,8,9
 404 831 404 831 414 817 c 4,10,11
 421 807 421 807 421 794 c 4,12,13
 421 787 421 787 419 779 c 4,14,15
 414 757 414 757 396 743 c 4,16,17
 378 729 378 729 357 729 c 4,18,19
 335 729 335 729 324 743 c 4,0,1
517 743 m 4,20,21
 509 753 509 753 509 766 c 4,22,23
 510 776 510 776 511 779 c 4,24,25
 515 800 515 800 535 817 c 4,26,27
 553 831 553 831 574 831 c 4,28,29
 596 831 596 831 607 817 c 4,30,31
 615 807 615 807 615 792 c 6,32,-1
 613 779 l 4,33,34
 610 759 610 759 589 743 c 4,35,36
 571 729 571 729 549 729 c 4,37,38
 529 729 529 729 517 743 c 4,20,21
EndSplineSet
Refer: 46 73 N 1 0 0 1 0 0 0
EndChar

StartChar: uni040B
Encoding: 1035 1035 328
Width: 600
Flags: W
HStem: 0 21G<157 244 480 566> 0 21G<157 244 480 566> 355 73<295.118 445.288> 585 70<-5 157 244 404>
VStem: 157 87<0 322.139 370 585> 480 86<0 318.875>
LayerCount: 2
Fore
SplineSet
404 585 m 1,0,-1
 244 585 l 1,1,-1
 244 370 l 1,2,3
 306 428 306 428 388 428 c 0,4,5
 566 428 566 428 566 234 c 2,6,-1
 566 0 l 1,7,-1
 480 0 l 1,8,-1
 480 228 l 2,9,10
 480 296 480 296 454.5 325.5 c 128,-1,11
 429 355 429 355 369 355 c 0,12,13
 327 355 327 355 297.5 341 c 128,-1,14
 268 327 268 327 244 305 c 1,15,-1
 244 0 l 1,16,-1
 157 0 l 1,17,-1
 157 585 l 1,18,-1
 -5 585 l 1,19,-1
 -5 655 l 1,20,-1
 413 655 l 1,21,-1
 404 585 l 1,0,-1
EndSplineSet
EndChar

StartChar: uni042E
Encoding: 1070 1070 329
Width: 600
GlyphClass: 2
Flags: W
HStem: -10 67<332.299 442.524> 0 21G<47 130> 0 21G<47 130> 305 68<130 198> 598 67<333.141 440.579> 635 20G<47 130>
VStem: 47 83<0 305 373 655> 198 89<132.575 305 373 520.64> 490 89<135.527 526.337>
LayerCount: 2
Fore
SplineSet
536 582.5 m 128,-1,1
 579 500 579 500 579 327 c 0,2,3
 579 160 579 160 533.5 75 c 128,-1,4
 488 -10 488 -10 388 -10 c 0,5,6
 286 -10 286 -10 243 71.5 c 128,-1,7
 200 153 200 153 198 305 c 1,8,-1
 130 305 l 1,9,-1
 130 0 l 1,10,-1
 47 0 l 1,11,-1
 47 655 l 1,12,-1
 130 655 l 1,13,-1
 130 373 l 1,14,-1
 199 373 l 1,15,16
 205 519 205 519 249 592 c 128,-1,17
 293 665 293 665 388 665 c 0,18,0
 493 665 493 665 536 582.5 c 128,-1,1
328.5 572 m 128,-1,20
 307 546 307 546 297 487.5 c 128,-1,21
 287 429 287 429 287 328 c 0,22,23
 287 225 287 225 297 166.5 c 128,-1,24
 307 108 307 108 328.5 82.5 c 128,-1,25
 350 57 350 57 388 57 c 0,26,27
 424 57 424 57 446 82.5 c 128,-1,28
 468 108 468 108 479 167 c 128,-1,29
 490 226 490 226 490 327 c 0,30,31
 490 427 490 427 479 486 c 128,-1,32
 468 545 468 545 446 571.5 c 128,-1,33
 424 598 424 598 388 598 c 0,34,19
 350 598 350 598 328.5 572 c 128,-1,20
EndSplineSet
EndChar

StartChar: uni042F
Encoding: 1071 1071 330
Width: 600
GlyphClass: 2
Flags: W
HStem: 0 21G<33 142.103 430 517> 0 21G<33 142.103 430 517> 263 67<277 430> 588 67<220.983 430>
VStem: 75 93<378.26 538.667> 430 87<0 263 330 588>
LayerCount: 2
Fore
SplineSet
517 0 m 1,0,-1
 430 0 l 1,1,-1
 430 263 l 1,2,-1
 277 263 l 1,3,-1
 131 0 l 1,4,-1
 33 0 l 1,5,-1
 195 282 l 1,6,7
 136 308 136 308 105.5 354 c 128,-1,8
 75 400 75 400 75 460 c 0,9,10
 75 553 75 553 142 604 c 128,-1,11
 209 655 209 655 336 655 c 2,12,-1
 517 655 l 1,13,-1
 517 0 l 1,0,-1
325 588 m 2,14,15
 245 588 245 588 206.5 557 c 128,-1,16
 168 526 168 526 168 461 c 0,17,18
 168 330 168 330 307 330 c 2,19,-1
 430 330 l 1,20,-1
 430 588 l 1,21,-1
 325 588 l 2,14,15
EndSplineSet
EndChar

StartChar: uni0402
Encoding: 1026 1026 331
Width: 600
GlyphClass: 2
Flags: W
HStem: -128 65<390.631 416.85> 0 21G<157 244> 0 21G<157 244> 355 73<296.748 445.288> 585 70<-5 157 244 404>
VStem: 157 87<0 322.139 370 585> 480 86<-4.58447 318.875>
LayerCount: 2
Fore
SplineSet
244 370 m 1,0,1
 309 428 309 428 388 428 c 0,2,3
 566 428 566 428 566 234 c 2,4,-1
 566 91 l 2,5,6
 566 -3 566 -3 523.5 -51.5 c 128,-1,7
 481 -100 481 -100 393 -128 c 1,8,-1
 371 -63 l 1,9,10
 415 -46 415 -46 438.5 -27 c 128,-1,11
 462 -8 462 -8 471 19.5 c 128,-1,12
 480 47 480 47 480 90 c 2,13,-1
 480 228 l 2,14,15
 480 296 480 296 454.5 325.5 c 128,-1,16
 429 355 429 355 369 355 c 0,17,18
 327 355 327 355 297.5 341 c 128,-1,19
 268 327 268 327 244 305 c 1,20,-1
 244 0 l 1,21,-1
 157 0 l 1,22,-1
 157 585 l 1,23,-1
 -5 585 l 1,24,-1
 -5 655 l 1,25,-1
 413 655 l 1,26,-1
 404 585 l 1,27,-1
 244 585 l 1,28,-1
 244 370 l 1,0,1
EndSplineSet
EndChar

StartChar: uni0460
Encoding: 1120 1120 332
Width: 600
Flags: W
HStem: -10 67<146.768 237.785 366.838 456.5> 635 20G<77.5 172 429 528.5>
VStem: 17 85<117.891 493.562> 258 85<88.1123 378> 499 86<108.669 492.557>
LayerCount: 2
Fore
SplineSet
564.5 490 m 128,-1,1
 585 404 585 404 585 283 c 0,2,3
 585 -11 585 -11 423 -10 c 0,4,5
 376 -10 376 -10 346.5 14.5 c 128,-1,6
 317 39 317 39 301 88 c 1,7,8
 285 39 285 39 256.5 14.5 c 128,-1,9
 228 -10 228 -10 180 -10 c 0,10,11
 137 -10 137 -10 100 19 c 128,-1,12
 63 48 63 48 40 113.5 c 128,-1,13
 17 179 17 179 17 283 c 0,14,15
 17 368 17 368 28.5 438 c 128,-1,16
 40 508 40 508 53.5 552.5 c 128,-1,17
 67 597 67 597 88 655 c 1,18,-1
 172 655 l 1,19,20
 137 568 137 568 119.5 482 c 128,-1,21
 102 396 102 396 102 287 c 0,22,23
 102 57 102 57 194 57 c 0,24,25
 222 57 222 57 240 81.5 c 128,-1,26
 258 106 258 106 258 161 c 2,27,-1
 258 378 l 1,28,-1
 343 378 l 1,29,-1
 343 162 l 2,30,31
 343 109 343 109 363 83 c 128,-1,32
 383 57 383 57 413 57 c 0,33,34
 454 57 454 57 476.5 104.5 c 128,-1,35
 499 152 499 152 499 284 c 0,36,37
 499 392 499 392 481 476.5 c 128,-1,38
 463 561 463 561 429 655 c 1,39,-1
 513 655 l 1,40,0
 544 576 544 576 564.5 490 c 128,-1,1
EndSplineSet
EndChar

StartChar: uni0462
Encoding: 1122 1122 333
Width: 600
GlyphClass: 2
Flags: W
HStem: 0 67<241 414.05> 342 65<241 416.05> 504 61<10 154 241 394> 635 20G<154 241>
VStem: 154 87<67 342 407 504 565 655> 475 93<121.896 288.956>
LayerCount: 2
Fore
SplineSet
500 357 m 128,-1,1
 568 307 568 307 568 210 c 0,2,3
 568 104 568 104 496 52 c 128,-1,4
 424 0 424 0 300 0 c 2,5,-1
 154 0 l 1,6,-1
 154 504 l 1,7,-1
 10 504 l 1,8,-1
 10 565 l 1,9,-1
 154 565 l 1,10,-1
 154 655 l 1,11,-1
 241 655 l 1,12,-1
 241 565 l 1,13,-1
 394 565 l 1,14,-1
 394 504 l 1,15,-1
 241 504 l 1,16,-1
 241 407 l 1,17,-1
 312 407 l 2,18,0
 432 407 432 407 500 357 c 128,-1,1
432 98.5 m 128,-1,20
 475 130 475 130 475 208 c 0,21,22
 475 279 475 279 433.5 310.5 c 128,-1,23
 392 342 392 342 314 342 c 2,24,-1
 241 342 l 1,25,-1
 241 67 l 1,26,-1
 310 67 l 2,27,19
 389 67 389 67 432 98.5 c 128,-1,20
EndSplineSet
EndChar

StartChar: uni0464
Encoding: 1124 1124 334
Width: 600
GlyphClass: 2
Flags: W
HStem: -10 69<373.698 536.793> 0 21G<40 128> 0 21G<40 128> 301 70<128 197 288 517> 597 68<376.905 548.594> 634 20G<40 128>
VStem: 40 88<0 302 373 654> 197 89<175.928 301 373 475.117>
LayerCount: 2
Fore
SplineSet
595 35 m 1,0,1
 565 13 565 13 530.5 1.5 c 128,-1,2
 496 -10 496 -10 446 -10 c 0,3,4
 335 -10 335 -10 269 70.5 c 128,-1,5
 203 151 203 151 197 302 c 1,6,-1
 128 302 l 1,7,-1
 128 0 l 1,8,-1
 40 0 l 1,9,-1
 40 654 l 1,10,-1
 128 654 l 1,11,-1
 128 373 l 1,12,-1
 199 373 l 1,13,14
 209 514 209 514 276.5 589.5 c 128,-1,15
 344 665 344 665 451 665 c 0,16,17
 496 665 496 665 526.5 655.5 c 128,-1,18
 557 646 557 646 588 626 c 1,19,-1
 546 572 l 1,20,21
 522 585 522 585 502 591 c 128,-1,22
 482 597 482 597 453 597 c 0,23,24
 307 597 307 597 288 371 c 1,25,-1
 517 371 l 1,26,-1
 517 301 l 1,27,-1
 286 301 l 1,28,29
 293 177 293 177 335 118 c 128,-1,30
 377 59 377 59 449 59 c 0,31,32
 483 59 483 59 504 66.5 c 128,-1,33
 525 74 525 74 554 90 c 1,34,-1
 595 35 l 1,0,1
EndSplineSet
EndChar

StartChar: uni0466
Encoding: 1126 1126 335
Width: 600
GlyphClass: 2
Flags: W
HStem: 0 21G<20 116.449 257 339 479.551 579> 0 21G<20 116.449 257 339 479.551 579> 276 70<222 257 339 374> 635 20G<238.13 361.84>
VStem: 257 82<0 276>
LayerCount: 2
Fore
SplineSet
397 276 m 1,0,-1
 339 276 l 1,1,-1
 339 0 l 1,2,-1
 257 0 l 1,3,-1
 257 276 l 1,4,-1
 199 276 l 1,5,-1
 110 0 l 1,6,-1
 20 0 l 1,7,-1
 245 655 l 1,8,-1
 355 655 l 1,9,-1
 579 0 l 1,10,-1
 486 0 l 1,11,-1
 397 276 l 1,0,-1
374 346 m 1,12,-1
 298 581 l 1,13,-1
 222 346 l 1,14,-1
 374 346 l 1,12,-1
EndSplineSet
EndChar

StartChar: uni0468
Encoding: 1128 1128 336
Width: 600
GlyphClass: 2
Flags: W
HStem: 0 21G<37 123 158 243.71 340 413 509.362 599> 0 21G<37 123 158 243.71 340 413 509.362 599> 276 66<123 228 319 340 413 435> 635 20G<37 123 317.986 439.038>
VStem: 37 86<0 276 342 655> 340 73<0 276>
LayerCount: 2
Fore
SplineSet
450 276 m 1,0,-1
 413 276 l 1,1,-1
 413 0 l 1,2,-1
 340 0 l 1,3,-1
 340 276 l 1,4,-1
 304 276 l 1,5,-1
 239 0 l 1,6,-1
 158 0 l 1,7,-1
 228 276 l 1,8,-1
 123 276 l 1,9,-1
 123 0 l 1,10,-1
 37 0 l 1,11,-1
 37 655 l 1,12,-1
 123 655 l 1,13,-1
 123 342 l 1,14,-1
 230 342 l 1,15,-1
 232 294 l 1,16,-1
 233 296 l 1,17,-1
 323 655 l 1,18,-1
 434 655 l 1,19,-1
 599 0 l 1,20,-1
 514 0 l 1,21,-1
 450 276 l 1,0,-1
435 342 m 1,22,-1
 377 590 l 1,23,-1
 319 342 l 1,24,-1
 435 342 l 1,22,-1
EndSplineSet
EndChar

StartChar: uni046A
Encoding: 1130 1130 337
Width: 600
GlyphClass: 2
Flags: W
HStem: 0 21G<38 123.627 258 343 476.441 562> 0 21G<38 123.627 258 343 476.441 562> 295 65<201 222 379 400> 595 60<183 426>
VStem: 258 85<0 295>
LayerCount: 2
Fore
SplineSet
562 0 m 1,0,-1
 482 0 l 1,1,-1
 400 295 l 1,2,-1
 343 295 l 1,3,-1
 343 0 l 1,4,-1
 258 0 l 1,5,-1
 258 295 l 1,6,-1
 201 295 l 1,7,-1
 118 0 l 1,8,-1
 38 0 l 1,9,-1
 150 360 l 1,10,-1
 222 360 l 1,11,-1
 93 599 l 1,12,-1
 93 655 l 1,13,-1
 513 655 l 1,14,-1
 513 599 l 1,15,-1
 379 360 l 1,16,-1
 459 360 l 1,17,-1
 562 0 l 1,0,-1
303 360 m 1,18,-1
 426 595 l 1,19,-1
 183 595 l 1,20,-1
 303 360 l 1,18,-1
EndSplineSet
EndChar

StartChar: uni046C
Encoding: 1132 1132 338
Width: 600
GlyphClass: 2
Flags: W
HStem: 0 21G<18 104 131 218.288 337 423 540.78 628> 0 21G<18 104 131 218.288 337 423 540.78 628> 295 65<104 220 291 304 455 469> 594 61<277 490>
VStem: 18 86<0 295 360 655> 337 86<0 295>
LayerCount: 2
Fore
SplineSet
628 0 m 1,0,-1
 546 0 l 1,1,-1
 469 295 l 1,2,-1
 423 295 l 1,3,-1
 423 0 l 1,4,-1
 337 0 l 1,5,-1
 337 295 l 1,6,-1
 291 295 l 1,7,-1
 213 0 l 1,8,-1
 131 0 l 1,9,-1
 220 295 l 1,10,-1
 104 295 l 1,11,-1
 104 0 l 1,12,-1
 18 0 l 1,13,-1
 18 655 l 1,14,-1
 104 655 l 1,15,-1
 104 360 l 1,16,-1
 304 360 l 1,17,-1
 190 599 l 1,18,-1
 190 655 l 1,19,-1
 574 655 l 1,20,-1
 574 599 l 1,21,-1
 455 360 l 1,22,-1
 528 360 l 1,23,-1
 628 0 l 1,0,-1
277 594 m 1,24,-1
 383 360 l 1,25,-1
 490 594 l 1,26,-1
 277 594 l 1,24,-1
EndSplineSet
EndChar

StartChar: uni046E
Encoding: 1134 1134 339
Width: 600
GlyphClass: 2
Flags: W
HStem: 295 62<264 376.817> 585 70<82 380> 716 21G<228.786 338.019>
VStem: 96 86<-118.207 -53.8978> 427 91<94.7834 248.078>
LayerCount: 2
Fore
SplineSet
255 716 m 1,0,-1
 120 819 l 1,1,-1
 158 860 l 1,2,-1
 283 783 l 1,3,-1
 409 860 l 1,4,-1
 446 819 l 1,5,-1
 312 716 l 1,6,-1
 255 716 l 1,0,-1
459.5 307 m 128,-1,8
 518 257 518 257 518 168 c 0,9,10
 518 82 518 82 458.5 30 c 128,-1,11
 399 -22 399 -22 307 -30 c 0,12,13
 256 -36 256 -36 229.5 -42 c 128,-1,14
 203 -48 203 -48 192.5 -57 c 128,-1,15
 182 -66 182 -66 182 -81 c 0,16,17
 182 -99 182 -99 200.5 -115.5 c 128,-1,18
 219 -132 219 -132 255 -150 c 1,19,-1
 223 -203 l 1,20,21
 160 -176 160 -176 128 -145 c 128,-1,22
 96 -114 96 -114 96 -74 c 0,23,24
 96 -27 96 -27 137 -1 c 128,-1,25
 178 25 178 25 263 32 c 0,26,27
 427 47 427 47 427 168 c 0,28,29
 427 235 427 235 389.5 265 c 128,-1,30
 352 295 352 295 275 295 c 2,31,-1
 169 295 l 1,32,-1
 169 356 l 1,33,-1
 380 585 l 1,34,-1
 82 585 l 1,35,-1
 82 655 l 1,36,-1
 484 655 l 1,37,-1
 484 585 l 1,38,-1
 264 357 l 1,39,-1
 291 357 l 2,40,7
 401 357 401 357 459.5 307 c 128,-1,8
EndSplineSet
EndChar

StartChar: uni0474
Encoding: 1140 1140 342
Width: 600
GlyphClass: 2
Flags: W
HStem: 0 21G<225.771 333.6> 0 21G<225.771 333.6> 601 64<498.171 572.618> 635 20G<28 126.643>
LayerCount: 2
Fore
SplineSet
532 601 m 0,1,2
 513 601 513 601 501.5 589 c 128,-1,3
 490 577 490 577 482 550 c 2,4,-1
 328 0 l 1,5,-1
 232 0 l 1,6,-1
 28 655 l 1,7,-1
 121 655 l 1,8,-1
 279 95 l 1,9,-1
 404 561 l 2,10,11
 419 615 419 615 447 640 c 128,-1,12
 475 665 475 665 522 665 c 0,13,14
 556 665 556 665 594 648 c 1,15,-1
 566 595 l 1,16,0
 545 601 545 601 532 601 c 0,1,2
EndSplineSet
EndChar

StartChar: uni0478
Encoding: 1144 1144 344
Width: 600
Flags: W
HStem: -10 62<125.11 205.297> 481 20G<324 402.773 514.455 594> 601 64<123.213 205.297>
VStem: 9 81<115.465 535.603> 239 81<118.924 535.396> 324 76<459.25 501> 517 77<458.494 501>
LayerCount: 2
Fore
SplineSet
45 74.5 m 128,-1,1
 9 159 9 159 9 326 c 0,2,3
 9 491 9 491 45 578 c 128,-1,4
 81 665 81 665 164 665 c 256,5,6
 247 665 247 665 283.5 579 c 128,-1,7
 320 493 320 493 320 327 c 0,8,9
 320 160 320 160 283.5 75 c 128,-1,10
 247 -10 247 -10 164 -10 c 256,11,0
 81 -10 81 -10 45 74.5 c 128,-1,1
210 80 m 128,-1,13
 226 108 226 108 232.5 167 c 128,-1,14
 239 226 239 226 239 327 c 0,15,16
 239 427 239 427 232.5 485.5 c 128,-1,17
 226 544 226 544 210 572.5 c 128,-1,18
 194 601 194 601 164 601 c 0,19,20
 135 601 135 601 119 572.5 c 128,-1,21
 103 544 103 544 96.5 485 c 128,-1,22
 90 426 90 426 90 326 c 0,23,24
 90 179 90 179 106.5 115.5 c 128,-1,25
 123 52 123 52 164 52 c 0,26,12
 194 52 194 52 210 80 c 128,-1,13
338 -141 m 1,27,28
 382 -129 382 -129 407.5 -96 c 128,-1,29
 433 -63 433 -63 443 0 c 1,30,-1
 408 0 l 1,31,-1
 324 501 l 1,32,-1
 400 501 l 1,33,-1
 461 61 l 1,34,-1
 517 501 l 1,35,-1
 594 501 l 1,36,-1
 511 -3 l 2,37,38
 497 -87 497 -87 456.5 -134.5 c 128,-1,39
 416 -182 416 -182 349 -201 c 1,40,-1
 338 -141 l 1,27,28
EndSplineSet
EndChar

StartChar: uni0492
Encoding: 1170 1170 345
Width: 600
GlyphClass: 2
Flags: W
HStem: 0 21G<167 254> 0 21G<167 254> 348 63<66 167 254 411> 581 74<254 566>
VStem: 167 87<0 348 411 581>
LayerCount: 2
Fore
SplineSet
254 581 m 1,0,-1
 254 411 l 1,1,-1
 411 411 l 1,2,-1
 411 348 l 1,3,-1
 254 348 l 1,4,-1
 254 0 l 1,5,-1
 167 0 l 1,6,-1
 167 348 l 1,7,-1
 66 348 l 1,8,-1
 66 411 l 1,9,-1
 167 411 l 1,10,-1
 167 655 l 1,11,-1
 575 655 l 1,12,-1
 566 581 l 1,13,-1
 254 581 l 1,0,-1
EndSplineSet
EndChar

StartChar: uni0494
Encoding: 1172 1172 346
Width: 600
GlyphClass: 2
Flags: W
HStem: -200 66<319.965 449.168> 0 21G<84 171> 0 21G<84 171> 355 73<245.376 417.397> 585 70<171 458>
VStem: 84 87<0 299.888 355 585> 462 87<-122.14 308>
LayerCount: 2
Fore
SplineSet
496 373 m 128,-1,1
 549 318 549 318 549 223 c 2,2,-1
 549 -58 l 2,3,4
 549 -127 549 -127 510.5 -163.5 c 128,-1,5
 472 -200 472 -200 404 -200 c 0,6,7
 340 -200 340 -200 291 -165 c 1,8,-1
 325 -111 l 1,9,10
 344 -123 344 -123 360 -128.5 c 128,-1,11
 376 -134 376 -134 400 -134 c 0,12,13
 462 -134 462 -134 462 -63 c 2,14,-1
 462 222 l 2,15,16
 462 287 462 287 431 321 c 128,-1,17
 400 355 400 355 338 355 c 0,18,19
 285 355 285 355 246 336 c 128,-1,20
 207 317 207 317 171 279 c 1,21,-1
 171 0 l 1,22,-1
 84 0 l 1,23,-1
 84 655 l 1,24,-1
 469 655 l 1,25,-1
 458 585 l 1,26,-1
 171 585 l 1,27,-1
 171 355 l 1,28,29
 207 390 207 390 251.5 409 c 128,-1,30
 296 428 296 428 353 428 c 0,31,0
 443 428 443 428 496 373 c 128,-1,1
EndSplineSet
EndChar

StartChar: uni0496
Encoding: 1174 1174 347
Width: 600
GlyphClass: 2
Flags: W
HStem: 0 21G<12 102.688 261 339> 0 21G<12 102.688 261 339> 311 67<201 261 339 399> 635 20G<27 116.57 261 339 484.357 573>
VStem: 261 78<0 311 378 655> 539 71<-140 -74.6667>
LayerCount: 2
Fore
SplineSet
610 69 m 1,0,-1
 610 -140 l 1,1,-1
 539 -140 l 1,2,-1
 524 0 l 1,3,-1
 500 0 l 1,4,-1
 501 5 l 1,5,-1
 399 311 l 1,6,-1
 339 311 l 1,7,-1
 339 0 l 1,8,-1
 261 0 l 1,9,-1
 261 311 l 1,10,-1
 200 311 l 1,11,-1
 96 0 l 1,12,-1
 12 0 l 1,13,-1
 135 346 l 1,14,-1
 27 655 l 1,15,-1
 110 655 l 1,16,-1
 201 378 l 1,17,-1
 261 378 l 1,18,-1
 261 655 l 1,19,-1
 339 655 l 1,20,-1
 339 378 l 1,21,-1
 399 378 l 1,22,-1
 491 655 l 1,23,-1
 573 655 l 1,24,-1
 465 346 l 1,25,-1
 563 69 l 1,26,-1
 610 69 l 1,0,-1
EndSplineSet
EndChar

StartChar: uni0498
Encoding: 1176 1176 348
Width: 600
GlyphClass: 2
Flags: W
HStem: -226 53<196.528 329.828> -10 69<166.131 254 314 381.333> 316 70<175 374.319> 598 67<167.717 376.951>
VStem: 334 73<-166.33 -100.794> 428 89<430.267 553.4> 447 94<118.245 264.255>
LayerCount: 2
Fore
SplineSet
513.5 96.5 m 128,-1,1
 486 52 486 52 434.5 24.5 c 128,-1,2
 383 -3 383 -3 314 -9 c 1,3,-1
 314 -54 l 1,4,5
 360 -58 360 -58 383.5 -80.5 c 128,-1,6
 407 -103 407 -103 407 -133 c 0,7,8
 407 -178 407 -178 371.5 -202 c 128,-1,9
 336 -226 336 -226 285 -226 c 0,10,11
 255 -226 255 -226 227.5 -220 c 128,-1,12
 200 -214 200 -214 180 -203 c 1,13,-1
 207 -158 l 1,14,15
 237 -173 237 -173 274 -173 c 0,16,17
 334 -173 334 -173 334 -134 c 0,18,19
 334 -109 334 -109 313 -100.5 c 128,-1,20
 292 -92 292 -92 248 -92 c 1,21,-1
 254 -10 l 1,22,23
 188 -6 188 -6 132 17.5 c 128,-1,24
 76 41 76 41 35 82 c 1,25,-1
 89 128 l 1,26,27
 171 59 171 59 278 59 c 0,28,29
 358 59 358 59 402.5 94 c 128,-1,30
 447 129 447 129 447 192 c 256,31,32
 447 255 447 255 403 285.5 c 128,-1,33
 359 316 359 316 286 316 c 2,34,-1
 165 316 l 1,35,-1
 175 386 l 1,36,-1
 280 386 l 2,37,38
 343 386 343 386 385.5 413 c 128,-1,39
 428 440 428 440 428 493 c 0,40,41
 428 543 428 543 386.5 570.5 c 128,-1,42
 345 598 345 598 279 598 c 0,43,44
 225 598 225 598 182 582 c 128,-1,45
 139 566 139 566 97 535 c 1,46,-1
 49 583 l 1,47,48
 101 624 101 624 157.5 644.5 c 128,-1,49
 214 665 214 665 281 665 c 0,50,51
 353 665 353 665 406.5 643.5 c 128,-1,52
 460 622 460 622 488.5 583 c 128,-1,53
 517 544 517 544 517 494 c 0,54,55
 517 436 517 436 477 400.5 c 128,-1,56
 437 365 437 365 375 356 c 1,57,58
 445 350 445 350 493 308 c 128,-1,59
 541 266 541 266 541 195 c 0,60,0
 541 141 541 141 513.5 96.5 c 128,-1,1
EndSplineSet
EndChar

StartChar: uni049A
Encoding: 1178 1178 349
Width: 600
GlyphClass: 2
Flags: W
HStem: 0 21G<95 181> 0 21G<95 181> 310 69<181 261> 635 20G<95 181 458.638 568>
VStem: 95 86<0 310 379 655> 503 83<-70 0> 517 69<-140 -70>
LayerCount: 2
Fore
SplineSet
586 0 m 1,0,-1
 586 -140 l 1,1,-1
 517 -140 l 1,2,-1
 503 0 l 1,3,-1
 481 0 l 1,4,-1
 481 1 l 1,5,-1
 261 310 l 1,6,-1
 181 310 l 1,7,-1
 181 0 l 1,8,-1
 95 0 l 1,9,-1
 95 655 l 1,10,-1
 181 655 l 1,11,-1
 181 379 l 1,12,-1
 262 379 l 1,13,-1
 474 655 l 1,14,-1
 568 655 l 1,15,-1
 336 346 l 1,16,-1
 537 69 l 1,17,-1
 586 69 l 1,18,-1
 586 1 l 1,19,-1
 587 0 l 1,20,-1
 586 0 l 1,0,-1
EndSplineSet
EndChar

StartChar: uni049C
Encoding: 1180 1180 350
Width: 600
GlyphClass: 2
Flags: W
HStem: 0 21G<95 180 478.258 587> 0 21G<95 180 478.258 587> 310 68<180 228 282 308> 635 20G<95 180 464.798 568>
VStem: 95 85<0 310 378 655> 228 54<142 310 378 542>
LayerCount: 2
Fore
SplineSet
228 310 m 1,0,-1
 180 310 l 1,1,-1
 180 0 l 1,2,-1
 95 0 l 1,3,-1
 95 655 l 1,4,-1
 180 655 l 1,5,-1
 180 378 l 1,6,-1
 228 378 l 1,7,-1
 228 542 l 1,8,-1
 282 542 l 1,9,-1
 282 378 l 1,10,-1
 308 378 l 1,11,-1
 477 655 l 1,12,-1
 568 655 l 1,13,-1
 376 346 l 1,14,-1
 587 0 l 1,15,-1
 490 0 l 1,16,-1
 308 310 l 1,17,-1
 282 310 l 1,18,-1
 282 142 l 1,19,-1
 228 142 l 1,20,-1
 228 310 l 1,0,-1
EndSplineSet
EndChar

StartChar: uni049E
Encoding: 1182 1182 351
Width: 600
Flags: W
HStem: 0 21G<112 198 466.032 584> 0 21G<112 198 466.032 584> 310 69<198 278> 497 66<37 112 198 313> 635 20G<112 198 457.159 565>
VStem: 112 86<0 310 379 497 563 655>
LayerCount: 2
Fore
SplineSet
584 0 m 1,0,-1
 479 0 l 1,1,-1
 278 310 l 1,2,-1
 198 310 l 1,3,-1
 198 0 l 1,4,-1
 112 0 l 1,5,-1
 112 497 l 1,6,-1
 37 497 l 1,7,-1
 37 563 l 1,8,-1
 112 563 l 1,9,-1
 112 655 l 1,10,-1
 198 655 l 1,11,-1
 198 563 l 1,12,-1
 313 563 l 1,13,-1
 313 497 l 1,14,-1
 198 497 l 1,15,-1
 198 379 l 1,16,-1
 280 379 l 1,17,-1
 471 655 l 1,18,-1
 565 655 l 1,19,-1
 353 346 l 1,20,-1
 584 0 l 1,0,-1
EndSplineSet
EndChar

StartChar: uni04A0
Encoding: 1184 1184 352
Width: 600
Flags: W
HStem: 0 21G<132 220 480.731 599> 0 21G<132 220 480.731 599> 309 70<220 289> 581 74<11 132>
VStem: 132 88<0 309 379 581>
LayerCount: 2
Fore
SplineSet
220 309 m 1,0,-1
 220 0 l 1,1,-1
 132 0 l 1,2,-1
 132 581 l 1,3,-1
 11 581 l 1,4,-1
 11 655 l 1,5,-1
 220 655 l 1,6,-1
 220 379 l 1,7,-1
 291 379 l 1,8,-1
 486 655 l 1,9,-1
 580 655 l 1,10,-1
 365 346 l 1,11,-1
 599 0 l 1,12,-1
 494 0 l 1,13,-1
 289 309 l 1,14,-1
 220 309 l 1,0,-1
EndSplineSet
EndChar

StartChar: uni04A2
Encoding: 1186 1186 353
Width: 600
GlyphClass: 2
Flags: W
HStem: 0 21G<83 170> 0 21G<83 170> 311 67<170 430> 635 20G<83 170 430 517>
VStem: 83 87<0 311 378 655> 430 87<69 311 378 655> 509 69<-140 -70>
LayerCount: 2
Fore
SplineSet
578 69 m 1,0,-1
 578 -140 l 1,1,-1
 509 -140 l 1,2,-1
 495 0 l 1,3,-1
 430 0 l 1,4,-1
 430 311 l 1,5,-1
 170 311 l 1,6,-1
 170 0 l 1,7,-1
 83 0 l 1,8,-1
 83 655 l 1,9,-1
 170 655 l 1,10,-1
 170 378 l 1,11,-1
 430 378 l 1,12,-1
 430 655 l 1,13,-1
 517 655 l 1,14,-1
 517 69 l 1,15,-1
 578 69 l 1,0,-1
EndSplineSet
EndChar

